<svg xmlns="http://www.w3.org/2000/svg" xmlns:xlink="http://www.w3.org/1999/xlink" version="1.1" viewBox="-493 -311 2013 1586" width="2013px" height="1586px"><defs><style>@font-face{
    font-family:"DIN Next";
    font-weight: 400;
    src:url("https://whimsical.com/fonts/139e8e25-0eea-4cb4-a5d4-79048803e73d.eot?#iefix");
    src:url("https://whimsical.com/fonts/139e8e25-0eea-4cb4-a5d4-79048803e73d.eot?#iefix") format("eot"),url("https://whimsical.com/fonts/094b15e3-94bd-435b-a595-d40edfde661a.woff2") format("woff2"),url("https://whimsical.com/fonts/7e5fbe11-4858-4bd1-9ec6-a1d9f9d227aa.woff") format("woff"),url("https://whimsical.com/fonts/0f11eff9-9f05-46f5-9703-027c510065d7.ttf") format("truetype"),url("https://whimsical.com/fonts/48b61978-3f30-4274-823c-5cdcd1876918.svg#48b61978-3f30-4274-823c-5cdcd1876918") format("svg");
}
@font-face{
    font-family:"DIN Next";
    font-weight: 400;
    font-style: italic;
    src:url("https://whimsical.com/fonts/df24d5e8-5087-42fd-99b1-b16042d666c8.eot?#iefix");
    src:url("https://whimsical.com/fonts/df24d5e8-5087-42fd-99b1-b16042d666c8.eot?#iefix") format("eot"),url("https://whimsical.com/fonts/46251881-ffe9-4bfb-99c7-d6ce3bebaf3e.woff2") format("woff2"),url("https://whimsical.com/fonts/790ebbf2-62c5-4a32-946f-99d405f9243e.woff") format("woff"),url("https://whimsical.com/fonts/d28199e6-0f4a-42df-97f4-606701c6f75a.ttf") format("truetype"),url("https://whimsical.com/fonts/37a462c0-d86e-492c-b9ab-35e6bd417f6c.svg#37a462c0-d86e-492c-b9ab-35e6bd417f6c") format("svg");
}
@font-face{
    font-weight: 500;
    font-family:"DIN Next";
    src:url("https://whimsical.com/fonts/c5b058fc-55ce-4e06-a175-5c7d9a7e90f4.eot?#iefix");
    src:url("https://whimsical.com/fonts/c5b058fc-55ce-4e06-a175-5c7d9a7e90f4.eot?#iefix") format("eot"),url("https://whimsical.com/fonts/7b29ae40-30ff-4f99-a2b9-cde88669fa2f.woff2") format("woff2"),url("https://whimsical.com/fonts/bf73077c-e354-4562-a085-f4703eb1d653.woff") format("woff"),url("https://whimsical.com/fonts/0ffa6947-5317-4d07-b525-14d08a028821.ttf") format("truetype"),url("https://whimsical.com/fonts/9e423e45-5450-4991-a157-dbe6cf61eb4e.svg#9e423e45-5450-4991-a157-dbe6cf61eb4e") format("svg");
}
@font-face{
    font-family:"DIN Next";
    font-weight: 500;
    font-style: italic;
    src:url("https://whimsical.com/fonts/9897c008-fd65-48a4-afc7-36de2fea97b9.eot?#iefix");
    src:url("https://whimsical.com/fonts/9897c008-fd65-48a4-afc7-36de2fea97b9.eot?#iefix") format("eot"),url("https://whimsical.com/fonts/c7717981-647d-4b76-8817-33062e42d11f.woff2") format("woff2"),url("https://whimsical.com/fonts/b852cd4c-1255-40b1-a2be-73a9105b0155.woff") format("woff"),url("https://whimsical.com/fonts/821b00ad-e741-4e2d-af1a-85594367c8a2.ttf") format("truetype"),url("https://whimsical.com/fonts/d3e3b689-a6b0-45f2-b279-f5e194f87409.svg#d3e3b689-a6b0-45f2-b279-f5e194f87409") format("svg");
}
@font-face{
    font-weight: 700;
    font-family:"DIN Next";
    src:url("https://whimsical.com/fonts/81cd3b08-fd39-4ae3-8d05-9d24709eba84.eot?#iefix");
    src:url("https://whimsical.com/fonts/81cd3b08-fd39-4ae3-8d05-9d24709eba84.eot?#iefix") format("eot"),url("https://whimsical.com/fonts/31704504-4671-47a6-a61e-397f07410d91.woff2") format("woff2"),url("https://whimsical.com/fonts/b8a280da-481f-44a0-8d9c-1bc64bd7227c.woff") format("woff"),url("https://whimsical.com/fonts/276d122a-0fab-447b-9fc0-5d7fb0eafce2.ttf") format("truetype"),url("https://whimsical.com/fonts/8fb8273a-8213-4928-808b-b5bfaf3fd7e9.svg#8fb8273a-8213-4928-808b-b5bfaf3fd7e9") format("svg");
}
@font-face{
    font-family:"DIN Next";
    font-weight: 700;
    font-style: italic;
    src:url("https://whimsical.com/fonts/00cc6df3-ed32-4004-8dd8-1c576600a408.eot?#iefix");
    src:url("https://whimsical.com/fonts/00cc6df3-ed32-4004-8dd8-1c576600a408.eot?#iefix") format("eot"),url("https://whimsical.com/fonts/4132c4c8-680c-4d6d-9251-a2da38503bbd.woff2") format("woff2"),url("https://whimsical.com/fonts/366401fe-6df4-47be-8f55-8a411cff0dd2.woff") format("woff"),url("https://whimsical.com/fonts/dbe4f7ba-fc16-44a6-a577-571620e9edaf.ttf") format("truetype"),url("https://whimsical.com/fonts/f874edca-ee87-4ccf-8b1d-921fbc3c1c36.svg#f874edca-ee87-4ccf-8b1d-921fbc3c1c36") format("svg");
}

@font-face {
    font-family: 'PFDINMonoPro';
    src:url('https://whimsical.com/fonts/PFDINMonoPro-Regular.woff') format('woff');
    font-weight: 400;
}
@font-face {
    font-family: 'PFDINMonoPro';
    src:url('https://whimsical.com/fonts/PFDINMonoPro-Italic.woff') format('woff');
    font-style: italic;
    font-weight: 400;
}
@font-face {
    font-family: 'PFDINMonoPro';
    src:url('https://whimsical.com/fonts/PFDINMonoPro-Bold.woff') format('woff');
    font-weight: 700;
}
@font-face {
    font-family: 'PFDINMonoPro';
    src:url('https://whimsical.com/fonts/PFDINMonoPro-BoldItalic.woff') format('woff');
    font-style: italic;
    font-weight: 700;
}
* {-webkit-font-smoothing: auto; -moz-osx-font-smoothing: auto;}@media print { svg { width: 100%; height: 100%; } }</style><g><filter id="white-fill-shadow"><feDropShadow dx="0" dy="2" stdDeviation="6" flood-opacity="0.03" flood-color="#000000"></feDropShadow></filter><filter id="light-gray-fill-shadow"><feDropShadow dx="0" dy="2" stdDeviation="6" flood-opacity="0.09" flood-color="#000000"></feDropShadow></filter><filter id="yellow-fill-shadow"><feDropShadow dx="0" dy="2" stdDeviation="6" flood-opacity="0.12" flood-color="#000000"></feDropShadow></filter><filter id="fill-shadow"><feDropShadow dx="0" dy="2" stdDeviation="6" flood-opacity="0.16" flood-color="#000000"></feDropShadow></filter><filter id="frame-shadow"><feDropShadow dx="0" dy="3" stdDeviation="8" flood-opacity="0.06" flood-color="#000000"></feDropShadow></filter><filter id="button-shadow"><feDropShadow dx="0" dy="2" stdDeviation="6" flood-opacity="0.03" flood-color="#000000"></feDropShadow></filter><filter id="button-hover-shadow"><feDropShadow dx="0" dy="2" stdDeviation="6" flood-opacity="0.08" flood-color="#000000"></feDropShadow></filter><filter id="badge-shadow"><feDropShadow dx="0" dy="2" stdDeviation="6" flood-opacity="0.08" flood-color="#000000"></feDropShadow></filter></g></defs><g><g><rect x="720" y="430" width="192" height="96" rx="3" ry="3" fill="#e3cff3"></rect><rect y="430" rx="3" stroke="#730FC3" fill="none" stroke-linejoin="round" width="192" stroke-linecap="round" stroke-width="2" x="720" ry="3" height="96"></rect><g class="content"><g><g><g><g><g></g><text fill="#293845" hover-props="{}"><tspan x="751.2001953125" y="460.5" font-family="DIN Next, sans-serif" font-size="18" font-style="normal" font-weight="normal">Owner/operator </tspan></text></g></g><g><g><g></g><text fill="#293845" hover-props="{}"><tspan x="746.8701171875" y="484.5" font-family="DIN Next, sans-serif" font-size="18" font-style="normal" font-weight="normal">authentication on </tspan></text></g></g><g><g><g></g><text fill="#293845" hover-props="{}"><tspan x="800.84375" y="508.5" font-family="DIN Next, sans-serif" font-size="18" font-style="normal" font-weight="normal">EVC</tspan></text></g></g></g></g></g></g></g><g><g><rect x="888" y="144" width="192" height="96" rx="3" ry="3" fill="#d5e7f7"></rect><rect y="144" rx="3" stroke="#2C88D9" fill="none" stroke-linejoin="round" width="192" stroke-linecap="round" stroke-width="2" x="888" ry="3" height="96"></rect><g class="content"><g><g><g><g><g></g><text fill="#293845" hover-props="{}"><tspan x="927.4443359375" y="198.5" font-family="DIN Next, sans-serif" font-size="18" font-style="normal" font-weight="normal">User/Operator</tspan></text></g></g></g></g></g></g></g><g><g><rect x="1047" y="288" width="192" height="96" rx="3" ry="3" fill="#e3cff3"></rect><rect y="288" rx="3" stroke="#730FC3" fill="none" stroke-linejoin="round" width="192" stroke-linecap="round" stroke-width="2" x="1047" ry="3" height="96"></rect><g class="content"><g><g><g><g id="657d978b-534d-49a6-9d25-577c01536740"><g><g><g><path d="M 1166.2890625 313.75 L 1168.2890625 315.75 L 1168.2890625 333.75 C 1168.2890625 334.75  1167.2890625 335.75  1166.2890625 335.75 L 1166.2890625 335.75 L 1114.390625 335.75 C 1113.390625 335.75  1112.390625 334.75  1112.390625 333.75 L 1112.390625 333.75 L 1112.390625 315.75 C 1112.390625 314.75  1113.390625 313.75  1114.390625 313.75 L 1114.390625 313.75 L 1166.2890625 313.75 C 1167.2890625 313.75  1168.2890625 314.75  1168.2890625 315.75 L 1168.2890625 315.75 z" fill="rgba(0,0,0,0.1)"></path></g></g><g></g><text fill="#293845" hover-props="{}"><tspan x="1117.390625" y="329.75" font-family="PFDINMonoPro, Courier, monospace" font-size="15.299999999999999" font-style="normal" font-weight="normal">batch</tspan></text></g></g><g><g></g><text fill="#293845" hover-props="{}"><tspan x="1169.2890625" y="329.75" font-family="DIN Next, sans-serif" font-size="18" font-style="normal" font-weight="normal"> </tspan></text></g></g></g></g><g><g><g><g><g></g><text fill="#293845" hover-props="{}"><tspan x="1116.1435546875" y="355.25" font-family="DIN Next, sans-serif" font-size="18" font-style="normal" font-weight="normal">on EVC</tspan></text></g></g></g></g></g></g></g><g><g><rect x="720" y="574" width="192" height="96" rx="3" ry="3" fill="#e7e4df"></rect><rect y="574" rx="3" stroke="#897A5F" fill="none" stroke-linejoin="round" width="192" stroke-linecap="round" stroke-width="2" x="720" ry="3" height="96"></rect><g class="content"><g><g><g><g><g></g><text fill="#293845" hover-props="{}"><tspan x="754.43896484375" y="628.5" font-family="DIN Next, sans-serif" font-size="18" font-style="normal" font-weight="normal">Vault operation*</tspan></text></g></g></g></g></g></g></g><g><g><rect x="1047" y="430" width="192" height="96" rx="3" ry="3" fill="#e3cff3"></rect><rect y="430" rx="3" stroke="#730FC3" fill="none" stroke-linejoin="round" width="192" stroke-linecap="round" stroke-width="2" x="1047" ry="3" height="96"></rect><g class="content"><g><g><g><g><g></g><text fill="#293845" hover-props="{}"><tspan x="1078.2001953125" y="460.5" font-family="DIN Next, sans-serif" font-size="18" font-style="normal" font-weight="normal">Owner/operator </tspan></text></g></g><g><g><g></g><text fill="#293845" hover-props="{}"><tspan x="1073.8701171875" y="484.5" font-family="DIN Next, sans-serif" font-size="18" font-style="normal" font-weight="normal">authentication on </tspan></text></g></g><g><g><g></g><text fill="#293845" hover-props="{}"><tspan x="1127.84375" y="508.5" font-family="DIN Next, sans-serif" font-size="18" font-style="normal" font-weight="normal">EVC</tspan></text></g></g></g></g></g></g></g><g><g><rect x="720" y="288" width="192" height="96" rx="3" ry="3" fill="#e3cff3"></rect><rect y="288" rx="3" stroke="#730FC3" fill="none" stroke-linejoin="round" width="192" stroke-linecap="round" stroke-width="2" x="720" ry="3" height="96"></rect><g class="content"><g><g><g><g id="358df033-cf6b-47da-b926-360311c04142"><g><g><g><path d="M 834.69921875 313.75 L 836.69921875 315.75 L 836.69921875 333.75 C 836.69921875 334.75  835.69921875 335.75  834.69921875 335.75 L 834.69921875 335.75 L 791.98046875 335.75 C 790.98046875 335.75  789.98046875 334.75  789.98046875 333.75 L 789.98046875 333.75 L 789.98046875 315.75 C 789.98046875 314.75  790.98046875 313.75  791.98046875 313.75 L 791.98046875 313.75 L 834.69921875 313.75 C 835.69921875 313.75  836.69921875 314.75  836.69921875 315.75 L 836.69921875 315.75 z" fill="rgba(0,0,0,0.1)"></path></g></g><g></g><text fill="#293845" hover-props="{}"><tspan x="794.98046875" y="329.75" font-family="PFDINMonoPro, Courier, monospace" font-size="15.299999999999999" font-style="normal" font-weight="normal">call</tspan></text></g></g><g><g></g><text fill="#293845" hover-props="{}"><tspan x="837.69921875" y="329.75" font-family="DIN Next, sans-serif" font-size="18" font-style="normal" font-weight="normal"> </tspan></text></g></g></g></g><g><g><g><g><g></g><text fill="#293845" hover-props="{}"><tspan x="789.1435546875" y="355.25" font-family="DIN Next, sans-serif" font-size="18" font-style="normal" font-weight="normal">on EVC</tspan></text></g></g></g></g></g></g></g><g><g><rect x="690" y="1006" width="252" height="99" rx="3" ry="3" fill="#e3cff3"></rect><rect y="1006" rx="3" stroke="#730FC3" fill="none" stroke-linejoin="round" width="252" stroke-linecap="round" stroke-width="2" x="690" ry="3" height="99"></rect><g class="content"><g><g><g><g id="ef27d4be-7fc7-4397-8607-7381b0cf98ff"><g><g><g><path d="M 924.06640625 1033.25 L 926.06640625 1035.25 L 926.06640625 1053.25 C 926.06640625 1054.25  925.06640625 1055.25  924.06640625 1055.25 L 924.06640625 1055.25 L 706.93359375 1055.25 C 705.93359375 1055.25  704.93359375 1054.25  704.93359375 1053.25 L 704.93359375 1053.25 L 704.93359375 1035.25 C 704.93359375 1034.25  705.93359375 1033.25  706.93359375 1033.25 L 706.93359375 1033.25 L 924.06640625 1033.25 C 925.06640625 1033.25  926.06640625 1034.25  926.06640625 1035.25 L 926.06640625 1035.25 z" fill="rgba(0,0,0,0.1)"></path></g></g><g></g><text fill="#293845" hover-props="{}"><tspan x="709.93359375" y="1049.25" font-family="PFDINMonoPro, Courier, monospace" font-size="15.299999999999999" font-style="normal" font-weight="normal">requireVaultStatusCheck</tspan></text></g></g></g><g><g><g></g><text fill="#293845" hover-props="{}"><tspan x="789.1435546875" y="1074.75" font-family="DIN Next, sans-serif" font-size="18" font-style="normal" font-weight="normal">on EVC</tspan></text></g></g></g></g></g></g></g><g><g><rect x="681" y="718" width="270" height="99" rx="3" ry="3" fill="#e3cff3"></rect><rect y="718" rx="3" stroke="#730FC3" fill="none" stroke-linejoin="round" width="270" stroke-linecap="round" stroke-width="2" x="681" ry="3" height="99"></rect><g class="content"><g><g><g><g id="f57b326e-daff-4697-9437-a70efd398200"><g><g><g><path d="M 933.24609375 745.25 L 935.24609375 747.25 L 935.24609375 765.25 C 935.24609375 766.25  934.24609375 767.25  933.24609375 767.25 L 933.24609375 767.25 L 697.75390625 767.25 C 696.75390625 767.25  695.75390625 766.25  695.75390625 765.25 L 695.75390625 765.25 L 695.75390625 747.25 C 695.75390625 746.25  696.75390625 745.25  697.75390625 745.25 L 697.75390625 745.25 L 933.24609375 745.25 C 934.24609375 745.25  935.24609375 746.25  935.24609375 747.25 L 935.24609375 747.25 z" fill="rgba(0,0,0,0.1)"></path></g></g><g></g><text fill="#293845" hover-props="{}"><tspan x="700.75390625" y="761.25" font-family="PFDINMonoPro, Courier, monospace" font-size="15.299999999999999" font-style="normal" font-weight="normal">requireAccountStatusCheck</tspan></text></g></g></g><g><g><g></g><text fill="#293845" hover-props="{}"><tspan x="789.1435546875" y="786.75" font-family="DIN Next, sans-serif" font-size="18" font-style="normal" font-weight="normal">on EVC</tspan></text></g></g></g></g></g></g></g><g><g><rect x="711" y="849" width="211" height="123" rx="3" ry="3" fill="#e7e4df"></rect><rect y="849" rx="3" stroke="#897A5F" fill="none" stroke-linejoin="round" width="211" stroke-linecap="round" stroke-width="2" x="711" ry="3" height="123"></rect><g class="content"><g><g><g><g><g></g><text fill="#293845" hover-props="{}"><tspan x="732.89892578125" y="892.25" font-family="DIN Next, sans-serif" font-size="18" font-style="normal" font-weight="normal">If Controller enabled, </tspan></text></g></g><g><g id="5021d1e3-f6d7-4bf0-bd5a-edcf65703fec"><g><g><g><path d="M 899.45703125 900.25 L 901.45703125 902.25 L 901.45703125 920.25 C 901.45703125 921.25  900.45703125 922.25  899.45703125 922.25 L 899.45703125 922.25 L 728.22265625 922.25 C 727.22265625 922.25  726.22265625 921.25  726.22265625 920.25 L 726.22265625 920.25 L 726.22265625 902.25 C 726.22265625 901.25  727.22265625 900.25  728.22265625 900.25 L 728.22265625 900.25 L 899.45703125 900.25 C 900.45703125 900.25  901.45703125 901.25  901.45703125 902.25 L 901.45703125 902.25 z" fill="rgba(0,0,0,0.1)"></path></g></g><g></g><text fill="#293845" hover-props="{}"><tspan x="731.22265625" y="916.25" font-family="PFDINMonoPro, Courier, monospace" font-size="15.299999999999999" font-style="normal" font-weight="normal">checkAccountStatus</tspan></text></g></g><g><g></g><text fill="#293845" hover-props="{}"><tspan x="902.45703125" y="916.25" font-family="DIN Next, sans-serif" font-size="18" font-style="normal" font-weight="normal"> </tspan></text></g></g><g><g><g></g><text fill="#293845" hover-props="{}"><tspan x="759.05224609375" y="941.75" font-family="DIN Next, sans-serif" font-size="18" font-style="normal" font-weight="normal">on a Controller</tspan></text></g></g></g></g></g></g></g><g><g><rect x="720" y="1152" width="192" height="123" rx="3" ry="3" fill="#e7e4df"></rect><rect y="1152" rx="3" stroke="#897A5F" fill="none" stroke-linejoin="round" width="192" stroke-linecap="round" stroke-width="2" x="720" ry="3" height="123"></rect><g class="content"><g><g><g><g id="135636fe-97cc-4d16-951a-01f98a3ddb28"><g><g><g><path d="M 889.77734375 1191.25 L 891.77734375 1193.25 L 891.77734375 1211.25 C 891.77734375 1212.25  890.77734375 1213.25  889.77734375 1213.25 L 889.77734375 1213.25 L 736.90234375 1213.25 C 735.90234375 1213.25  734.90234375 1212.25  734.90234375 1211.25 L 734.90234375 1211.25 L 734.90234375 1193.25 C 734.90234375 1192.25  735.90234375 1191.25  736.90234375 1191.25 L 736.90234375 1191.25 L 889.77734375 1191.25 C 890.77734375 1191.25  891.77734375 1192.25  891.77734375 1193.25 L 891.77734375 1193.25 z" fill="rgba(0,0,0,0.1)"></path></g></g><g></g><text fill="#293845" hover-props="{}"><tspan x="739.90234375" y="1207.25" font-family="PFDINMonoPro, Courier, monospace" font-size="15.299999999999999" font-style="normal" font-weight="normal">checkVaultStatus</tspan></text></g></g><g><g></g><text fill="#293845" hover-props="{}"><tspan x="892.77734375" y="1207.25" font-family="DIN Next, sans-serif" font-size="18" font-style="normal" font-weight="normal"> </tspan></text></g></g><g><g><g></g><text fill="#293845" hover-props="{}"><tspan x="784.83203125" y="1232.75" font-family="DIN Next, sans-serif" font-size="18" font-style="normal" font-weight="normal">on Vault</tspan></text></g></g></g></g></g></g></g><g><g><rect x="1047" y="574" width="192" height="96" rx="3" ry="3" fill="#e7e4df"></rect><rect y="574" rx="3" stroke="#897A5F" fill="none" stroke-linejoin="round" width="192" stroke-linecap="round" stroke-width="2" x="1047" ry="3" height="96"></rect><g class="content"><g><g><g><g><g></g><text fill="#293845" hover-props="{}"><tspan x="1081.43896484375" y="628.5" font-family="DIN Next, sans-serif" font-size="18" font-style="normal" font-weight="normal">Vault operation*</tspan></text></g></g></g></g></g></g></g><g><g><rect x="1017" y="860" width="252" height="99" rx="3" ry="3" fill="#e3cff3"></rect><rect y="860" rx="3" stroke="#730FC3" fill="none" stroke-linejoin="round" width="252" stroke-linecap="round" stroke-width="2" x="1017" ry="3" height="99"></rect><g class="content"><g><g><g><g id="d238ee01-05d8-4824-83b6-8a9dddfbdb30"><g><g><g><path d="M 1251.06640625 887.25 L 1253.06640625 889.25 L 1253.06640625 907.25 C 1253.06640625 908.25  1252.06640625 909.25  1251.06640625 909.25 L 1251.06640625 909.25 L 1033.93359375 909.25 C 1032.93359375 909.25  1031.93359375 908.25  1031.93359375 907.25 L 1031.93359375 907.25 L 1031.93359375 889.25 C 1031.93359375 888.25  1032.93359375 887.25  1033.93359375 887.25 L 1033.93359375 887.25 L 1251.06640625 887.25 C 1252.06640625 887.25  1253.06640625 888.25  1253.06640625 889.25 L 1253.06640625 889.25 z" fill="rgba(0,0,0,0.1)"></path></g></g><g></g><text fill="#293845" hover-props="{}"><tspan x="1036.93359375" y="903.25" font-family="PFDINMonoPro, Courier, monospace" font-size="15.299999999999999" font-style="normal" font-weight="normal">requireVaultStatusCheck</tspan></text></g></g></g><g><g><g></g><text fill="#293845" hover-props="{}"><tspan x="1116.1435546875" y="928.75" font-family="DIN Next, sans-serif" font-size="18" font-style="normal" font-weight="normal">on EVC</tspan></text></g></g></g></g></g></g></g><g><g><rect x="1008" y="718" width="270" height="99" rx="3" ry="3" fill="#e3cff3"></rect><rect y="718" rx="3" stroke="#730FC3" fill="none" stroke-linejoin="round" width="270" stroke-linecap="round" stroke-width="2" x="1008" ry="3" height="99"></rect><g class="content"><g><g><g><g id="bb83b150-cd00-4d04-b2d3-2d8194aef4cd"><g><g><g><path d="M 1260.24609375 745.25 L 1262.24609375 747.25 L 1262.24609375 765.25 C 1262.24609375 766.25  1261.24609375 767.25  1260.24609375 767.25 L 1260.24609375 767.25 L 1024.75390625 767.25 C 1023.75390625 767.25  1022.75390625 766.25  1022.75390625 765.25 L 1022.75390625 765.25 L 1022.75390625 747.25 C 1022.75390625 746.25  1023.75390625 745.25  1024.75390625 745.25 L 1024.75390625 745.25 L 1260.24609375 745.25 C 1261.24609375 745.25  1262.24609375 746.25  1262.24609375 747.25 L 1262.24609375 747.25 z" fill="rgba(0,0,0,0.1)"></path></g></g><g></g><text fill="#293845" hover-props="{}"><tspan x="1027.75390625" y="761.25" font-family="PFDINMonoPro, Courier, monospace" font-size="15.299999999999999" font-style="normal" font-weight="normal">requireAccountStatusCheck</tspan></text></g></g></g><g><g><g></g><text fill="#293845" hover-props="{}"><tspan x="1116.1435546875" y="786.75" font-family="DIN Next, sans-serif" font-size="18" font-style="normal" font-weight="normal">on EVC</tspan></text></g></g></g></g></g></g></g><g><g><rect x="1038" y="994" width="211" height="123" rx="3" ry="3" fill="#e7e4df"></rect><rect y="994" rx="3" stroke="#897A5F" fill="none" stroke-linejoin="round" width="211" stroke-linecap="round" stroke-width="2" x="1038" ry="3" height="123"></rect><g class="content"><g><g><g><g><g></g><text fill="#293845" hover-props="{}"><tspan x="1059.89892578125" y="1037.25" font-family="DIN Next, sans-serif" font-size="18" font-style="normal" font-weight="normal">If Controller enabled, </tspan></text></g></g><g><g id="fce59383-cf76-47b5-b1aa-da656b2a2592"><g><g><g><path d="M 1226.45703125 1045.25 L 1228.45703125 1047.25 L 1228.45703125 1065.25 C 1228.45703125 1066.25  1227.45703125 1067.25  1226.45703125 1067.25 L 1226.45703125 1067.25 L 1055.22265625 1067.25 C 1054.22265625 1067.25  1053.22265625 1066.25  1053.22265625 1065.25 L 1053.22265625 1065.25 L 1053.22265625 1047.25 C 1053.22265625 1046.25  1054.22265625 1045.25  1055.22265625 1045.25 L 1055.22265625 1045.25 L 1226.45703125 1045.25 C 1227.45703125 1045.25  1228.45703125 1046.25  1228.45703125 1047.25 L 1228.45703125 1047.25 z" fill="rgba(0,0,0,0.1)"></path></g></g><g></g><text fill="#293845" hover-props="{}"><tspan x="1058.22265625" y="1061.25" font-family="PFDINMonoPro, Courier, monospace" font-size="15.299999999999999" font-style="normal" font-weight="normal">checkAccountStatus</tspan></text></g></g><g><g></g><text fill="#293845" hover-props="{}"><tspan x="1229.45703125" y="1061.25" font-family="DIN Next, sans-serif" font-size="18" font-style="normal" font-weight="normal"> </tspan></text></g></g><g><g><g></g><text fill="#293845" hover-props="{}"><tspan x="1092.88330078125" y="1086.75" font-family="DIN Next, sans-serif" font-size="18" font-style="normal" font-weight="normal">on Controller</tspan></text></g></g></g></g></g></g></g><g><g><path d="M1257,1055.5h144c4.67915,0 8.8579,-2.1425 11.60876,-5.5M1412.18052,1022c-2.7466,-3.06875 -6.73803,-5 -11.18052,-5h-140" fill="none" stroke="#788896" stroke-linecap="round" stroke-linejoin="round" stroke-width="4"></path><polygon points="1264.0921,1022.54095 1257,1017 1264.0921,1011.45905" fill="#788896" stroke="#788896" stroke-width="2" stroke-linecap="round" stroke-linejoin="round"></polygon><text y="1024" font-style="normal" font-size="18" font-weight="normal" fill="#293845" width="200" xml:space="preserve" x="1316" font-family="DIN Next, sans-serif" height="24"><tspan x="1416" y="1042" text-anchor="middle" style="white-space:pre;">for each deferred account</tspan></text></g></g><g><g><rect x="1047" y="1151" width="192" height="123" rx="3" ry="3" fill="#e7e4df"></rect><rect y="1151" rx="3" stroke="#897A5F" fill="none" stroke-linejoin="round" width="192" stroke-linecap="round" stroke-width="2" x="1047" ry="3" height="123"></rect><g class="content"><g><g><g><g id="e2c2432d-aaed-4e35-a9fd-c2ae60bfdf7f"><g><g><g><path d="M 1216.77734375 1190.25 L 1218.77734375 1192.25 L 1218.77734375 1210.25 C 1218.77734375 1211.25  1217.77734375 1212.25  1216.77734375 1212.25 L 1216.77734375 1212.25 L 1063.90234375 1212.25 C 1062.90234375 1212.25  1061.90234375 1211.25  1061.90234375 1210.25 L 1061.90234375 1210.25 L 1061.90234375 1192.25 C 1061.90234375 1191.25  1062.90234375 1190.25  1063.90234375 1190.25 L 1063.90234375 1190.25 L 1216.77734375 1190.25 C 1217.77734375 1190.25  1218.77734375 1191.25  1218.77734375 1192.25 L 1218.77734375 1192.25 z" fill="rgba(0,0,0,0.1)"></path></g></g><g></g><text fill="#293845" hover-props="{}"><tspan x="1066.90234375" y="1206.25" font-family="PFDINMonoPro, Courier, monospace" font-size="15.299999999999999" font-style="normal" font-weight="normal">checkVaultStatus</tspan></text></g></g><g><g></g><text fill="#293845" hover-props="{}"><tspan x="1219.77734375" y="1206.25" font-family="DIN Next, sans-serif" font-size="18" font-style="normal" font-weight="normal"> </tspan></text></g></g><g><g><g></g><text fill="#293845" hover-props="{}"><tspan x="1111.83203125" y="1231.75" font-family="DIN Next, sans-serif" font-size="18" font-style="normal" font-weight="normal">on Vault</tspan></text></g></g></g></g></g></g></g><g><g><line stroke="#788896" fill="none" stroke-linejoin="round" y1="534" stroke-linecap="round" stroke-width="4" x1="816" y2="562" x2="816"></line><polygon points="821.54095,558.9079 816,566 810.45905,558.9079" fill="#788896" stroke="#788896" stroke-width="2" stroke-linecap="round" stroke-linejoin="round"></polygon></g></g><g><g><path d="M1088,192h40c8.28426,0 15,6.71574 15,15v69" fill="none" stroke="#788896" stroke-linecap="round" stroke-linejoin="round" stroke-width="4"></path><polygon points="1148.54095,272.9079 1143,280 1137.45905,272.9079" fill="#788896" stroke="#788896" stroke-width="2" stroke-linecap="round" stroke-linejoin="round"></polygon></g></g><g><g><path d="M880,192h-49c-8.28426,0 -15,6.71574 -15,15v69" fill="none" stroke="#788896" stroke-linecap="round" stroke-linejoin="round" stroke-width="4"></path><polygon points="821.54095,272.9079 816,280 810.45905,272.9079" fill="#788896" stroke="#788896" stroke-width="2" stroke-linecap="round" stroke-linejoin="round"></polygon></g></g><g><g><line stroke="#788896" fill="none" stroke-linejoin="round" y1="391.99999999999994" stroke-linecap="round" stroke-width="4" x1="816" y2="418" x2="816"></line><polygon points="821.54095,414.9079 816,422 810.45905,414.9079" fill="#788896" stroke="#788896" stroke-width="2" stroke-linecap="round" stroke-linejoin="round"></polygon></g></g><g><g><path d="M816,825v8.5c0,0.13807 0.11193,0.25 0.25,0.25v0c0.13807,0 0.25,0.11193 0.25,0.25v3" fill="none" stroke="#788896" stroke-linecap="round" stroke-linejoin="round" stroke-width="4"></path><polygon points="822.04095,833.9079 816.5,841 810.95905,833.9079" fill="#788896" stroke="#788896" stroke-width="2" stroke-linecap="round" stroke-linejoin="round"></polygon></g></g><g><g><path d="M816.5,980v9.75c0,0.13807 -0.11193,0.25 -0.25,0.25v0c-0.13807,0 -0.25,0.11193 -0.25,0.25v3.75" fill="none" stroke="#788896" stroke-linecap="round" stroke-linejoin="round" stroke-width="4"></path><polygon points="821.54095,990.9079 816,998 810.45905,990.9079" fill="#788896" stroke="#788896" stroke-width="2" stroke-linecap="round" stroke-linejoin="round"></polygon></g></g><g><g><line stroke="#788896" fill="none" stroke-linejoin="round" y1="1113" stroke-linecap="round" stroke-width="4" x1="816" y2="1140" x2="816"></line><polygon points="821.54095,1136.9079 816,1144 810.45905,1136.9079" fill="#788896" stroke="#788896" stroke-width="2" stroke-linecap="round" stroke-linejoin="round"></polygon></g></g><g><g><line stroke="#788896" fill="none" stroke-linejoin="round" y1="678" stroke-linecap="round" stroke-width="4" x1="816" y2="706" x2="816"></line><polygon points="821.54095,702.9079 816,710 810.45905,702.9079" fill="#788896" stroke="#788896" stroke-width="2" stroke-linecap="round" stroke-linejoin="round"></polygon></g></g><g><g><line stroke="#788896" fill="none" stroke-linejoin="round" y1="678" stroke-linecap="round" stroke-width="4" x1="1143" y2="706" x2="1143"></line><polygon points="1148.54095,702.9079 1143,710 1137.45905,702.9079" fill="#788896" stroke="#788896" stroke-width="2" stroke-linecap="round" stroke-linejoin="round"></polygon></g></g><g><g><line stroke="#788896" fill="none" stroke-linejoin="round" y1="391.9999999999999" stroke-linecap="round" stroke-width="4" x1="1143" y2="418.00000000000006" x2="1143"></line><polygon points="1148.54095,414.9079 1143,422 1137.45905,414.9079" fill="#788896" stroke="#788896" stroke-width="2" stroke-linecap="round" stroke-linejoin="round"></polygon></g></g><g><g><line stroke="#788896" fill="none" stroke-linejoin="round" y1="534" stroke-linecap="round" stroke-width="4" x1="1143" y2="562" x2="1143"></line><polygon points="1148.54095,558.9079 1143,566 1137.45905,558.9079" fill="#788896" stroke="#788896" stroke-width="2" stroke-linecap="round" stroke-linejoin="round"></polygon></g></g><g><g><path d="M1247,1212.5h154c4.67915,0 8.8579,-2.1425 11.60876,-5.5M1410.00145,1179c-2.50723,-1.88373 -5.62399,-3 -9.00145,-3h-158" fill="none" stroke="#788896" stroke-linecap="round" stroke-linejoin="round" stroke-width="4"></path><polygon points="1246.0921,1181.54095 1239,1176 1246.0921,1170.45905" fill="#788896" stroke="#788896" stroke-width="2" stroke-linecap="round" stroke-linejoin="round"></polygon><text y="1181" font-style="normal" font-size="18" font-weight="normal" fill="#293845" width="178" xml:space="preserve" x="1327" font-family="DIN Next, sans-serif" height="24"><tspan x="1416" y="1199" text-anchor="middle" style="white-space:pre;">for each deferred vault</tspan></text></g></g><g><g><line stroke="#788896" fill="none" stroke-linejoin="round" y1="1125" stroke-linecap="round" stroke-width="4" x1="1143.5" y2="1139" x2="1143.5"></line><polygon points="1149.04095,1135.9079 1143.5,1143 1137.95905,1135.9079" fill="#788896" stroke="#788896" stroke-width="2" stroke-linecap="round" stroke-linejoin="round"></polygon></g></g><g><g><rect x="552" y="-10" width="336" height="132" rx="3" ry="3" fill="#fae6d8"></rect><rect y="-10" rx="3" stroke="#E8833A" fill="none" stroke-linejoin="round" width="336" stroke-linecap="round" stroke-width="2" x="552" ry="3" height="132"></rect><g class="content"><g><g><g><g id="1e928f69-6986-405d-989b-36bd626e4bd7"><g><g></g><text fill="#293845" hover-props="{}"><tspan x="587.478515625" y="49" font-family="DIN Next, sans-serif" font-size="21" font-style="normal" font-weight="bold">Operation on a Vault via EVC </tspan></text></g></g></g></g></g><g><g><g><g id="08141a60-b4cf-457b-ae07-4dbd633b979e"><g><g></g><text fill="#293845" hover-props="{}"><tspan x="574.416015625" y="77.5" font-family="DIN Next, sans-serif" font-size="21" font-style="normal" font-weight="bold">(for all accounts and operators)</tspan></text></g></g></g></g></g></g></g></g><g><g><rect x="1080" y="-10" width="336" height="132" rx="3" ry="3" fill="#fae6d8"></rect><rect y="-10" rx="3" stroke="#E8833A" fill="none" stroke-linejoin="round" width="336" stroke-linecap="round" stroke-width="2" x="1080" ry="3" height="132"></rect><g class="content"><g><g><g><g id="81a53c14-b76d-4d35-b8da-2cb7bf01f80f"><g><g></g><text fill="#293845" hover-props="{}"><tspan x="1155.85107421875" y="49" font-family="DIN Next, sans-serif" font-size="21" font-style="normal" font-weight="bold">Batched operations </tspan></text></g></g></g></g></g><g><g><g><g id="d72eba9a-17f2-4cb9-bc21-1ea841b79f99"><g><g></g><text fill="#293845" hover-props="{}"><tspan x="1102.416015625" y="77.5" font-family="DIN Next, sans-serif" font-size="21" font-style="normal" font-weight="bold">(for all accounts and operators)</tspan></text></g></g></g></g></g></g></g></g><g><g><rect x="-272" y="718" width="252" height="99" rx="3" ry="3" fill="#e3cff3"></rect><rect y="718" rx="3" stroke="#730FC3" fill="none" stroke-linejoin="round" width="252" stroke-linecap="round" stroke-width="2" x="-272" ry="3" height="99"></rect><g class="content"><g><g><g><g id="d8d617fd-42d6-4292-9966-3786a4536335"><g><g><g><path d="M -37.93359375 745.25 L -35.93359375 747.25 L -35.93359375 765.25 C -35.93359375 766.25  -36.93359375 767.25  -37.93359375 767.25 L -37.93359375 767.25 L -255.06640625 767.25 C -256.06640625 767.25  -257.06640625 766.25  -257.06640625 765.25 L -257.06640625 765.25 L -257.06640625 747.25 C -257.06640625 746.25  -256.06640625 745.25  -255.06640625 745.25 L -255.06640625 745.25 L -37.93359375 745.25 C -36.93359375 745.25  -35.93359375 746.25  -35.93359375 747.25 L -35.93359375 747.25 z" fill="rgba(0,0,0,0.1)"></path></g></g><g></g><text fill="#293845" hover-props="{}"><tspan x="-252.06640625" y="761.25" font-family="PFDINMonoPro, Courier, monospace" font-size="15.299999999999999" font-style="normal" font-weight="normal">requireVaultStatusCheck</tspan></text></g></g></g><g><g><g></g><text fill="#293845" hover-props="{}"><tspan x="-172.8564453125" y="786.75" font-family="DIN Next, sans-serif" font-size="18" font-style="normal" font-weight="normal">on EVC</tspan></text></g></g></g></g></g></g></g><g><g><rect x="-242" y="288" width="192" height="96" rx="3" ry="3" fill="#e7e4df"></rect><rect y="288" rx="3" stroke="#897A5F" fill="none" stroke-linejoin="round" width="192" stroke-linecap="round" stroke-width="2" x="-242" ry="3" height="96"></rect><g class="content"><g><g><g><g><g></g><text fill="#293845" hover-props="{}"><tspan x="-207.56103515625" y="342.5" font-family="DIN Next, sans-serif" font-size="18" font-style="normal" font-weight="normal">Vault operation*</tspan></text></g></g></g></g></g></g></g><g><g><rect x="-281" y="430" width="270" height="99" rx="3" ry="3" fill="#e3cff3"></rect><rect y="430" rx="3" stroke="#730FC3" fill="none" stroke-linejoin="round" width="270" stroke-linecap="round" stroke-width="2" x="-281" ry="3" height="99"></rect><g class="content"><g><g><g><g id="9c4dc3f1-69d9-42d1-b34a-ff1a6643f456"><g><g><g><path d="M -28.75390625 457.25 L -26.75390625 459.25 L -26.75390625 477.25 C -26.75390625 478.25  -27.75390625 479.25  -28.75390625 479.25 L -28.75390625 479.25 L -264.24609375 479.25 C -265.24609375 479.25  -266.24609375 478.25  -266.24609375 477.25 L -266.24609375 477.25 L -266.24609375 459.25 C -266.24609375 458.25  -265.24609375 457.25  -264.24609375 457.25 L -264.24609375 457.25 L -28.75390625 457.25 C -27.75390625 457.25  -26.75390625 458.25  -26.75390625 459.25 L -26.75390625 459.25 z" fill="rgba(0,0,0,0.1)"></path></g></g><g></g><text fill="#293845" hover-props="{}"><tspan x="-261.24609375" y="473.25" font-family="PFDINMonoPro, Courier, monospace" font-size="15.299999999999999" font-style="normal" font-weight="normal">requireAccountStatusCheck</tspan></text></g></g></g><g><g><g></g><text fill="#293845" hover-props="{}"><tspan x="-172.8564453125" y="498.75" font-family="DIN Next, sans-serif" font-size="18" font-style="normal" font-weight="normal">on EVC</tspan></text></g></g></g></g></g></g></g><g><g><rect x="-242" y="144" width="192" height="96" rx="3" ry="3" fill="#d5e7f7"></rect><rect y="144" rx="3" stroke="#2C88D9" fill="none" stroke-linejoin="round" width="192" stroke-linecap="round" stroke-width="2" x="-242" ry="3" height="96"></rect><g class="content"><g><g><g><g><g></g><text fill="#293845" hover-props="{}"><tspan x="-164.458984375" y="198.5" font-family="DIN Next, sans-serif" font-size="18" font-style="normal" font-weight="normal">User</tspan></text></g></g></g></g></g></g></g><g><g><rect x="-314" y="-10" width="336" height="132" rx="3" ry="3" fill="#fae6d8"></rect><rect y="-10" rx="3" stroke="#E8833A" fill="none" stroke-linejoin="round" width="336" stroke-linecap="round" stroke-width="2" x="-314" ry="3" height="132"></rect><g class="content"><g><g><g><g id="5cb2d7bf-9547-42b7-8eb2-3812af9b4d54"><g><g></g><text fill="#293845" hover-props="{}"><tspan x="-268.525390625" y="49" font-family="DIN Next, sans-serif" font-size="21" font-style="normal" font-weight="bold">Direct operation on a Vault</tspan></text></g></g></g></g></g><g><g><g><g id="aefa6051-fa11-43f5-b314-476c2dd7b9ad"><g><g></g><text fill="#293845" hover-props="{}"><tspan x="-271.78076171875" y="77.5" font-family="DIN Next, sans-serif" font-size="21" font-style="normal" font-weight="bold">(only for primary accounts)</tspan></text></g></g></g></g></g></g></g></g><g><g><rect x="-251" y="561" width="211" height="123" rx="3" ry="3" fill="#e7e4df"></rect><rect y="561" rx="3" stroke="#897A5F" fill="none" stroke-linejoin="round" width="211" stroke-linecap="round" stroke-width="2" x="-251" ry="3" height="123"></rect><g class="content"><g><g><g><g><g></g><text fill="#293845" hover-props="{}"><tspan x="-229.10107421875" y="604.25" font-family="DIN Next, sans-serif" font-size="18" font-style="normal" font-weight="normal">If Controller enabled, </tspan></text></g></g><g><g id="fa8f1707-ea86-435f-8d9c-9d30b5fec415"><g><g><g><path d="M -62.54296875 612.25 L -60.54296875 614.25 L -60.54296875 632.25 C -60.54296875 633.25  -61.54296875 634.25  -62.54296875 634.25 L -62.54296875 634.25 L -233.77734375 634.25 C -234.77734375 634.25  -235.77734375 633.25  -235.77734375 632.25 L -235.77734375 632.25 L -235.77734375 614.25 C -235.77734375 613.25  -234.77734375 612.25  -233.77734375 612.25 L -233.77734375 612.25 L -62.54296875 612.25 C -61.54296875 612.25  -60.54296875 613.25  -60.54296875 614.25 L -60.54296875 614.25 z" fill="rgba(0,0,0,0.1)"></path></g></g><g></g><text fill="#293845" hover-props="{}"><tspan x="-230.77734375" y="628.25" font-family="PFDINMonoPro, Courier, monospace" font-size="15.299999999999999" font-style="normal" font-weight="normal">checkAccountStatus</tspan></text></g></g><g><g></g><text fill="#293845" hover-props="{}"><tspan x="-59.54296875" y="628.25" font-family="DIN Next, sans-serif" font-size="18" font-style="normal" font-weight="normal"> </tspan></text></g></g><g><g><g></g><text fill="#293845" hover-props="{}"><tspan x="-196.11669921875" y="653.75" font-family="DIN Next, sans-serif" font-size="18" font-style="normal" font-weight="normal">on Controller</tspan></text></g></g></g></g></g></g></g><g><g><rect x="-242" y="864" width="192" height="123" rx="3" ry="3" fill="#e7e4df"></rect><rect y="864" rx="3" stroke="#897A5F" fill="none" stroke-linejoin="round" width="192" stroke-linecap="round" stroke-width="2" x="-242" ry="3" height="123"></rect><g class="content"><g><g><g><g id="0c491e1b-1f8c-4575-a075-b5913d3f9f80"><g><g><g><path d="M -72.22265625 903.25 L -70.22265625 905.25 L -70.22265625 923.25 C -70.22265625 924.25  -71.22265625 925.25  -72.22265625 925.25 L -72.22265625 925.25 L -225.09765625 925.25 C -226.09765625 925.25  -227.09765625 924.25  -227.09765625 923.25 L -227.09765625 923.25 L -227.09765625 905.25 C -227.09765625 904.25  -226.09765625 903.25  -225.09765625 903.25 L -225.09765625 903.25 L -72.22265625 903.25 C -71.22265625 903.25  -70.22265625 904.25  -70.22265625 905.25 L -70.22265625 905.25 z" fill="rgba(0,0,0,0.1)"></path></g></g><g></g><text fill="#293845" hover-props="{}"><tspan x="-222.09765625" y="919.25" font-family="PFDINMonoPro, Courier, monospace" font-size="15.299999999999999" font-style="normal" font-weight="normal">checkVaultStatus</tspan></text></g></g><g><g></g><text fill="#293845" hover-props="{}"><tspan x="-69.22265625" y="919.25" font-family="DIN Next, sans-serif" font-size="18" font-style="normal" font-weight="normal"> </tspan></text></g></g><g><g><g></g><text fill="#293845" hover-props="{}"><tspan x="-177.16796875" y="944.75" font-family="DIN Next, sans-serif" font-size="18" font-style="normal" font-weight="normal">on Vault</tspan></text></g></g></g></g></g></g></g><g><g><rect x="-112" y="-200" width="192" height="96" rx="3" ry="3" fill="#e7e4df"></rect><rect y="-200" rx="3" stroke="#897A5F" fill="none" stroke-linejoin="round" width="192" stroke-linecap="round" stroke-width="2" x="-112" ry="3" height="96"></rect><g class="content"><g><g><g><g id="ebf5294b-eab8-447e-80c8-a1f358ddcb53"><g><g></g><text fill="#293845" hover-props="{}"><tspan x="-93.36767578125" y="-142.5" font-family="DIN Next, sans-serif" font-size="27" font-style="normal" font-weight="bold">Vault context</tspan></text></g></g></g></g></g></g></g></g><g><g><rect x="-314" y="-200" width="192" height="96" rx="3" ry="3" fill="#e3cff3"></rect><rect y="-200" rx="3" stroke="#730FC3" fill="none" stroke-linejoin="round" width="192" stroke-linecap="round" stroke-width="2" x="-314" ry="3" height="96"></rect><g class="content"><g><g><g><g id="850634d7-3eeb-4d00-b866-dbaeba16274b"><g><g></g><text fill="#293845" hover-props="{}"><tspan x="-288.212890625" y="-142.5" font-family="DIN Next, sans-serif" font-size="27" font-style="normal" font-weight="bold">EVC context</tspan></text></g></g></g></g></g></g></g></g><g><g><rect x="-314" y="-311" width="192" height="96" rx="3" ry="3" fill="#d5e7f7"></rect><rect y="-311" rx="3" stroke="#2C88D9" fill="none" stroke-linejoin="round" width="192" stroke-linecap="round" stroke-width="2" x="-314" ry="3" height="96"></rect><g class="content"><g><g><g><g id="03aeedcb-8763-4848-8826-99fa7aaad2ae"><g><g></g><text fill="#293845" hover-props="{}"><tspan x="-250.38623046875" y="-253.5" font-family="DIN Next, sans-serif" font-size="27" font-style="normal" font-weight="bold">Actor</tspan></text></g></g></g></g></g></g></g></g><g><g><rect x="-112" y="-311" width="192" height="96" rx="3" ry="3" fill="#fae6d8"></rect><rect y="-311" rx="3" stroke="#E8833A" fill="none" stroke-linejoin="round" width="192" stroke-linecap="round" stroke-width="2" x="-112" ry="3" height="96"></rect><g class="content"><g><g><g><g id="4366484a-687a-43c0-ba6a-c173ee4c6d53"><g><g></g><text fill="#293845" hover-props="{}"><tspan x="-53.69140625" y="-253.5" font-family="DIN Next, sans-serif" font-size="27" font-style="normal" font-weight="bold">Action</tspan></text></g></g></g></g></g></g></g></g><g><g><line stroke="#788896" fill="none" stroke-linejoin="round" y1="247.99999999999997" stroke-linecap="round" stroke-width="4" x1="-146" y2="275.9999999999999" x2="-146"></line><polygon points="-140.45905,272.9079 -146,280 -151.54095,272.9079" fill="#788896" stroke="#788896" stroke-width="2" stroke-linecap="round" stroke-linejoin="round"></polygon></g></g><g><g><line stroke="#788896" fill="none" stroke-linejoin="round" y1="391.99999999999994" stroke-linecap="round" stroke-width="4" x1="-146" y2="417.99999999999994" x2="-146"></line><polygon points="-140.45905,414.9079 -146,422 -151.54095,414.9079" fill="#788896" stroke="#788896" stroke-width="2" stroke-linecap="round" stroke-linejoin="round"></polygon></g></g><g><g><path d="M-146,537v8.5c0,0.13807 0.11193,0.25 0.25,0.25v0c0.13807,0 0.25,0.11193 0.25,0.25v3" fill="none" stroke="#788896" stroke-linecap="round" stroke-linejoin="round" stroke-width="4"></path><polygon points="-139.95905,545.9079 -145.5,553 -151.04095,545.9079" fill="#788896" stroke="#788896" stroke-width="2" stroke-linecap="round" stroke-linejoin="round"></polygon></g></g><g><g><path d="M-145.5,692v9.75c0,0.13807 -0.11193,0.25 -0.25,0.25v0c-0.13807,0 -0.25,0.11193 -0.25,0.25v3.75" fill="none" stroke="#788896" stroke-linecap="round" stroke-linejoin="round" stroke-width="4"></path><polygon points="-140.45905,702.9079 -146,710 -151.54095,702.9079" fill="#788896" stroke="#788896" stroke-width="2" stroke-linecap="round" stroke-linejoin="round"></polygon></g></g><g><g><line stroke="#788896" fill="none" stroke-linejoin="round" y1="825" stroke-linecap="round" stroke-width="4" x1="-146" y2="852.0000000000002" x2="-146"></line><polygon points="-140.45905,848.9079 -146,856 -151.54095,848.9079" fill="#788896" stroke="#788896" stroke-width="2" stroke-linecap="round" stroke-linejoin="round"></polygon></g></g><g><g><rect x="40" y="287" width="270" height="99" rx="3" ry="3" fill="#e3cff3"></rect><rect y="287" rx="3" stroke="#730FC3" fill="none" stroke-linejoin="round" width="270" stroke-linecap="round" stroke-width="2" x="40" ry="3" height="99"></rect><g class="content"><g><g><g><g><g></g><text fill="#293845" hover-props="{}"><tspan x="97.19482421875" y="330.25" font-family="DIN Next, sans-serif" font-size="18" font-style="normal" font-weight="normal">optional </tspan></text></g><g id="f0b65475-f5f6-48e5-b31f-31839d8930cf"><g><g><g><path d="M 245.48486328125 314.25 L 247.48486328125 316.25 L 247.48486328125 334.25 C 247.48486328125 335.25  246.48486328125 336.25  245.48486328125 336.25 L 245.48486328125 336.25 L 166.04736328125 336.25 C 165.04736328125 336.25  164.04736328125 335.25  164.04736328125 334.25 L 164.04736328125 334.25 L 164.04736328125 316.25 C 164.04736328125 315.25  165.04736328125 314.25  166.04736328125 314.25 L 166.04736328125 314.25 L 245.48486328125 314.25 C 246.48486328125 314.25  247.48486328125 315.25  247.48486328125 316.25 L 247.48486328125 316.25 z" fill="rgba(0,0,0,0.1)"></path></g></g><g></g><text fill="#293845" hover-props="{}"><tspan x="169.04736328125" y="330.25" font-family="PFDINMonoPro, Courier, monospace" font-size="15.299999999999999" font-style="normal" font-weight="normal">callback</tspan></text></g></g><g><g></g><text fill="#293845" hover-props="{}"><tspan x="248.48486328125" y="330.25" font-family="DIN Next, sans-serif" font-size="18" font-style="normal" font-weight="normal"> </tspan></text></g></g></g></g><g><g><g><g><g></g><text fill="#293845" hover-props="{}"><tspan x="148.1435546875" y="355.75" font-family="DIN Next, sans-serif" font-size="18" font-style="normal" font-weight="normal">on EVC</tspan></text></g></g></g></g></g></g></g><g><g><path d="M-42,336h36.75c0.13807,0 0.25,0.11193 0.25,0.25v0c0,0.13807 0.11193,0.25 0.25,0.25h32.75" fill="none" stroke="#788896" stroke-linecap="round" stroke-linejoin="round" stroke-width="4"></path><polygon points="24.9079,330.95905 32,336.5 24.9079,342.04095" fill="#788896" stroke="#788896" stroke-width="2" stroke-linecap="round" stroke-linejoin="round"></polygon></g></g><g><g><path d="M318,336.5h25c8.28426,0 15,-6.71574 15,-15v-40.5c0,-8.28426 -6.71574,-15 -15,-15h-482c-3.86599,0 -7,3.13401 -7,7v3" fill="none" stroke="#788896" stroke-linecap="round" stroke-linejoin="round" stroke-width="4"></path><polygon points="-140.45905,272.9079 -146,280 -151.54095,272.9079" fill="#788896" stroke="#788896" stroke-width="2" stroke-linecap="round" stroke-linejoin="round"></polygon></g></g><g><g class="content"><g><g><g><g><g></g><text fill="#293845" hover-props="{}"><tspan x="-493" y="306.5" font-family="DIN Next, sans-serif" font-size="18" font-style="normal" font-weight="normal">*may require EVC call to check</tspan></text></g></g></g></g><g><g><g><g><g></g><text fill="#293845" hover-props="{}"><tspan x="-493" y="330.5" font-family="DIN Next, sans-serif" font-size="18" font-style="normal" font-weight="normal">if Controller enabled</tspan></text></g></g></g></g></g></g><g><g class="content"><g><g><g><g><g></g><text fill="#293845" hover-props="{}"><tspan x="405" y="592.5" font-family="DIN Next, sans-serif" font-size="18" font-style="normal" font-weight="normal">*requires EVC call to fetch authenticated </tspan></text></g></g></g></g><g><g><g><g><g></g><text fill="#293845" hover-props="{}"><tspan x="405" y="616.5" font-family="DIN Next, sans-serif" font-size="18" font-style="normal" font-weight="normal">account address</tspan></text></g></g></g></g><g><g><g><g><g></g><text fill="#293845" hover-props="{}"><tspan x="405" y="640.5" font-family="DIN Next, sans-serif" font-size="18" font-style="normal" font-weight="normal">*may require EVC call to check if </tspan></text></g></g></g></g><g><g><g><g><g></g><text fill="#293845" hover-props="{}"><tspan x="405" y="664.5" font-family="DIN Next, sans-serif" font-size="18" font-style="normal" font-weight="normal">Controller enabled</tspan></text></g></g></g></g></g></g><g><g><line stroke="#788896" fill="none" stroke-linejoin="round" y1="825" stroke-linecap="round" stroke-width="4" x1="1143" y2="845" x2="1143"></line><polygon points="1148.54095,841.9079 1143,849 1137.45905,841.9079" fill="#788896" stroke="#788896" stroke-width="2" stroke-linecap="round" stroke-linejoin="round"></polygon></g></g><g><g><line stroke="#788896" fill="none" stroke-linejoin="round" y1="966.9999999999999" stroke-linecap="round" stroke-width="4" x1="1143" y2="982" x2="1143"></line><polygon points="1148.54095,978.9079 1143,986 1137.45905,978.9079" fill="#788896" stroke="#788896" stroke-width="2" stroke-linecap="round" stroke-linejoin="round"></polygon></g></g><g><g><path d="M1143,967v2.5c0,1.38071 1.11929,2.5 2.5,2.5h231.5c8.28426,0 15,-6.71574 15,-15v-107M1392,822v-471c0,-8.28426 -6.71574,-15 -15,-15h-126" fill="none" stroke="#788896" stroke-linecap="round" stroke-linejoin="round" stroke-width="4"></path><polygon points="1254.0921,341.54095 1247,336 1254.0921,330.45905" fill="#788896" stroke="#788896" stroke-width="2" stroke-linecap="round" stroke-linejoin="round"></polygon><text y="824" font-style="normal" font-size="18" font-weight="normal" fill="#293845" width="150" xml:space="preserve" x="1317" font-family="DIN Next, sans-serif" height="24"><tspan x="1392" y="842" text-anchor="middle" style="white-space:pre;">for each batch item</tspan></text></g></g></svg>