<svg version="1.1" xmlns="http://www.w3.org/2000/svg" viewBox="0 0 1894.138946238863 1334.0952559863927" width="3788.277892477726" height="2668.1905119727853">
  <!-- svg-source:excalidraw -->
  
  <defs>
    <style class="style-fonts">
      @font-face {
        font-family: "Virgil";
        src: url("https://excalidraw.com/Virgil.woff2");
      }
      @font-face {
        font-family: "Cascadia";
        src: url("https://excalidraw.com/Cascadia.woff2");
      }
      @font-face {
        font-family: "Assistant";
        src: url("https://excalidraw.com/Assistant-Regular.woff2");
      }
    </style>
    
  </defs>
  <rect x="0" y="0" width="1894.138946238863" height="1334.0952559863927" fill="#ffffff"></rect><g stroke-linecap="round" transform="translate(1542.6564617392464 732.6760120193638) rotate(0 169.2890625 114.81625053907965)"><path d="M32 0 C106.83 -2.63, 177.47 -2.3, 306.58 0 M32 0 C95.05 -1.27, 156.28 -0.57, 306.58 0 M306.58 0 C327.63 1.26, 338.46 10.32, 338.58 32 M306.58 0 C329.44 0.98, 337.83 9.58, 338.58 32 M338.58 32 C340.75 96.16, 338.44 161.19, 338.58 197.63 M338.58 32 C338.36 88.47, 338.46 144.68, 338.58 197.63 M338.58 197.63 C339.72 218.11, 329.34 230.39, 306.58 229.63 M338.58 197.63 C336.4 218.17, 329.19 227.95, 306.58 229.63 M306.58 229.63 C231.81 232.43, 156.55 229.67, 32 229.63 M306.58 229.63 C202.19 228.72, 98.38 228.92, 32 229.63 M32 229.63 C11.4 228.6, -0.93 218.83, 0 197.63 M32 229.63 C9.08 227.55, 0.98 219.34, 0 197.63 M0 197.63 C2.14 139.59, 0.65 82.49, 0 32 M0 197.63 C-0.53 136.69, 0.57 75.39, 0 32 M0 32 C-1.24 10.53, 10.82 -0.27, 32 0 M0 32 C-1.25 10.94, 11.76 -0.54, 32 0" stroke="#1e1e1e" stroke-width="2" fill="none"></path></g><g stroke-linecap="round"><g transform="translate(1543.1916179892464 830.1444505975234) rotate(0 169.88671875 0.822265625)"><path d="M1.12 -0.76 C57.59 -0.73, 282.47 0.69, 338.76 1.13 M0.24 1.45 C57.09 1.57, 284.1 2.09, 340.95 2.4" stroke="#1e1e1e" stroke-width="2" fill="none"></path></g></g><mask></mask><g transform="translate(1687.8166179892464 855.9647630975234) rotate(0 28.869964599609375 12.5)"><text x="0" y="0" font-family="Virgil, Segoe UI Emoji" font-size="20px" fill="#1e1e1e" text-anchor="start" style="white-space: pre;" direction="ltr" dominant-baseline="text-before-edge">permit</text></g><g stroke-linecap="round"><g transform="translate(1543.7892742392464 899.0272630975234) rotate(0 168.224609375 0.095703125)"><path d="M-1.01 -0.51 C54.74 -0.31, 279.23 0.19, 335.58 0.45 M0.66 -1.82 C56.68 -1.94, 281.84 -1.7, 337.84 -1.54" stroke="#1e1e1e" stroke-width="2" fill="none"></path></g></g><mask></mask><g transform="translate(1575.238396772089 743.1276245168782) rotate(0 141.71987915039062 37.5)"><text x="141.71987915039062" y="0" font-family="Virgil, Segoe UI Emoji" font-size="20px" fill="#2f9e44" text-anchor="middle" style="white-space: pre;" direction="ltr" dominant-baseline="text-before-edge">target == this</text><text x="141.71987915039062" y="25" font-family="Virgil, Segoe UI Emoji" font-size="20px" fill="#2f9e44" text-anchor="middle" style="white-space: pre;" direction="ltr" dominant-baseline="text-before-edge">onBehalfOfAccount == signer</text><text x="141.71987915039062" y="50" font-family="Virgil, Segoe UI Emoji" font-size="20px" fill="#2f9e44" text-anchor="middle" style="white-space: pre;" direction="ltr" dominant-baseline="text-before-edge">msg.sender != this</text></g><g stroke-linecap="round" transform="translate(1427.9497586308134 10) rotate(0 169.28906249999994 94.64062500000001)"><path d="M32 0 C117.35 0, 200.76 0.48, 306.58 0 M32 0 C104.14 1.37, 177.42 1.45, 306.58 0 M306.58 0 C326.08 -1.54, 338.48 9.98, 338.58 32 M306.58 0 C327.53 -1.41, 340.68 11.33, 338.58 32 M338.58 32 C339.26 70.14, 338.21 106.49, 338.58 157.28 M338.58 32 C337.8 58.25, 337.31 85.55, 338.58 157.28 M338.58 157.28 C337 179.52, 328.58 188.22, 306.58 189.28 M338.58 157.28 C340.19 180.04, 327.81 190.21, 306.58 189.28 M306.58 189.28 C232.28 188.28, 157.63 186.93, 32 189.28 M306.58 189.28 C247.25 188.43, 186.19 189.09, 32 189.28 M32 189.28 C12.13 187.91, -1.07 177.37, 0 157.28 M32 189.28 C10.45 189.73, -0.91 177.39, 0 157.28 M0 157.28 C0.86 127.92, 1.72 98.94, 0 32 M0 157.28 C1.6 126.4, 0.56 96.54, 0 32 M0 32 C-0.51 11.38, 10.88 1.2, 32 0 M0 32 C-0.7 11.14, 11.56 1.46, 32 0" stroke="#1e1e1e" stroke-width="2" fill="none"></path></g><g stroke-linecap="round"><g transform="translate(1428.4849148808134 67.1171875) rotate(0 169.88671875000006 0.822265625)"><path d="M0.32 -1.08 C56.69 -0.79, 282.41 0.6, 338.91 0.93 M-0.97 0.97 C55.72 1.46, 284.62 1.95, 341.18 2.1" stroke="#1e1e1e" stroke-width="2" fill="none"></path></g></g><mask></mask><g transform="translate(1537.0070690732298 94.13380731670105) rotate(0 56.649940490722656 12.5)"><text x="0" y="0" font-family="Virgil, Segoe UI Emoji" font-size="20px" fill="#1e1e1e" text-anchor="start" style="white-space: pre;" direction="ltr" dominant-baseline="text-before-edge">impersonate</text></g><g stroke-linecap="round"><g transform="translate(1429.0825711308134 136) rotate(0 168.22460937500006 0.095703125)"><path d="M-0.86 -0.71 C55.09 -0.62, 279.89 -0.53, 336.03 -0.55 M0.89 1.53 C56.62 1.85, 279.18 0.86, 334.86 0.6" stroke="#1e1e1e" stroke-width="2" fill="none"></path></g></g><mask></mask><g transform="translate(1536.2144060583687 27.580856193558873) rotate(0 61.784271240234375 11.022659155510993)"><text x="61.784271240234375" y="0" font-family="Virgil, Segoe UI Emoji" font-size="17.636254648817587px" fill="#2f9e44" text-anchor="middle" style="white-space: pre;" direction="ltr" dominant-baseline="text-before-edge">target != this</text></g><g transform="translate(1464.098906032965 146.5157224550813) rotate(0 135.59985351562494 25)"><text x="135.599853515625" y="0" font-family="Virgil, Segoe UI Emoji" font-size="20px" fill="#1971c2" text-anchor="middle" style="white-space: pre;" direction="ltr" dominant-baseline="text-before-edge">increaseCallDepth</text><text x="135.599853515625" y="25" font-family="Virgil, Segoe UI Emoji" font-size="20px" fill="#1971c2" text-anchor="middle" style="white-space: pre;" direction="ltr" dominant-baseline="text-before-edge">setImpersonationInProgress</text></g><g stroke-linecap="round" transform="translate(10.284920824104915 21.083420624428072) rotate(0 169.28906249999997 94.64062500000001)"><path d="M32 0 C87.65 -0.02, 143.87 0.01, 306.58 0 M32 0 C136.7 -0.8, 241.6 -1.23, 306.58 0 M306.58 0 C329.56 0.55, 338.43 9.81, 338.58 32 M306.58 0 C328.69 1.63, 340.53 12.17, 338.58 32 M338.58 32 C337.1 77.03, 338.61 126.39, 338.58 157.28 M338.58 32 C339.09 65.96, 338.32 98.19, 338.58 157.28 M338.58 157.28 C340.49 178.59, 326.31 190.98, 306.58 189.28 M338.58 157.28 C337.93 180.45, 326.89 189.15, 306.58 189.28 M306.58 189.28 C224.06 189.64, 144.49 189.23, 32 189.28 M306.58 189.28 C209.78 190.25, 113.52 189.47, 32 189.28 M32 189.28 C11.51 188.37, -1.73 177.12, 0 157.28 M32 189.28 C12.43 189.48, -1.91 178.02, 0 157.28 M0 157.28 C-0.66 119.41, 1.61 80.67, 0 32 M0 157.28 C-1.07 116.79, -1.38 76.05, 0 32 M0 32 C1.11 8.87, 11.44 -0.44, 32 0 M0 32 C-0.86 8.91, 9.55 -1.87, 32 0" stroke="#1e1e1e" stroke-width="2" fill="none"></path></g><g stroke-linecap="round"><g transform="translate(10.820077074104915 78.20060812442807) rotate(0 169.88671875 0.822265625)"><path d="M0.42 1.09 C57.26 1.6, 284.41 2.35, 340.87 2.24 M-0.82 0.62 C55.97 0.84, 284 0.35, 340.5 0.44" stroke="#1e1e1e" stroke-width="2" fill="none"></path></g></g><mask></mask><g transform="translate(155.44507707410492 104.02092062442807) rotate(0 16.949989318847656 12.5)"><text x="0" y="0" font-family="Virgil, Segoe UI Emoji" font-size="20px" fill="#1e1e1e" text-anchor="start" style="white-space: pre;" direction="ltr" dominant-baseline="text-before-edge">call</text></g><g stroke-linecap="round"><g transform="translate(11.417733324104915 147.08342062442807) rotate(0 168.224609375 0.095703125)"><path d="M-1 -1.1 C54.99 -0.92, 280.3 0.39, 336.39 0.69 M0.67 0.94 C56.46 0.79, 279.19 -0.78, 335.41 -1.17" stroke="#1e1e1e" stroke-width="2" fill="none"></path></g></g><mask></mask><g transform="translate(112.46533266242875 38.186814094367236) rotate(0 70.0899429321289 12.5)"><text x="70.0899429321289" y="0" font-family="Virgil, Segoe UI Emoji" font-size="20px" fill="#2f9e44" text-anchor="middle" style="white-space: pre;" direction="ltr" dominant-baseline="text-before-edge">target != this</text></g><g transform="translate(95.90992082410492 167.21232687442807) rotate(0 86.37992095947266 12.5)"><text x="0" y="0" font-family="Virgil, Segoe UI Emoji" font-size="20px" fill="#1971c2" text-anchor="start" style="white-space: pre;" direction="ltr" dominant-baseline="text-before-edge">increaseCallDepth</text></g><g stroke-linecap="round" transform="translate(809.9819915952933 883.2909627987543) rotate(0 222.27375632746273 124.26158494396998)"><path d="M32 0 C183.23 -0.24, 333.02 -0.87, 412.55 0 M412.55 0 C433.41 1.54, 445.6 9.43, 444.55 32 M444.55 32 C444.6 102.47, 445.66 170.66, 444.55 216.52 M444.55 216.52 C446.16 236.54, 432.78 247.37, 412.55 248.52 M412.55 248.52 C323.54 249.66, 234.42 250.95, 32 248.52 M32 248.52 C9.72 249.98, 1.35 236.04, 0 216.52 M0 216.52 C-1.37 154.72, -1.4 95.89, 0 32 M0 32 C0.02 8.86, 10.5 0.44, 32 0" stroke="#1e1e1e" stroke-width="2.5" fill="none" stroke-dasharray="8 10"></path></g><g stroke-linecap="round"><g transform="translate(810.6846429547668 958.2848911069402) rotate(0 223.05846915957557 1.0796212494100246)"><path d="M0.42 -0.33 C74.51 -0.12, 371.26 0.63, 445.5 1.2" stroke="#1e1e1e" stroke-width="2.5" fill="none" stroke-dasharray="8 10"></path></g></g><mask></mask><g transform="translate(895.9455305547315 991.4172034609733) rotate(0 151.90866088867185 16.412294527848132)"><text x="0" y="0" font-family="Virgil, Segoe UI Emoji" font-size="26.259671244556962px" fill="#1e1e1e" text-anchor="start" style="white-space: pre;" direction="ltr" dominant-baseline="text-before-edge">callWithContextInternal</text></g><g stroke-linecap="round"><g transform="translate(811.4693557868795 1048.7268916394632) rotate(0 220.8761468715757 0.12565662997883464)"><path d="M-0.62 -0.96 C72.89 -0.71, 367.63 1.1, 441.47 1.18" stroke="#1e1e1e" stroke-width="2.5" fill="none" stroke-dasharray="8 10"></path></g></g><mask></mask><g transform="translate(841.0884829044153 1067.6818169874182) rotate(0 196.21649169921875 23.31516660967486)"><text x="196.21649169921875" y="0" font-family="Virgil, Segoe UI Emoji" font-size="18.65213328773992px" fill="#1971c2" text-anchor="middle" style="white-space: pre;" direction="ltr" dominant-baseline="text-before-edge">setOnBehalfOfAccount(onBehalfOfAccount)</text><text x="196.21649169921875" y="23.315166609674904" font-family="Virgil, Segoe UI Emoji" font-size="18.65213328773992px" fill="#1971c2" text-anchor="middle" style="white-space: pre;" direction="ltr" dominant-baseline="text-before-edge">set/clearOperatorAuthenticated</text></g><g stroke-linecap="round" transform="translate(491.5799836854359 533.6215729757856) rotate(0 203.10562126731196 113.54568720440341)"><path d="M32 0 C124.58 -0.69, 219.21 -0.01, 374.21 0 M374.21 0 C396.84 -1.73, 405.18 12.28, 406.21 32 M406.21 32 C404.34 87, 405.9 144.55, 406.21 195.09 M406.21 195.09 C405.77 214.83, 394.68 225.81, 374.21 227.09 M374.21 227.09 C302.53 226.36, 231.52 226.71, 32 227.09 M32 227.09 C9.02 226.09, -0.68 216.81, 0 195.09 M0 195.09 C-0.97 135.61, -0.61 77.05, 0 32 M0 32 C-1.33 12.45, 9.59 -0.04, 32 0" stroke="#1e1e1e" stroke-width="2.5" fill="none" stroke-dasharray="8 10"></path></g><g stroke-linecap="round"><g transform="translate(491.3999090798485 616.8467220853607) rotate(0 203.82266312558647 0.9865183736390577)"><path d="M-0.6 0.4 C67.52 0.8, 340.12 2.9, 408.29 2.99" stroke="#1e1e1e" stroke-width="2.5" fill="none" stroke-dasharray="8 10"></path></g></g><mask></mask><g transform="translate(623.8294271853192 641.2574095051918) rotate(0 67.72371673583984 14.996953898550885)"><text x="0" y="0" font-family="Virgil, Segoe UI Emoji" font-size="23.995126237681422px" fill="#1e1e1e" text-anchor="start" style="white-space: pre;" direction="ltr" dominant-baseline="text-before-edge">callInternal</text></g><g stroke-linecap="round"><g transform="translate(492.93908263249216 684.7908682731786) rotate(0 201.82853691188853 0.11482042828578187)"><path d="M0.65 1.02 C68.15 0.82, 337.37 -0.84, 404.44 -0.81" stroke="#1e1e1e" stroke-width="2.5" fill="none" stroke-dasharray="8 10"></path></g></g><mask></mask><g transform="translate(498.79629189254536 551.4159578795424) rotate(0 194.4130096435547 24.209155029346675)"><text x="194.4130096435547" y="0" font-family="Virgil, Segoe UI Emoji" font-size="19.367324023477334px" fill="#2f9e44" text-anchor="middle" style="white-space: pre;" direction="ltr" dominant-baseline="text-before-edge">target != ERC1820Registry</text><text x="194.4130096435547" y="24.209155029346668" font-family="Virgil, Segoe UI Emoji" font-size="19.367324023477334px" fill="#2f9e44" text-anchor="middle" style="white-space: pre;" direction="ltr" dominant-baseline="text-before-edge">onlyOwnerOrOperator(onBehalfOfAccount)</text></g><g stroke-linecap="round" transform="translate(1416.8188879389782 439.27100532182266) rotate(0 169.2890625 94.64062500000003)"><path d="M32 0 C120.25 -1.93, 206.05 -2.74, 306.58 0 M306.58 0 C326.97 -0.01, 338.01 9.11, 338.58 32 M338.58 32 C338.07 59.62, 337.28 81.97, 338.58 157.28 M338.58 157.28 C337.57 179.44, 325.98 188.92, 306.58 189.28 M306.58 189.28 C202.35 186.17, 99.49 186.35, 32 189.28 M32 189.28 C12.27 190.16, -1.21 178.08, 0 157.28 M0 157.28 C-0.58 107.25, -0.85 59.52, 0 32 M0 32 C-0.47 9.84, 11.44 0.53, 32 0" stroke="#1e1e1e" stroke-width="2.5" fill="none" stroke-dasharray="8 10"></path></g><g stroke-linecap="round"><g transform="translate(1417.3540441889782 496.3881928218226) rotate(0 169.88671875 0.822265625)"><path d="M0.88 -0.14 C57.56 -0.16, 283.24 0.58, 339.62 0.87" stroke="#1e1e1e" stroke-width="2.5" fill="none" stroke-dasharray="8 10"></path></g></g><mask></mask><g transform="translate(1499.7025183809765 521.582350489627) rotate(0 96.159912109375 12.5)"><text x="0" y="0" font-family="Virgil, Segoe UI Emoji" font-size="20px" fill="#1e1e1e" text-anchor="start" style="white-space: pre;" direction="ltr" dominant-baseline="text-before-edge">impersonateInternal</text></g><g stroke-linecap="round"><g transform="translate(1417.9517004389782 565.2710053218226) rotate(0 168.224609375 0.095703125)"><path d="M-0.15 -0.77 C55.69 -0.72, 279.84 0.18, 335.89 0.18" stroke="#1e1e1e" stroke-width="2.5" fill="none" stroke-dasharray="8 10"></path></g></g><mask></mask><g transform="translate(1434.4578575751455 448.75529389376885) rotate(0 149.81352233886713 22.76554086706912)"><text x="149.8135223388672" y="0" font-family="Virgil, Segoe UI Emoji" font-size="18.212432693655312px" fill="#2f9e44" text-anchor="middle" style="white-space: pre;" direction="ltr" dominant-baseline="text-before-edge">onlyController(onBehalfOfAccount)</text><text x="149.8135223388672" y="22.76554086706914" font-family="Virgil, Segoe UI Emoji" font-size="18.212432693655312px" fill="#2f9e44" text-anchor="middle" style="white-space: pre;" direction="ltr" dominant-baseline="text-before-edge">target in accountCollaterals</text></g><g stroke-linecap="round" transform="translate(880.4715815350454 15.214437019175818) rotate(0 169.2890625 94.64062500000001)"><path d="M32 0 C92.24 0.06, 151.05 -2.06, 306.58 0 M32 0 C122.39 -1.05, 212.98 -0.69, 306.58 0 M306.58 0 C328.52 1.72, 339.73 12.32, 338.58 32 M306.58 0 C328.29 0.52, 339.6 11.53, 338.58 32 M338.58 32 C339.37 75.51, 338.59 117.93, 338.58 157.28 M338.58 32 C337.04 59.01, 337.23 85.93, 338.58 157.28 M338.58 157.28 C338.91 177.78, 327.31 189.51, 306.58 189.28 M338.58 157.28 C338.3 176.93, 329.55 187.29, 306.58 189.28 M306.58 189.28 C237.97 188.9, 166.75 189.23, 32 189.28 M306.58 189.28 C230.43 189.76, 154 189, 32 189.28 M32 189.28 C11.77 190.11, -1.39 177.82, 0 157.28 M32 189.28 C10.26 187.62, -1.57 180.3, 0 157.28 M0 157.28 C-0.45 118.44, -0.13 80.54, 0 32 M0 157.28 C-1.71 111.46, -1.54 66.43, 0 32 M0 32 C1.02 9.9, 8.9 -1.95, 32 0 M0 32 C1.37 11.3, 10.47 0.7, 32 0" stroke="#1e1e1e" stroke-width="2" fill="none"></path></g><g stroke-linecap="round"><g transform="translate(881.0067377850454 72.33162451917582) rotate(0 169.88671875 0.822265625)"><path d="M0.49 1.06 C57.06 1.11, 283.05 0.91, 339.65 1.06 M-0.71 0.57 C55.67 0.71, 281.93 1.81, 338.64 2.29" stroke="#1e1e1e" stroke-width="2" fill="none"></path></g></g><mask></mask><g transform="translate(1025.6317377850455 98.15193701917582) rotate(0 27.35997772216797 12.5)"><text x="0" y="0" font-family="Virgil, Segoe UI Emoji" font-size="20px" fill="#1e1e1e" text-anchor="start" style="white-space: pre;" direction="ltr" dominant-baseline="text-before-edge">batch</text></g><g stroke-linecap="round"><g transform="translate(881.6043940350454 141.21443701917582) rotate(0 168.224609375 0.095703125)"><path d="M-0.12 -0.58 C55.93 -0.68, 280.66 0.35, 336.79 0.51 M-1.64 1.72 C54.24 1.77, 279.75 -1.46, 336.03 -1.45" stroke="#1e1e1e" stroke-width="2" fill="none"></path></g></g><mask></mask><g transform="translate(966.0965815350454 161.34334326917582) rotate(0 86.37992095947266 12.5)"><text x="0" y="0" font-family="Virgil, Segoe UI Emoji" font-size="20px" fill="#1971c2" text-anchor="start" style="white-space: pre;" direction="ltr" dominant-baseline="text-before-edge">increaseCallDepth</text></g><g stroke-linecap="round"><g transform="translate(1522.0037367439004 851.7610541825899) rotate(0 -125.76392469340783 65.17164088920919)"><path d="M0.41 0.11 C-41.61 22.16, -209.41 109.44, -251.38 131.11" stroke="#1e1e1e" stroke-width="2.5" fill="none" stroke-dasharray="8 10"></path></g><g transform="translate(1522.0037367439004 851.7610541825899) rotate(0 -125.76392469340783 65.17164088920919)"><path d="M-234.46 112.71 C-240.53 119.63, -245.52 126.19, -251.38 131.11" stroke="#1e1e1e" stroke-width="2.5" fill="none"></path></g><g transform="translate(1522.0037367439004 851.7610541825899) rotate(0 -125.76392469340783 65.17164088920919)"><path d="M-226.59 127.89 C-235.34 129.38, -243.16 130.48, -251.38 131.11" stroke="#1e1e1e" stroke-width="2.5" fill="none"></path></g></g><mask></mask><g stroke-linecap="round"><g transform="translate(1580.0177233388954 225.77463655247075) rotate(0 1.17836379341486 98.85735528337277)"><path d="M-0.7 -1.02 C0.02 31.63, 2.75 163.59, 3.4 196.77" stroke="#1e1e1e" stroke-width="2.5" fill="none" stroke-dasharray="8 10"></path></g><g transform="translate(1580.0177233388954 225.77463655247075) rotate(0 1.17836379341486 98.85735528337277)"><path d="M-5.63 173.45 C-5.11 180.53, -2.94 185.51, 3.4 196.77" stroke="#1e1e1e" stroke-width="2.5" fill="none"></path></g><g transform="translate(1580.0177233388954 225.77463655247075) rotate(0 1.17836379341486 98.85735528337277)"><path d="M11.47 173.11 C8.11 180.16, 6.4 185.22, 3.4 196.77" stroke="#1e1e1e" stroke-width="2.5" fill="none"></path></g></g><mask></mask><g stroke-linecap="round" transform="translate(998.8833104177576 593.9820238860665) rotate(0 169.10797953505062 55.53540974777843)"><path d="M27.77 0 C104.76 0.79, 181.64 2.33, 310.45 0 M310.45 0 C329 1.48, 336.99 9.58, 338.22 27.77 M338.22 27.77 C340.23 41.74, 336.53 59.01, 338.22 83.3 M338.22 83.3 C337.22 101.45, 327.52 111.84, 310.45 111.07 M310.45 111.07 C232.35 113.09, 155.04 112.39, 27.77 111.07 M27.77 111.07 C11.03 112.05, -1.75 103.21, 0 83.3 M0 83.3 C-1.05 67.04, -0.89 55.35, 0 27.77 M0 27.77 C1.06 10.7, 9.55 0.78, 27.77 0" stroke="#1e1e1e" stroke-width="2.5" fill="none" stroke-dasharray="8 10"></path></g><g transform="translate(1085.630020301403 636.7972015402188) rotate(0 84.74991607666016 12.5)"><text x="0" y="0" font-family="Virgil, Segoe UI Emoji" font-size="20px" fill="#1e1e1e" text-anchor="start" style="white-space: pre;" direction="ltr" dominant-baseline="text-before-edge">delegatecall(this)</text></g><g stroke-linecap="round" transform="translate(870.8101840734313 1213.0244364908358) rotate(0 169.10797953505062 55.53540974777843)"><path d="M27.77 0 C94.49 0.33, 161.38 -0.67, 310.45 0 M310.45 0 C327.38 -1.99, 338.14 9.55, 338.22 27.77 M338.22 27.77 C338.07 43.67, 337.72 56.04, 338.22 83.3 M338.22 83.3 C338.38 102.27, 327.39 109.93, 310.45 111.07 M310.45 111.07 C212.95 112.55, 114.49 113.13, 27.77 111.07 M27.77 111.07 C10.95 113.04, 1.02 102.38, 0 83.3 M0 83.3 C-1.94 66.65, -2.18 50.71, 0 27.77 M0 27.77 C1.3 7.81, 8.48 1.28, 27.77 0" stroke="#1e1e1e" stroke-width="2.5" fill="none" stroke-dasharray="8 10"></path></g><g transform="translate(984.1390757316154 1262.1421083330724) rotate(0 57.229949951171875 12.5)"><text x="57.229949951171875" y="0" font-family="Virgil, Segoe UI Emoji" font-size="20px" fill="#1e1e1e" text-anchor="middle" style="white-space: pre;" direction="ltr" dominant-baseline="text-before-edge">call(target)</text></g><g mask="url(#mask-2tky1HzKjJ2VdIqB43C1g)" stroke-linecap="round"><g transform="translate(1002.6779142508963 209.97905269559024) rotate(0 -90.64375969881367 153.21274750247187)"><path d="M0.93 -0.03 C-29.26 51.04, -151.4 255.95, -181.67 306.91" stroke="#1e1e1e" stroke-width="2.5" fill="none" stroke-dasharray="8 10"></path></g><g transform="translate(1002.6779142508963 209.97905269559024) rotate(0 -90.64375969881367 153.21274750247187)"><path d="M-177 282.35 C-178.12 287.99, -178.46 295.91, -181.67 306.91" stroke="#1e1e1e" stroke-width="2.5" fill="none"></path></g><g transform="translate(1002.6779142508963 209.97905269559024) rotate(0 -90.64375969881367 153.21274750247187)"><path d="M-162.31 291.09 C-167.2 294.63, -171.27 300.32, -181.67 306.91" stroke="#1e1e1e" stroke-width="2.5" fill="none"></path></g></g><mask id="mask-2tky1HzKjJ2VdIqB43C1g"><rect x="0" y="0" fill="#fff" width="1283.9654336485237" height="616.404547700534"></rect><rect x="809.6142403064772" y="338.1918001980621" fill="#000" width="204.83982849121094" height="50" opacity="1"></rect></mask><g transform="translate(809.6142403064771 338.1918001980621) rotate(0 102.6937728308141 25.22776660695675)"><text x="102.41991424560547" y="0" font-family="Virgil, Segoe UI Emoji" font-size="20px" fill="#2f9e44" text-anchor="middle" style="white-space: pre;" direction="ltr" dominant-baseline="text-before-edge">target != this</text><text x="102.41991424560547" y="25" font-family="Virgil, Segoe UI Emoji" font-size="20px" fill="#2f9e44" text-anchor="middle" style="white-space: pre;" direction="ltr" dominant-baseline="text-before-edge">target != msg.sender</text></g><g stroke-linecap="round"><g transform="translate(1500.9879341399555 637.3675156801422) rotate(0 -151.50745511197232 115.1088433956296)"><path d="M-0.93 0.48 C-51.38 39.15, -252.57 192.63, -302.83 230.9" stroke="#1e1e1e" stroke-width="2.5" fill="none" stroke-dasharray="8 10"></path></g><g transform="translate(1500.9879341399555 637.3675156801422) rotate(0 -151.50745511197232 115.1088433956296)"><path d="M-289.33 209.86 C-292.66 216.18, -296.26 222.9, -302.83 230.9" stroke="#1e1e1e" stroke-width="2.5" fill="none"></path></g><g transform="translate(1500.9879341399555 637.3675156801422) rotate(0 -151.50745511197232 115.1088433956296)"><path d="M-278.97 223.46 C-285.19 225.74, -291.8 228.49, -302.83 230.9" stroke="#1e1e1e" stroke-width="2.5" fill="none"></path></g></g><mask></mask><g mask="url(#mask-QlgHqVMg9KDguPTx3yG9X)" stroke-linecap="round"><g transform="translate(1135.2727874358857 209.8249886973849) rotate(0 -1.646112818299713 182.55557691013928)"><path d="M0.68 -0.38 C0.25 27.11, -1.32 104.91, -1.84 165.86 C-2.36 226.81, -2 332.26, -2.44 365.3" stroke="#1e1e1e" stroke-width="2.5" fill="none" stroke-dasharray="8 10"></path></g><g transform="translate(1135.2727874358857 209.8249886973849) rotate(0 -1.646112818299713 182.55557691013928)"><path d="M-10.87 341.77 C-8.27 352.05, -4.33 360.17, -2.44 365.3" stroke="#1e1e1e" stroke-width="2.5" fill="none"></path></g><g transform="translate(1135.2727874358857 209.8249886973849) rotate(0 -1.646112818299713 182.55557691013928)"><path d="M6.23 341.85 C2.64 352.2, 0.4 360.29, -2.44 365.3" stroke="#1e1e1e" stroke-width="2.5" fill="none"></path></g></g><mask id="mask-QlgHqVMg9KDguPTx3yG9X"><rect x="0" y="0" fill="#fff" width="1238.565013072485" height="674.9361425176635"></rect><rect x="1065.219009301023" y="363.0273896718495" fill="#000" width="134.2598876953125" height="25" opacity="1"></rect></mask><g transform="translate(1065.219009301023 363.0273896718495) rotate(0 69.1757519191018 29.261567087251905)"><text x="67.12994384765625" y="0" font-family="Virgil, Segoe UI Emoji" font-size="20px" fill="#2f9e44" text-anchor="middle" style="white-space: pre;" direction="ltr" dominant-baseline="text-before-edge">target = this</text></g><g stroke-linecap="round"><g transform="translate(787.7608094378396 776.1526133362212) rotate(0 70.11127071069109 46.008956868984626)"><path d="M0.75 -0.85 C24.2 14.39, 117.43 76.94, 140.71 92.41" stroke="#1e1e1e" stroke-width="2.5" fill="none" stroke-dasharray="8 10"></path></g><g transform="translate(787.7608094378396 776.1526133362212) rotate(0 70.11127071069109 46.008956868984626)"><path d="M116.42 86.47 C122.32 88.9, 131.66 90.15, 140.71 92.41" stroke="#1e1e1e" stroke-width="2.5" fill="none"></path></g><g transform="translate(787.7608094378396 776.1526133362212) rotate(0 70.11127071069109 46.008956868984626)"><path d="M125.92 72.25 C129.09 79, 135.58 84.51, 140.71 92.41" stroke="#1e1e1e" stroke-width="2.5" fill="none"></path></g></g><mask></mask><g stroke-linecap="round"><g transform="translate(1032.799213142946 1155.644395999192) rotate(0 0.48218509193554837 24.081788357366236)"><path d="M-0.27 0.05 C-0.07 8.2, 0.86 40.25, 1.12 48.36" stroke="#1e1e1e" stroke-width="2.5" fill="none" stroke-dasharray="8 10"></path></g><g transform="translate(1032.799213142946 1155.644395999192) rotate(0 0.48218509193554837 24.081788357366236)"><path d="M-7.8 25.98 C-5.26 32.71, -2.43 39.44, 1.12 48.36" stroke="#1e1e1e" stroke-width="2.5" fill="none"></path></g><g transform="translate(1032.799213142946 1155.644395999192) rotate(0 0.48218509193554837 24.081788357366236)"><path d="M8.67 25.49 C6.49 32.31, 4.58 39.18, 1.12 48.36" stroke="#1e1e1e" stroke-width="2.5" fill="none"></path></g></g><mask></mask><g stroke-linecap="round" transform="translate(1375.1548063115742 1155.939503987041) rotate(0 203.19829098954744 81.03150988021673)"><path d="M0 0 C117.26 0.48, 236.23 1.87, 406.4 0 M0 0 C122.87 0.34, 246.52 -0.06, 406.4 0 M406.4 0 C407.35 34.77, 407.15 68.72, 406.4 162.06 M406.4 0 C405.3 49.7, 406.63 99.98, 406.4 162.06 M406.4 162.06 C296.83 159.5, 188.08 161, 0 162.06 M406.4 162.06 C266.66 159.96, 125.98 160.23, 0 162.06 M0 162.06 C1.91 121.69, 1.67 79.93, 0 0 M0 162.06 C1 124.34, 0.25 86.85, 0 0" stroke="#1e1e1e" stroke-width="4" fill="none"></path></g><g transform="translate(1444.7059196087503 1190.9547630089378) rotate(0 126.20993041992188 17.5)"><text x="126.20993041992188" y="0" font-family="Virgil, Segoe UI Emoji" font-size="28px" fill="#2f9e44" text-anchor="middle" style="white-space: pre;" direction="ltr" dominant-baseline="text-before-edge">required conditions</text></g><g transform="translate(1391.529876059386 1253.6350102050924) rotate(0 182.1959228515625 17.5)"><text x="182.1959228515625" y="0" font-family="Virgil, Segoe UI Emoji" font-size="28px" fill="#1971c2" text-anchor="middle" style="white-space: pre;" direction="ltr" dominant-baseline="text-before-edge">execution context changes</text></g><g mask="url(#mask-luEmwu4sCBvwQCb86UfHD)" stroke-linecap="round"><g transform="translate(270.61278858491306 222.3443260016875) rotate(0 175.47762228291148 145.5518020756225)"><path d="M0.64 1.05 C27.42 23.14, 102.53 83.6, 161.1 131.84 C219.67 180.09, 320.45 264.04, 352.05 290.52" stroke="#1e1e1e" stroke-width="2.5" fill="none" stroke-dasharray="8 10"></path></g><g transform="translate(270.61278858491306 222.3443260016875) rotate(0 175.47762228291148 145.5518020756225)"><path d="M328.54 282.03 C338.12 283.47, 343.73 289.42, 352.05 290.52" stroke="#1e1e1e" stroke-width="2.5" fill="none"></path></g><g transform="translate(270.61278858491306 222.3443260016875) rotate(0 175.47762228291148 145.5518020756225)"><path d="M339.5 268.9 C345.34 274.8, 347.27 285.15, 352.05 290.52" stroke="#1e1e1e" stroke-width="2.5" fill="none"></path></g></g><mask id="mask-luEmwu4sCBvwQCb86UfHD"><rect x="0" y="0" fill="#fff" width="721.568033150736" height="613.4479301529325"></rect><rect x="330.0581835418067" y="341.99863867287513" fill="#000" width="204.83982849121094" height="25" opacity="1"></rect></mask><g transform="translate(330.0581835418067 341.9986386728751) rotate(0 116.89866548052152 26.133645452688114)"><text x="102.41991424560547" y="0" font-family="Virgil, Segoe UI Emoji" font-size="20px" fill="#2f9e44" text-anchor="middle" style="white-space: pre;" direction="ltr" dominant-baseline="text-before-edge">target != msg.sender</text></g><g mask="url(#mask-76jP-wH7vfRFKl23GEbOw)" stroke-linecap="round"><g transform="translate(136.55808327759792 225.85574963971806) rotate(0 326.9984301526703 372.77257062971455)"><path d="M-0.19 0.57 C13.38 62.37, -28.21 247.76, 80.91 371.99 C190.04 496.23, 559.21 683.7, 654.56 745.96" stroke="#1e1e1e" stroke-width="2.5" fill="none" stroke-dasharray="8 10"></path></g><g transform="translate(136.55808327759792 225.85574963971806) rotate(0 326.9984301526703 372.77257062971455)"><path d="M629.96 741.51 C637.26 743.98, 642.28 744.76, 654.56 745.96" stroke="#1e1e1e" stroke-width="2.5" fill="none"></path></g><g transform="translate(136.55808327759792 225.85574963971806) rotate(0 326.9984301526703 372.77257062971455)"><path d="M638.57 726.74 C643.81 732.99, 646.62 737.56, 654.56 745.96" stroke="#1e1e1e" stroke-width="2.5" fill="none"></path></g></g><mask id="mask-76jP-wH7vfRFKl23GEbOw"><rect x="0" y="0" fill="#fff" width="890.5549435829386" height="1071.4008908991473"></rect><rect x="111.06586741119543" y="585.5573054809499" fill="#000" width="211.25982666015625" height="25" opacity="1"></rect></mask><g transform="translate(111.06586741119543 585.5573054809499) rotate(0 352.6759350842401 13.5594794796001)"><text x="105.62991333007812" y="0" font-family="Virgil, Segoe UI Emoji" font-size="20px" fill="#2f9e44" text-anchor="middle" style="white-space: pre;" direction="ltr" dominant-baseline="text-before-edge">target == msg.sender</text></g></svg>