<svg version="1.1" xmlns="http://www.w3.org/2000/svg" viewBox="0 0 2023.5057929301665 1333.9163670127384" width="4047.011585860333" height="2667.832734025477">
  <!-- svg-source:excalidraw -->
  
  <defs>
    <style class="style-fonts">
      @font-face {
        font-family: "Virgil";
        src: url("https://excalidraw.com/Virgil.woff2");
      }
      @font-face {
        font-family: "Cascadia";
        src: url("https://excalidraw.com/Cascadia.woff2");
      }
      @font-face {
        font-family: "Assistant";
        src: url("https://excalidraw.com/Assistant-Regular.woff2");
      }
    </style>
    
  </defs>
  <rect x="0" y="0" width="2023.5057929301665" height="1333.9163670127384" fill="#ffffff"></rect><g stroke-linecap="round" transform="translate(1672.02330843055 27.587092673272025) rotate(0 169.2890625 114.81625053907968)"><path d="M32 0 C106.83 -2.63, 177.47 -2.3, 306.58 0 M32 0 C95.05 -1.27, 156.28 -0.57, 306.58 0 M306.58 0 C327.63 1.26, 338.46 10.32, 338.58 32 M306.58 0 C329.44 0.98, 337.83 9.58, 338.58 32 M338.58 32 C340.75 96.16, 338.44 161.19, 338.58 197.63 M338.58 32 C338.36 88.47, 338.46 144.68, 338.58 197.63 M338.58 197.63 C339.72 218.11, 329.34 230.39, 306.58 229.63 M338.58 197.63 C336.4 218.17, 329.19 227.95, 306.58 229.63 M306.58 229.63 C231.81 232.43, 156.55 229.67, 32 229.63 M306.58 229.63 C202.19 228.72, 98.38 228.92, 32 229.63 M32 229.63 C11.4 228.6, -0.93 218.83, 0 197.63 M32 229.63 C9.08 227.55, 0.98 219.34, 0 197.63 M0 197.63 C2.14 139.59, 0.65 82.49, 0 32 M0 197.63 C-0.53 136.69, 0.57 75.39, 0 32 M0 32 C-1.24 10.53, 10.82 -0.27, 32 0 M0 32 C-1.25 10.94, 11.76 -0.54, 32 0" stroke="#1e1e1e" stroke-width="2" fill="none"></path></g><g stroke-linecap="round"><g transform="translate(1672.55846468055 125.05553125143155) rotate(0 169.88671875 0.822265625)"><path d="M1.12 -0.76 C57.59 -0.73, 282.47 0.69, 338.76 1.13 M0.24 1.45 C57.09 1.57, 284.1 2.09, 340.95 2.4" stroke="#1e1e1e" stroke-width="2" fill="none"></path></g></g><mask></mask><g transform="translate(1817.18346468055 150.87584375143155) rotate(0 28.869964599609375 12.5)"><text x="0" y="0" font-family="Virgil, Segoe UI Emoji" font-size="20px" fill="#1e1e1e" text-anchor="start" style="white-space: pre;" direction="ltr" dominant-baseline="text-before-edge">permit</text></g><g stroke-linecap="round"><g transform="translate(1673.15612093055 193.93834375143155) rotate(0 168.224609375 0.095703125)"><path d="M-1.01 -0.51 C54.74 -0.31, 279.23 0.19, 335.58 0.45 M0.66 -1.82 C56.68 -1.94, 281.84 -1.7, 337.84 -1.54" stroke="#1e1e1e" stroke-width="2" fill="none"></path></g></g><mask></mask><g transform="translate(1704.605243463392 38.038705170786386) rotate(0 141.71987915039062 37.5)"><text x="141.71987915039062" y="0" font-family="Virgil, Segoe UI Emoji" font-size="20px" fill="#2f9e44" text-anchor="middle" style="white-space: pre;" direction="ltr" dominant-baseline="text-before-edge">target == this</text><text x="141.71987915039062" y="25" font-family="Virgil, Segoe UI Emoji" font-size="20px" fill="#2f9e44" text-anchor="middle" style="white-space: pre;" direction="ltr" dominant-baseline="text-before-edge">onBehalfOfAccount == signer</text><text x="141.71987915039062" y="50" font-family="Virgil, Segoe UI Emoji" font-size="20px" fill="#2f9e44" text-anchor="middle" style="white-space: pre;" direction="ltr" dominant-baseline="text-before-edge">msg.sender != this</text></g><g stroke-linecap="round" transform="translate(1200.484665096331 21.50124813193497) rotate(0 169.28906249999994 94.64062500000001)"><path d="M32 0 C117.35 0, 200.76 0.48, 306.58 0 M32 0 C104.14 1.37, 177.42 1.45, 306.58 0 M306.58 0 C326.08 -1.54, 338.48 9.98, 338.58 32 M306.58 0 C327.53 -1.41, 340.68 11.33, 338.58 32 M338.58 32 C339.26 70.14, 338.21 106.49, 338.58 157.28 M338.58 32 C337.8 58.25, 337.31 85.55, 338.58 157.28 M338.58 157.28 C337 179.52, 328.58 188.22, 306.58 189.28 M338.58 157.28 C340.19 180.04, 327.81 190.21, 306.58 189.28 M306.58 189.28 C232.28 188.28, 157.63 186.93, 32 189.28 M306.58 189.28 C247.25 188.43, 186.19 189.09, 32 189.28 M32 189.28 C12.13 187.91, -1.07 177.37, 0 157.28 M32 189.28 C10.45 189.73, -0.91 177.39, 0 157.28 M0 157.28 C0.86 127.92, 1.72 98.94, 0 32 M0 157.28 C1.6 126.4, 0.56 96.54, 0 32 M0 32 C-0.51 11.38, 10.88 1.2, 32 0 M0 32 C-0.7 11.14, 11.56 1.46, 32 0" stroke="#1e1e1e" stroke-width="2" fill="none"></path></g><g stroke-linecap="round"><g transform="translate(1201.019821346331 78.61843563193497) rotate(0 169.88671875 0.822265625)"><path d="M0.32 -1.08 C56.69 -0.79, 282.41 0.6, 338.91 0.93 M-0.97 0.97 C55.72 1.46, 284.62 1.95, 341.18 2.1" stroke="#1e1e1e" stroke-width="2" fill="none"></path></g></g><mask></mask><g transform="translate(1309.5419755387472 105.63505544863602) rotate(0 56.649940490722656 12.5)"><text x="0" y="0" font-family="Virgil, Segoe UI Emoji" font-size="20px" fill="#1e1e1e" text-anchor="start" style="white-space: pre;" direction="ltr" dominant-baseline="text-before-edge">impersonate</text></g><g stroke-linecap="round"><g transform="translate(1201.617477596331 147.50124813193497) rotate(0 168.224609375 0.095703125)"><path d="M-0.86 -0.71 C55.09 -0.62, 279.89 -0.53, 336.03 -0.55 M0.89 1.53 C56.62 1.85, 279.18 0.86, 334.86 0.6" stroke="#1e1e1e" stroke-width="2" fill="none"></path></g></g><mask></mask><g transform="translate(1308.7493125238861 39.082104325493844) rotate(0 61.784271240234375 11.022659155510993)"><text x="61.784271240234375" y="0" font-family="Virgil, Segoe UI Emoji" font-size="17.636254648817587px" fill="#2f9e44" text-anchor="middle" style="white-space: pre;" direction="ltr" dominant-baseline="text-before-edge">target != this</text></g><g transform="translate(1236.6338124984825 158.01697058701626) rotate(0 135.599853515625 25)"><text x="135.599853515625" y="0" font-family="Virgil, Segoe UI Emoji" font-size="20px" fill="#1971c2" text-anchor="middle" style="white-space: pre;" direction="ltr" dominant-baseline="text-before-edge">increaseCallDepth</text><text x="135.599853515625" y="25" font-family="Virgil, Segoe UI Emoji" font-size="20px" fill="#1971c2" text-anchor="middle" style="white-space: pre;" direction="ltr" dominant-baseline="text-before-edge">setImpersonationInProgress</text></g><g stroke-linecap="round" transform="translate(754.2137280710929 14.610096593871617) rotate(0 169.28906249999997 94.64062500000001)"><path d="M32 0 C87.65 -0.02, 143.87 0.01, 306.58 0 M32 0 C136.7 -0.8, 241.6 -1.23, 306.58 0 M306.58 0 C329.56 0.55, 338.43 9.81, 338.58 32 M306.58 0 C328.69 1.63, 340.53 12.17, 338.58 32 M338.58 32 C337.1 77.03, 338.61 126.39, 338.58 157.28 M338.58 32 C339.09 65.96, 338.32 98.19, 338.58 157.28 M338.58 157.28 C340.49 178.59, 326.31 190.98, 306.58 189.28 M338.58 157.28 C337.93 180.45, 326.89 189.15, 306.58 189.28 M306.58 189.28 C224.06 189.64, 144.49 189.23, 32 189.28 M306.58 189.28 C209.78 190.25, 113.52 189.47, 32 189.28 M32 189.28 C11.51 188.37, -1.73 177.12, 0 157.28 M32 189.28 C12.43 189.48, -1.91 178.02, 0 157.28 M0 157.28 C-0.66 119.41, 1.61 80.67, 0 32 M0 157.28 C-1.07 116.79, -1.38 76.05, 0 32 M0 32 C1.11 8.87, 11.44 -0.44, 32 0 M0 32 C-0.86 8.91, 9.55 -1.87, 32 0" stroke="#1e1e1e" stroke-width="2" fill="none"></path></g><g stroke-linecap="round"><g transform="translate(754.7488843210929 71.72728409387162) rotate(0 169.88671875 0.822265625)"><path d="M0.42 1.09 C57.26 1.6, 284.41 2.35, 340.87 2.24 M-0.82 0.62 C55.97 0.84, 284 0.35, 340.5 0.44" stroke="#1e1e1e" stroke-width="2" fill="none"></path></g></g><mask></mask><g transform="translate(899.3738843210929 97.54759659387162) rotate(0 16.949989318847656 12.5)"><text x="0" y="0" font-family="Virgil, Segoe UI Emoji" font-size="20px" fill="#1e1e1e" text-anchor="start" style="white-space: pre;" direction="ltr" dominant-baseline="text-before-edge">call</text></g><g stroke-linecap="round"><g transform="translate(755.3465405710929 140.61009659387162) rotate(0 168.224609375 0.095703125)"><path d="M-1 -1.1 C54.99 -0.92, 280.3 0.39, 336.39 0.69 M0.67 0.94 C56.46 0.79, 279.19 -0.78, 335.41 -1.17" stroke="#1e1e1e" stroke-width="2" fill="none"></path></g></g><mask></mask><g transform="translate(856.3941399094167 31.71349006381078) rotate(0 70.0899429321289 12.5)"><text x="70.0899429321289" y="0" font-family="Virgil, Segoe UI Emoji" font-size="20px" fill="#2f9e44" text-anchor="middle" style="white-space: pre;" direction="ltr" dominant-baseline="text-before-edge">target != this</text></g><g transform="translate(839.8387280710929 160.73900284387162) rotate(0 86.37992095947266 12.5)"><text x="0" y="0" font-family="Virgil, Segoe UI Emoji" font-size="20px" fill="#1971c2" text-anchor="start" style="white-space: pre;" direction="ltr" dominant-baseline="text-before-edge">increaseCallDepth</text></g><g stroke-linecap="round" transform="translate(781.5294268598982 883.3705208274364) rotate(0 222.27375632746273 124.26158494396998)"><path d="M32 0 C183.23 -0.24, 333.02 -0.87, 412.55 0 M412.55 0 C433.41 1.54, 445.6 9.43, 444.55 32 M444.55 32 C444.6 102.47, 445.66 170.66, 444.55 216.52 M444.55 216.52 C446.16 236.54, 432.78 247.37, 412.55 248.52 M412.55 248.52 C323.54 249.66, 234.42 250.95, 32 248.52 M32 248.52 C9.72 249.98, 1.35 236.04, 0 216.52 M0 216.52 C-1.37 154.72, -1.4 95.89, 0 32 M0 32 C0.02 8.86, 10.5 0.44, 32 0" stroke="#1e1e1e" stroke-width="2.5" fill="none" stroke-dasharray="8 10"></path></g><g stroke-linecap="round"><g transform="translate(782.2320782193717 958.3644491356223) rotate(0 223.05846915957557 1.0796212494100246)"><path d="M0.42 -0.33 C74.51 -0.12, 371.26 0.63, 445.5 1.2" stroke="#1e1e1e" stroke-width="2.5" fill="none" stroke-dasharray="8 10"></path></g></g><mask></mask><g transform="translate(867.4929658193364 991.4967614896553) rotate(0 151.90866088867185 16.412294527848132)"><text x="0" y="0" font-family="Virgil, Segoe UI Emoji" font-size="26.259671244556962px" fill="#1e1e1e" text-anchor="start" style="white-space: pre;" direction="ltr" dominant-baseline="text-before-edge">callWithContextInternal</text></g><g stroke-linecap="round"><g transform="translate(783.0167910514845 1048.8064496681452) rotate(0 220.8761468715757 0.12565662997883464)"><path d="M-0.62 -0.96 C72.89 -0.71, 367.63 1.1, 441.47 1.18" stroke="#1e1e1e" stroke-width="2.5" fill="none" stroke-dasharray="8 10"></path></g></g><mask></mask><g transform="translate(812.6359181690202 1067.7613750161004) rotate(0 196.21649169921875 23.31516660967486)"><text x="196.21649169921875" y="0" font-family="Virgil, Segoe UI Emoji" font-size="18.65213328773992px" fill="#1971c2" text-anchor="middle" style="white-space: pre;" direction="ltr" dominant-baseline="text-before-edge">setOnBehalfOfAccount(onBehalfOfAccount)</text><text x="196.21649169921875" y="23.315166609674904" font-family="Virgil, Segoe UI Emoji" font-size="18.65213328773992px" fill="#1971c2" text-anchor="middle" style="white-space: pre;" direction="ltr" dominant-baseline="text-before-edge">set/clearOperatorAuthenticated</text></g><g stroke-linecap="round" transform="translate(464.59473096330555 420.4179739803797) rotate(0 203.10562126731196 113.54568720440344)"><path d="M32 0 C124.58 -0.69, 219.21 -0.01, 374.21 0 M374.21 0 C396.84 -1.73, 405.18 12.28, 406.21 32 M406.21 32 C404.34 87, 405.9 144.55, 406.21 195.09 M406.21 195.09 C405.77 214.83, 394.68 225.81, 374.21 227.09 M374.21 227.09 C302.53 226.36, 231.52 226.71, 32 227.09 M32 227.09 C9.02 226.09, -0.68 216.81, 0 195.09 M0 195.09 C-0.97 135.61, -0.61 77.05, 0 32 M0 32 C-1.33 12.45, 9.59 -0.04, 32 0" stroke="#1e1e1e" stroke-width="2.5" fill="none" stroke-dasharray="8 10"></path></g><g stroke-linecap="round"><g transform="translate(464.4146563577182 503.64312308995477) rotate(0 203.82266312558647 0.9865183736390577)"><path d="M-0.6 0.4 C67.52 0.8, 340.12 2.9, 408.29 2.99" stroke="#1e1e1e" stroke-width="2.5" fill="none" stroke-dasharray="8 10"></path></g></g><mask></mask><g transform="translate(596.8441744631889 528.053810509786) rotate(0 67.72371673583984 14.996953898550885)"><text x="0" y="0" font-family="Virgil, Segoe UI Emoji" font-size="23.995126237681422px" fill="#1e1e1e" text-anchor="start" style="white-space: pre;" direction="ltr" dominant-baseline="text-before-edge">callInternal</text></g><g stroke-linecap="round"><g transform="translate(465.95382991036183 571.5872692777727) rotate(0 201.82853691188853 0.11482042828578187)"><path d="M0.65 1.02 C68.15 0.82, 337.37 -0.84, 404.44 -0.81" stroke="#1e1e1e" stroke-width="2.5" fill="none" stroke-dasharray="8 10"></path></g></g><mask></mask><g transform="translate(472.55303217712265 450.85958799846827) rotate(0 194.4130096435547 12.104577514673338)"><text x="194.4130096435547" y="0" font-family="Virgil, Segoe UI Emoji" font-size="19.367324023477334px" fill="#2f9e44" text-anchor="middle" style="white-space: pre;" direction="ltr" dominant-baseline="text-before-edge">onlyOwnerOrOperator(onBehalfOfAccount)</text></g><g stroke-linecap="round" transform="translate(1189.3537944044956 439.38391135080616) rotate(0 169.2890625 94.64062500000003)"><path d="M32 0 C120.25 -1.93, 206.05 -2.74, 306.58 0 M306.58 0 C326.97 -0.01, 338.01 9.11, 338.58 32 M338.58 32 C338.07 59.62, 337.28 81.97, 338.58 157.28 M338.58 157.28 C337.57 179.44, 325.98 188.92, 306.58 189.28 M306.58 189.28 C202.35 186.17, 99.49 186.35, 32 189.28 M32 189.28 C12.27 190.16, -1.21 178.08, 0 157.28 M0 157.28 C-0.58 107.25, -0.85 59.52, 0 32 M0 32 C-0.47 9.84, 11.44 0.53, 32 0" stroke="#1e1e1e" stroke-width="2.5" fill="none" stroke-dasharray="8 10"></path></g><g stroke-linecap="round"><g transform="translate(1189.8889506544956 496.501098850806) rotate(0 169.88671875 0.822265625)"><path d="M0.88 -0.14 C57.56 -0.16, 283.24 0.58, 339.62 0.87" stroke="#1e1e1e" stroke-width="2.5" fill="none" stroke-dasharray="8 10"></path></g></g><mask></mask><g transform="translate(1272.237424846494 521.6952565186103) rotate(0 96.159912109375 12.5)"><text x="0" y="0" font-family="Virgil, Segoe UI Emoji" font-size="20px" fill="#1e1e1e" text-anchor="start" style="white-space: pre;" direction="ltr" dominant-baseline="text-before-edge">impersonateInternal</text></g><g stroke-linecap="round"><g transform="translate(1190.4866069044956 565.383911350806) rotate(0 168.224609375 0.095703125)"><path d="M-0.15 -0.77 C55.69 -0.72, 279.84 0.18, 335.89 0.18" stroke="#1e1e1e" stroke-width="2.5" fill="none" stroke-dasharray="8 10"></path></g></g><mask></mask><g transform="translate(1206.992764040663 448.86819992275235) rotate(0 149.8135223388672 22.76554086706912)"><text x="149.8135223388672" y="0" font-family="Virgil, Segoe UI Emoji" font-size="18.212432693655312px" fill="#2f9e44" text-anchor="middle" style="white-space: pre;" direction="ltr" dominant-baseline="text-before-edge">onlyController(onBehalfOfAccount)</text><text x="149.8135223388672" y="22.76554086706914" font-family="Virgil, Segoe UI Emoji" font-size="18.212432693655312px" fill="#2f9e44" text-anchor="middle" style="white-space: pre;" direction="ltr" dominant-baseline="text-before-edge">target in accountCollaterals</text></g><g stroke-linecap="round" transform="translate(184.9422927692293 10) rotate(0 169.28906249999997 94.64062500000001)"><path d="M32 0 C92.24 0.06, 151.05 -2.06, 306.58 0 M32 0 C122.39 -1.05, 212.98 -0.69, 306.58 0 M306.58 0 C328.52 1.72, 339.73 12.32, 338.58 32 M306.58 0 C328.29 0.52, 339.6 11.53, 338.58 32 M338.58 32 C339.37 75.51, 338.59 117.93, 338.58 157.28 M338.58 32 C337.04 59.01, 337.23 85.93, 338.58 157.28 M338.58 157.28 C338.91 177.78, 327.31 189.51, 306.58 189.28 M338.58 157.28 C338.3 176.93, 329.55 187.29, 306.58 189.28 M306.58 189.28 C237.97 188.9, 166.75 189.23, 32 189.28 M306.58 189.28 C230.43 189.76, 154 189, 32 189.28 M32 189.28 C11.77 190.11, -1.39 177.82, 0 157.28 M32 189.28 C10.26 187.62, -1.57 180.3, 0 157.28 M0 157.28 C-0.45 118.44, -0.13 80.54, 0 32 M0 157.28 C-1.71 111.46, -1.54 66.43, 0 32 M0 32 C1.02 9.9, 8.9 -1.95, 32 0 M0 32 C1.37 11.3, 10.47 0.7, 32 0" stroke="#1e1e1e" stroke-width="2" fill="none"></path></g><g stroke-linecap="round"><g transform="translate(185.4774490192293 67.1171875) rotate(0 169.88671875 0.822265625)"><path d="M0.49 1.06 C57.06 1.11, 283.05 0.91, 339.65 1.06 M-0.71 0.57 C55.67 0.71, 281.93 1.81, 338.64 2.29" stroke="#1e1e1e" stroke-width="2" fill="none"></path></g></g><mask></mask><g transform="translate(330.1024490192293 92.9375) rotate(0 27.35997772216797 12.5)"><text x="0" y="0" font-family="Virgil, Segoe UI Emoji" font-size="20px" fill="#1e1e1e" text-anchor="start" style="white-space: pre;" direction="ltr" dominant-baseline="text-before-edge">batch</text></g><g stroke-linecap="round"><g transform="translate(186.0751052692293 136) rotate(0 168.224609375 0.095703125)"><path d="M-0.12 -0.58 C55.93 -0.68, 280.66 0.35, 336.79 0.51 M-1.64 1.72 C54.24 1.77, 279.75 -1.46, 336.03 -1.45" stroke="#1e1e1e" stroke-width="2" fill="none"></path></g></g><mask></mask><g transform="translate(270.5672927692293 156.12890625) rotate(0 86.37992095947266 12.5)"><text x="0" y="0" font-family="Virgil, Segoe UI Emoji" font-size="20px" fill="#1971c2" text-anchor="start" style="white-space: pre;" direction="ltr" dominant-baseline="text-before-edge">increaseCallDepth</text></g><g stroke-linecap="round"><g transform="translate(1870.870891409888 273.42358572551825) rotate(0 -313.2149193831709 363.82913235362037)"><path d="M0.41 0.11 C-52.87 63.52, -214.46 258.08, -318.91 379.31 C-423.37 500.53, -575.17 669.2, -626.32 727.46" stroke="#1e1e1e" stroke-width="2.5" fill="none" stroke-dasharray="8 10"></path></g><g transform="translate(1870.870891409888 273.42358572551825) rotate(0 -313.2149193831709 363.82913235362037)"><path d="M-617.12 704.21 C-620.46 712.85, -622.67 721.15, -626.32 727.46" stroke="#1e1e1e" stroke-width="2.5" fill="none"></path></g><g transform="translate(1870.870891409888 273.42358572551825) rotate(0 -313.2149193831709 363.82913235362037)"><path d="M-604.33 715.56 C-612.16 720.16, -618.97 724.38, -626.32 727.46" stroke="#1e1e1e" stroke-width="2.5" fill="none"></path></g></g><mask></mask><g stroke-linecap="round"><g transform="translate(1357.1937491156682 229.4057566132592) rotate(0 -1.1256835490798949 97.0982482674703)"><path d="M-0.7 -1.02 C-0.75 31.04, -1.09 160.66, -1.21 193.25" stroke="#1e1e1e" stroke-width="2.5" fill="none" stroke-dasharray="8 10"></path></g><g transform="translate(1357.1937491156682 229.4057566132592) rotate(0 -1.1256835490798949 97.0982482674703)"><path d="M-9.69 169.73 C-9.29 176.85, -7.25 181.88, -1.21 193.25" stroke="#1e1e1e" stroke-width="2.5" fill="none"></path></g><g transform="translate(1357.1937491156682 229.4057566132592) rotate(0 -1.1256835490798949 97.0982482674703)"><path d="M7.41 169.78 C3.93 176.79, 2.09 181.81, -1.21 193.25" stroke="#1e1e1e" stroke-width="2.5" fill="none"></path></g></g><mask></mask><g stroke-linecap="round" transform="translate(10 468.45633877926815) rotate(0 169.10797953505062 55.53540974777846)"><path d="M27.77 0 C104.76 0.79, 181.64 2.33, 310.45 0 M310.45 0 C329 1.48, 336.99 9.58, 338.22 27.77 M338.22 27.77 C340.23 41.74, 336.53 59.01, 338.22 83.3 M338.22 83.3 C337.22 101.45, 327.52 111.84, 310.45 111.07 M310.45 111.07 C232.35 113.09, 155.04 112.39, 27.77 111.07 M27.77 111.07 C11.03 112.05, -1.75 103.21, 0 83.3 M0 83.3 C-1.05 67.04, -0.89 55.35, 0 27.77 M0 27.77 C1.06 10.7, 9.55 0.78, 27.77 0" stroke="#1e1e1e" stroke-width="2.5" fill="none" stroke-dasharray="8 10"></path></g><g transform="translate(84.76644077534274 514.5479574630397) rotate(0 84.74991607666016 12.5)"><text x="0" y="0" font-family="Virgil, Segoe UI Emoji" font-size="20px" fill="#1e1e1e" text-anchor="start" style="white-space: pre;" direction="ltr" dominant-baseline="text-before-edge">delegatecall(this)</text></g><g stroke-linecap="round" transform="translate(842.0991723356998 1212.8455475171816) rotate(0 169.10797953505062 55.53540974777843)"><path d="M27.77 0 C94.49 0.33, 161.38 -0.67, 310.45 0 M310.45 0 C327.38 -1.99, 338.14 9.55, 338.22 27.77 M338.22 27.77 C338.07 43.67, 337.72 56.04, 338.22 83.3 M338.22 83.3 C338.38 102.27, 327.39 109.93, 310.45 111.07 M310.45 111.07 C212.95 112.55, 114.49 113.13, 27.77 111.07 M27.77 111.07 C10.95 113.04, 1.02 102.38, 0 83.3 M0 83.3 C-1.94 66.65, -2.18 50.71, 0 27.77 M0 27.77 C1.3 7.81, 8.48 1.28, 27.77 0" stroke="#1e1e1e" stroke-width="2.5" fill="none" stroke-dasharray="8 10"></path></g><g transform="translate(955.4280639938839 1261.963219359418) rotate(0 57.229949951171875 12.5)"><text x="57.229949951171875" y="0" font-family="Virgil, Segoe UI Emoji" font-size="20px" fill="#1e1e1e" text-anchor="middle" style="white-space: pre;" direction="ltr" dominant-baseline="text-before-edge">call(target)</text></g><g mask="url(#mask-2tky1HzKjJ2VdIqB43C1g)" stroke-linecap="round"><g transform="translate(449.5635681041 204.76461567641442) rotate(0 81.8830857977597 99.21816651435678)"><path d="M0.93 -0.03 C28.25 33.04, 136.14 165.96, 163.39 198.92" stroke="#1e1e1e" stroke-width="2.5" fill="none" stroke-dasharray="8 10"></path></g><g transform="translate(449.5635681041 204.76461567641442) rotate(0 81.8830857977597 99.21816651435678)"><path d="M141.89 186.15 C147.37 188.6, 153.68 193.51, 163.39 198.92" stroke="#1e1e1e" stroke-width="2.5" fill="none"></path></g><g transform="translate(449.5635681041 204.76461567641442) rotate(0 81.8830857977597 99.21816651435678)"><path d="M155.13 175.32 C157.29 180.62, 160.23 188.29, 163.39 198.92" stroke="#1e1e1e" stroke-width="2.5" fill="none"></path></g></g><mask id="mask-2tky1HzKjJ2VdIqB43C1g"><rect x="0" y="0" fill="#fff" width="713.3297396996194" height="503.200948705128"></rect><rect x="429.0267396562542" y="278.9827821907712" fill="#000" width="204.83982849121094" height="50" opacity="1"></rect></mask><g transform="translate(429.02673965625416 278.9827821907712) rotate(0 102.6937728308141 25.22776660695672)"><text x="102.41991424560547" y="0" font-family="Virgil, Segoe UI Emoji" font-size="20px" fill="#2f9e44" text-anchor="middle" style="white-space: pre;" direction="ltr" dominant-baseline="text-before-edge">target != this</text><text x="102.41991424560547" y="25" font-family="Virgil, Segoe UI Emoji" font-size="20px" fill="#2f9e44" text-anchor="middle" style="white-space: pre;" direction="ltr" dominant-baseline="text-before-edge">target != msg.sender</text></g><g stroke-linecap="round"><g transform="translate(1297.9095875904686 637.4804217091257) rotate(0 -79.05528796955514 113.24135537874724)"><path d="M-0.93 0.48 C-27.23 38.52, -131.82 189.52, -157.93 227.16" stroke="#1e1e1e" stroke-width="2.5" fill="none" stroke-dasharray="8 10"></path></g><g transform="translate(1297.9095875904686 637.4804217091257) rotate(0 -79.05528796955514 113.24135537874724)"><path d="M-151.58 202.99 C-152.85 210.28, -154.36 217.91, -157.93 227.16" stroke="#1e1e1e" stroke-width="2.5" fill="none"></path></g><g transform="translate(1297.9095875904686 637.4804217091257) rotate(0 -79.05528796955514 113.24135537874724)"><path d="M-137.52 212.73 C-142.8 217.08, -148.41 221.87, -157.93 227.16" stroke="#1e1e1e" stroke-width="2.5" fill="none"></path></g></g><mask></mask><g mask="url(#mask-QlgHqVMg9KDguPTx3yG9X)" stroke-linecap="round"><g transform="translate(250.92916287834737 205.12744568288173) rotate(0 -32.60291519811639 120.5491388495966)"><path d="M0.68 -0.38 C-3.53 15.8, -13.71 57.68, -24.55 97.95 C-35.39 138.23, -57.38 217.6, -64.35 241.29" stroke="#1e1e1e" stroke-width="2.5" fill="none" stroke-dasharray="8 10"></path></g><g transform="translate(250.92916287834737 205.12744568288173) rotate(0 -32.60291519811639 120.5491388495966)"><path d="M-66.14 216.36 C-65.93 227.18, -64.39 235.81, -64.35 241.29" stroke="#1e1e1e" stroke-width="2.5" fill="none"></path></g><g transform="translate(250.92916287834737 205.12744568288173) rotate(0 -32.60291519811639 120.5491388495966)"><path d="M-49.69 221.04 C-55.47 230.26, -59.88 237.2, -64.35 241.29" stroke="#1e1e1e" stroke-width="2.5" fill="none"></path></g></g><mask id="mask-QlgHqVMg9KDguPTx3yG9X"><rect x="0" y="0" fill="#fff" width="416.13499327458015" height="546.2257233820749"></rect><rect x="158.1633546229947" y="290.4249810434815" fill="#000" width="134.2598876953125" height="25" opacity="1"></rect></mask><g transform="translate(158.16335462299463 290.42498104348147) rotate(0 60.93097965977512 35.15999464057404)"><text x="67.12994384765625" y="0" font-family="Virgil, Segoe UI Emoji" font-size="20px" fill="#2f9e44" text-anchor="middle" style="white-space: pre;" direction="ltr" dominant-baseline="text-before-edge">target = this</text></g><g stroke-linecap="round"><g transform="translate(701.2473289838355 662.9490143408152) rotate(0 92.97303639332755 101.92938487450925)"><path d="M0.75 -0.85 C31.82 33.03, 155.54 170.14, 186.43 204.25" stroke="#1e1e1e" stroke-width="2.5" fill="none" stroke-dasharray="8 10"></path></g><g transform="translate(701.2473289838355 662.9490143408152) rotate(0 92.97303639332755 101.92938487450925)"><path d="M164.33 192.55 C169.62 196.73, 178.31 199.7, 186.43 204.25" stroke="#1e1e1e" stroke-width="2.5" fill="none"></path></g><g transform="translate(701.2473289838355 662.9490143408152) rotate(0 92.97303639332755 101.92938487450925)"><path d="M177.02 181.09 C178.6 188.77, 183.48 195.18, 186.43 204.25" stroke="#1e1e1e" stroke-width="2.5" fill="none"></path></g></g><mask></mask><g stroke-linecap="round"><g transform="translate(1004.1557062259517 1155.723954027874) rotate(0 0.46652924687467134 23.952564856198137)"><path d="M-0.27 0.05 C-0.08 8.16, 0.83 40.04, 1.09 48.1" stroke="#1e1e1e" stroke-width="2.5" fill="none" stroke-dasharray="8 10"></path></g><g transform="translate(1004.1557062259517 1155.723954027874) rotate(0 0.46652924687467134 23.952564856198137)"><path d="M-7.77 25.84 C-5.24 32.53, -2.44 39.23, 1.09 48.1" stroke="#1e1e1e" stroke-width="2.5" fill="none"></path></g><g transform="translate(1004.1557062259517 1155.723954027874) rotate(0 0.46652924687467134 23.952564856198137)"><path d="M8.61 25.36 C6.43 32.15, 4.54 38.98, 1.09 48.1" stroke="#1e1e1e" stroke-width="2.5" fill="none"></path></g></g><mask></mask><g stroke-linecap="round" transform="translate(1346.4437945738428 1155.7606150133865) rotate(0 203.19829098954744 81.03150988021673)"><path d="M0 0 C117.26 0.48, 236.23 1.87, 406.4 0 M0 0 C122.87 0.34, 246.52 -0.06, 406.4 0 M406.4 0 C407.35 34.77, 407.15 68.72, 406.4 162.06 M406.4 0 C405.3 49.7, 406.63 99.98, 406.4 162.06 M406.4 162.06 C296.83 159.5, 188.08 161, 0 162.06 M406.4 162.06 C266.66 159.96, 125.98 160.23, 0 162.06 M0 162.06 C1.91 121.69, 1.67 79.93, 0 0 M0 162.06 C1 124.34, 0.25 86.85, 0 0" stroke="#1e1e1e" stroke-width="4" fill="none"></path></g><g transform="translate(1415.9949078710188 1190.7758740352833) rotate(0 126.20993041992188 17.5)"><text x="126.20993041992188" y="0" font-family="Virgil, Segoe UI Emoji" font-size="28px" fill="#2f9e44" text-anchor="middle" style="white-space: pre;" direction="ltr" dominant-baseline="text-before-edge">required conditions</text></g><g transform="translate(1362.8188643216545 1253.4561212314381) rotate(0 182.1959228515625 17.5)"><text x="182.1959228515625" y="0" font-family="Virgil, Segoe UI Emoji" font-size="28px" fill="#1971c2" text-anchor="middle" style="white-space: pre;" direction="ltr" dominant-baseline="text-before-edge">execution context changes</text></g><g mask="url(#mask-luEmwu4sCBvwQCb86UfHD)" stroke-linecap="round"><g transform="translate(842.7699566026852 218.56778252190276) rotate(0 -62.49152936697391 94.2730135425468)"><path d="M0.64 1.05 C-9.67 16.63, -40.63 61.6, -61.39 92.76 C-82.14 123.91, -113.24 172.06, -123.89 187.96" stroke="#1e1e1e" stroke-width="2.5" fill="none" stroke-dasharray="8 10"></path></g><g transform="translate(842.7699566026852 218.56778252190276) rotate(0 -62.49152936697391 94.2730135425468)"><path d="M-118.12 163.64 C-118.43 170.54, -122.64 181.8, -123.89 187.96" stroke="#1e1e1e" stroke-width="2.5" fill="none"></path></g><g transform="translate(842.7699566026852 218.56778252190276) rotate(0 -62.49152936697391 94.2730135425468)"><path d="M-103.83 173.04 C-108.88 176.87, -117.87 184.97, -123.89 187.96" stroke="#1e1e1e" stroke-width="2.5" fill="none"></path></g></g><mask id="mask-luEmwu4sCBvwQCb86UfHD"><rect x="0" y="0" fill="#fff" width="1067.7530153366329" height="507.11380960699637"></rect><rect x="679.7302572246856" y="299.13430931334125" fill="#000" width="204.83982849121094" height="25" opacity="1"></rect></mask><g transform="translate(679.7302572246856 299.1343093133413) rotate(0 101.41460816552937 13.942642799361508)"><text x="102.41991424560547" y="0" font-family="Virgil, Segoe UI Emoji" font-size="20px" fill="#2f9e44" text-anchor="middle" style="white-space: pre;" direction="ltr" dominant-baseline="text-before-edge">target != msg.sender</text></g><g mask="url(#mask-76jP-wH7vfRFKl23GEbOw)" stroke-linecap="round"><g transform="translate(1013.8278434187205 219.0072606057701) rotate(0 0.040213877834503364 320.6031968985732)"><path d="M-0.19 0.57 C0.15 15.61, 1.54 -15.43, 1.55 91.41 C1.56 198.25, 0.41 549.99, -0.13 641.62" stroke="#1e1e1e" stroke-width="2.5" fill="none" stroke-dasharray="8 10"></path></g><g transform="translate(1013.8278434187205 219.0072606057701) rotate(0 0.040213877834503364 320.6031968985732)"><path d="M-8.58 618.09 C-5.24 625.44, -4.36 631.12, -0.13 641.62" stroke="#1e1e1e" stroke-width="2.5" fill="none"></path></g><g transform="translate(1013.8278434187205 219.0072606057701) rotate(0 0.040213877834503364 320.6031968985732)"><path d="M8.52 618.16 C7.47 625.46, 3.96 631.12, -0.13 641.62" stroke="#1e1e1e" stroke-width="2.5" fill="none"></path></g></g><mask id="mask-76jP-wH7vfRFKl23GEbOw"><rect x="0" y="0" fill="#fff" width="1115.2883817779864" height="960.2136544029165"></rect><rect x="908.9684131461098" y="298.1270789105229" fill="#000" width="211.25982666015625" height="25" opacity="1"></rect></mask><g transform="translate(908.9684131461098 298.12707891052287) rotate(0 105.53832563350196 241.9718432849378)"><text x="105.62991333007812" y="0" font-family="Virgil, Segoe UI Emoji" font-size="20px" fill="#2f9e44" text-anchor="middle" style="white-space: pre;" direction="ltr" dominant-baseline="text-before-edge">target == msg.sender</text></g><g transform="translate(868.0704873534045 907.2519588229994) rotate(0 131.37689208984375 12.104577514673338)"><text x="131.37689208984375" y="0" font-family="Virgil, Segoe UI Emoji" font-size="19.367324023477334px" fill="#2f9e44" text-anchor="middle" style="white-space: pre;" direction="ltr" dominant-baseline="text-before-edge">target != ERC1820Registry</text></g></svg>