<svg version="1.1" xmlns="http://www.w3.org/2000/svg" viewBox="0 0 2214.6999873031755 1344.2542471061938" width="4429.399974606351" height="2688.5084942123876">
  <!-- svg-source:excalidraw -->
  
  <defs>
    <style class="style-fonts">
      @font-face {
        font-family: "Virgil";
        src: url("https://excalidraw.com/Virgil.woff2");
      }
      @font-face {
        font-family: "Cascadia";
        src: url("https://excalidraw.com/Cascadia.woff2");
      }
      @font-face {
        font-family: "Assistant";
        src: url("https://excalidraw.com/Assistant-Regular.woff2");
      }
    </style>
    
  </defs>
  <rect x="0" y="0" width="2214.6999873031755" height="1344.2542471061938" fill="#ffffff"></rect><g stroke-linecap="round" transform="translate(1831.419557505572 581.580747681415) rotate(0 169.2890625 114.81625053907965)"><path d="M32 0 C106.83 -2.63, 177.47 -2.3, 306.58 0 M32 0 C95.05 -1.27, 156.28 -0.57, 306.58 0 M306.58 0 C327.63 1.26, 338.46 10.32, 338.58 32 M306.58 0 C329.44 0.98, 337.83 9.58, 338.58 32 M338.58 32 C340.75 96.16, 338.44 161.19, 338.58 197.63 M338.58 32 C338.36 88.47, 338.46 144.68, 338.58 197.63 M338.58 197.63 C339.72 218.11, 329.34 230.39, 306.58 229.63 M338.58 197.63 C336.4 218.17, 329.19 227.95, 306.58 229.63 M306.58 229.63 C231.81 232.43, 156.55 229.67, 32 229.63 M306.58 229.63 C202.19 228.72, 98.38 228.92, 32 229.63 M32 229.63 C11.4 228.6, -0.93 218.83, 0 197.63 M32 229.63 C9.08 227.55, 0.98 219.34, 0 197.63 M0 197.63 C2.14 139.59, 0.65 82.49, 0 32 M0 197.63 C-0.53 136.69, 0.57 75.39, 0 32 M0 32 C-1.24 10.53, 10.82 -0.27, 32 0 M0 32 C-1.25 10.94, 11.76 -0.54, 32 0" stroke="#1e1e1e" stroke-width="2" fill="none"></path></g><g stroke-linecap="round"><g transform="translate(1831.954713755572 679.0491862595745) rotate(0 169.88671875 0.822265625)"><path d="M1.12 -0.76 C57.59 -0.73, 282.47 0.69, 338.76 1.13 M0.24 1.45 C57.09 1.57, 284.1 2.09, 340.95 2.4" stroke="#1e1e1e" stroke-width="2" fill="none"></path></g></g><mask></mask><g transform="translate(1976.579713755572 704.8694987595745) rotate(0 28.869964599609375 12.5)"><text x="0" y="0" font-family="Virgil, Segoe UI Emoji" font-size="20px" fill="#1e1e1e" text-anchor="start" style="white-space: pre;" direction="ltr" dominant-baseline="text-before-edge">permit</text></g><g stroke-linecap="round"><g transform="translate(1832.552370005572 747.9319987595745) rotate(0 168.224609375 0.095703125)"><path d="M-1.01 -0.51 C54.74 -0.31, 279.23 0.19, 335.58 0.45 M0.66 -1.82 C56.68 -1.94, 281.84 -1.7, 337.84 -1.54" stroke="#1e1e1e" stroke-width="2" fill="none"></path></g></g><mask></mask><g transform="translate(1864.0014925384141 592.0323601789294) rotate(0 141.71987915039062 37.5)"><text x="141.71987915039062" y="0" font-family="Virgil, Segoe UI Emoji" font-size="20px" fill="#2f9e44" text-anchor="middle" style="white-space: pre;" direction="ltr" dominant-baseline="text-before-edge">target == this</text><text x="141.71987915039062" y="25" font-family="Virgil, Segoe UI Emoji" font-size="20px" fill="#2f9e44" text-anchor="middle" style="white-space: pre;" direction="ltr" dominant-baseline="text-before-edge">onBehalfOfAccount == signer</text><text x="141.71987915039062" y="50" font-family="Virgil, Segoe UI Emoji" font-size="20px" fill="#2f9e44" text-anchor="middle" style="white-space: pre;" direction="ltr" dominant-baseline="text-before-edge">msg.sender != this</text></g><g stroke-linecap="round" transform="translate(1294.835639583339 15.6069890786506) rotate(0 169.28906249999994 94.64062500000001)"><path d="M32 0 C117.35 0, 200.76 0.48, 306.58 0 M32 0 C104.14 1.37, 177.42 1.45, 306.58 0 M306.58 0 C326.08 -1.54, 338.48 9.98, 338.58 32 M306.58 0 C327.53 -1.41, 340.68 11.33, 338.58 32 M338.58 32 C339.26 70.14, 338.21 106.49, 338.58 157.28 M338.58 32 C337.8 58.25, 337.31 85.55, 338.58 157.28 M338.58 157.28 C337 179.52, 328.58 188.22, 306.58 189.28 M338.58 157.28 C340.19 180.04, 327.81 190.21, 306.58 189.28 M306.58 189.28 C232.28 188.28, 157.63 186.93, 32 189.28 M306.58 189.28 C247.25 188.43, 186.19 189.09, 32 189.28 M32 189.28 C12.13 187.91, -1.07 177.37, 0 157.28 M32 189.28 C10.45 189.73, -0.91 177.39, 0 157.28 M0 157.28 C0.86 127.92, 1.72 98.94, 0 32 M0 157.28 C1.6 126.4, 0.56 96.54, 0 32 M0 32 C-0.51 11.38, 10.88 1.2, 32 0 M0 32 C-0.7 11.14, 11.56 1.46, 32 0" stroke="#1e1e1e" stroke-width="2" fill="none"></path></g><g stroke-linecap="round"><g transform="translate(1295.370795833339 72.7241765786506) rotate(0 169.88671875 0.822265625)"><path d="M0.32 -1.08 C56.69 -0.79, 282.41 0.6, 338.91 0.93 M-0.97 0.97 C55.72 1.46, 284.62 1.95, 341.18 2.1" stroke="#1e1e1e" stroke-width="2" fill="none"></path></g></g><mask></mask><g transform="translate(1403.892950025755 99.74079639535165) rotate(0 56.649940490722656 12.5)"><text x="0" y="0" font-family="Virgil, Segoe UI Emoji" font-size="20px" fill="#1e1e1e" text-anchor="start" style="white-space: pre;" direction="ltr" dominant-baseline="text-before-edge">impersonate</text></g><g stroke-linecap="round"><g transform="translate(1295.968452083339 141.6069890786506) rotate(0 168.224609375 0.095703125)"><path d="M-0.86 -0.71 C55.09 -0.62, 279.89 -0.53, 336.03 -0.55 M0.89 1.53 C56.62 1.85, 279.18 0.86, 334.86 0.6" stroke="#1e1e1e" stroke-width="2" fill="none"></path></g></g><mask></mask><g transform="translate(1374.6014161612845 21.99959117106681) rotate(0 90.28314208984375 22.045318311021987)"><text x="90.28314208984375" y="0" font-family="Virgil, Segoe UI Emoji" font-size="17.636254648817587px" fill="#2f9e44" text-anchor="middle" style="white-space: pre;" direction="ltr" dominant-baseline="text-before-edge">target != this</text><text x="90.28314208984375" y="22.045318311021983" font-family="Virgil, Segoe UI Emoji" font-size="17.636254648817587px" fill="#2f9e44" text-anchor="middle" style="white-space: pre;" direction="ltr" dominant-baseline="text-before-edge">target != msg.sender</text></g><g transform="translate(1330.9847869854902 152.1227115337319) rotate(0 135.599853515625 25)"><text x="135.599853515625" y="0" font-family="Virgil, Segoe UI Emoji" font-size="20px" fill="#1971c2" text-anchor="middle" style="white-space: pre;" direction="ltr" dominant-baseline="text-before-edge">increaseCallDepth</text><text x="135.599853515625" y="25" font-family="Virgil, Segoe UI Emoji" font-size="20px" fill="#1971c2" text-anchor="middle" style="white-space: pre;" direction="ltr" dominant-baseline="text-before-edge">setImpersonationInProgress</text></g><g stroke-linecap="round" transform="translate(18.141136051012154 31.242411744229116) rotate(0 169.28906249999997 94.64062500000001)"><path d="M32 0 C87.65 -0.02, 143.87 0.01, 306.58 0 M32 0 C136.7 -0.8, 241.6 -1.23, 306.58 0 M306.58 0 C329.56 0.55, 338.43 9.81, 338.58 32 M306.58 0 C328.69 1.63, 340.53 12.17, 338.58 32 M338.58 32 C337.1 77.03, 338.61 126.39, 338.58 157.28 M338.58 32 C339.09 65.96, 338.32 98.19, 338.58 157.28 M338.58 157.28 C340.49 178.59, 326.31 190.98, 306.58 189.28 M338.58 157.28 C337.93 180.45, 326.89 189.15, 306.58 189.28 M306.58 189.28 C224.06 189.64, 144.49 189.23, 32 189.28 M306.58 189.28 C209.78 190.25, 113.52 189.47, 32 189.28 M32 189.28 C11.51 188.37, -1.73 177.12, 0 157.28 M32 189.28 C12.43 189.48, -1.91 178.02, 0 157.28 M0 157.28 C-0.66 119.41, 1.61 80.67, 0 32 M0 157.28 C-1.07 116.79, -1.38 76.05, 0 32 M0 32 C1.11 8.87, 11.44 -0.44, 32 0 M0 32 C-0.86 8.91, 9.55 -1.87, 32 0" stroke="#1e1e1e" stroke-width="2" fill="none"></path></g><g stroke-linecap="round"><g transform="translate(18.676292301012154 88.35959924422912) rotate(0 169.88671875 0.822265625)"><path d="M0.42 1.09 C57.26 1.6, 284.41 2.35, 340.87 2.24 M-0.82 0.62 C55.97 0.84, 284 0.35, 340.5 0.44" stroke="#1e1e1e" stroke-width="2" fill="none"></path></g></g><mask></mask><g transform="translate(163.30129230101215 114.17991174422912) rotate(0 16.949989318847656 12.5)"><text x="0" y="0" font-family="Virgil, Segoe UI Emoji" font-size="20px" fill="#1e1e1e" text-anchor="start" style="white-space: pre;" direction="ltr" dominant-baseline="text-before-edge">call</text></g><g stroke-linecap="round"><g transform="translate(19.273948551012154 157.24241174422912) rotate(0 168.224609375 0.095703125)"><path d="M-1 -1.1 C54.99 -0.92, 280.3 0.39, 336.39 0.69 M0.67 0.94 C56.46 0.79, 279.19 -0.78, 335.41 -1.17" stroke="#1e1e1e" stroke-width="2" fill="none"></path></g></g><mask></mask><g transform="translate(120.32154788933599 48.34580521416828) rotate(0 70.0899429321289 12.5)"><text x="70.0899429321289" y="0" font-family="Virgil, Segoe UI Emoji" font-size="20px" fill="#2f9e44" text-anchor="middle" style="white-space: pre;" direction="ltr" dominant-baseline="text-before-edge">target != this</text></g><g transform="translate(103.76613605101215 177.37131799422912) rotate(0 86.37992095947266 12.5)"><text x="0" y="0" font-family="Virgil, Segoe UI Emoji" font-size="20px" fill="#1971c2" text-anchor="start" style="white-space: pre;" direction="ltr" dominant-baseline="text-before-edge">increaseCallDepth</text></g><g stroke-linecap="round" transform="translate(10 705.3803241936868) rotate(0 169.28906249999997 98.64075504544991)"><path d="M32 0 C129.09 0.48, 223.18 0.96, 306.58 0 M32 0 C116.04 1.63, 199.69 1.41, 306.58 0 M306.58 0 C327.22 -0.49, 340.53 9.06, 338.58 32 M306.58 0 C328.44 -0.92, 338.99 11.35, 338.58 32 M338.58 32 C337.73 84.42, 337.85 134.48, 338.58 165.28 M338.58 32 C337.86 60.62, 338.25 89.09, 338.58 165.28 M338.58 165.28 C339.29 185.29, 328.56 197.04, 306.58 197.28 M338.58 165.28 C337.66 188.91, 328.23 195.52, 306.58 197.28 M306.58 197.28 C197.82 200.33, 91.11 199.68, 32 197.28 M306.58 197.28 C208.45 197.87, 110.15 197.38, 32 197.28 M32 197.28 C10.87 198.16, 0.21 188.42, 0 165.28 M32 197.28 C12.44 195.07, -0.43 184.41, 0 165.28 M0 165.28 C0.24 128.68, -0.84 93.07, 0 32 M0 165.28 C-0.36 128.32, -0.79 89.74, 0 32 M0 32 C0 10.63, 11.01 -0.82, 32 0 M0 32 C1.22 11.3, 8.62 0.71, 32 0" stroke="#1e1e1e" stroke-width="2" fill="none"></path></g><g stroke-linecap="round"><g transform="translate(10.53515625 770.4977717845866) rotate(0 169.88671875 0.822265625)"><path d="M0.83 -0.13 C57.47 0.24, 282.6 1.66, 339.1 1.88 M-0.2 -1.25 C56.91 -1.22, 284.91 -0.7, 341.46 -0.12" stroke="#1e1e1e" stroke-width="2" fill="none"></path></g></g><mask></mask><g transform="translate(137.07855617487917 795.3114642554772) rotate(0 38.58997344970703 12.5)"><text x="0" y="0" font-family="Virgil, Segoe UI Emoji" font-size="20px" fill="#1e1e1e" text-anchor="start" style="white-space: pre;" direction="ltr" dominant-baseline="text-before-edge">callback</text></g><g stroke-linecap="round"><g transform="translate(11.1328125 839.3805842845866) rotate(0 168.224609375 0.095703125)"><path d="M-0.67 0.24 C55.28 0.22, 280.47 -0.28, 336.52 -0.26 M1.18 -0.68 C56.9 -0.53, 279.46 0.63, 335.6 1.05" stroke="#1e1e1e" stroke-width="2" fill="none"></path></g></g><mask></mask><g transform="translate(72.53669299894216 716.0657928572232) rotate(0 105.62991333007812 25)"><text x="105.62991333007812" y="0" font-family="Virgil, Segoe UI Emoji" font-size="20px" fill="#2f9e44" text-anchor="middle" style="white-space: pre;" direction="ltr" dominant-baseline="text-before-edge">target == msg.sender</text><text x="105.62991333007812" y="25" font-family="Virgil, Segoe UI Emoji" font-size="20px" fill="#2f9e44" text-anchor="middle" style="white-space: pre;" direction="ltr" dominant-baseline="text-before-edge">msg.sender != this</text></g><g transform="translate(95.625 859.5094905345866) rotate(0 86.37992095947266 12.5)"><text x="0" y="0" font-family="Virgil, Segoe UI Emoji" font-size="20px" fill="#1971c2" text-anchor="start" style="white-space: pre;" direction="ltr" dominant-baseline="text-before-edge">increaseCallDepth</text></g><g stroke-linecap="round" transform="translate(817.8382068222005 893.4499539185554) rotate(0 222.27375632746273 124.26158494396998)"><path d="M32 0 C183.23 -0.24, 333.02 -0.87, 412.55 0 M412.55 0 C433.41 1.54, 445.6 9.43, 444.55 32 M444.55 32 C444.6 102.47, 445.66 170.66, 444.55 216.52 M444.55 216.52 C446.16 236.54, 432.78 247.37, 412.55 248.52 M412.55 248.52 C323.54 249.66, 234.42 250.95, 32 248.52 M32 248.52 C9.72 249.98, 1.35 236.04, 0 216.52 M0 216.52 C-1.37 154.72, -1.4 95.89, 0 32 M0 32 C0.02 8.86, 10.5 0.44, 32 0" stroke="#1e1e1e" stroke-width="2.5" fill="none" stroke-dasharray="8 10"></path></g><g stroke-linecap="round"><g transform="translate(818.540858181674 968.4438822267413) rotate(0 223.05846915957557 1.0796212494100246)"><path d="M0.42 -0.33 C74.51 -0.12, 371.26 0.63, 445.5 1.2" stroke="#1e1e1e" stroke-width="2.5" fill="none" stroke-dasharray="8 10"></path></g></g><mask></mask><g transform="translate(903.8017457816386 1001.5761945807743) rotate(0 151.90866088867185 16.412294527848132)"><text x="0" y="0" font-family="Virgil, Segoe UI Emoji" font-size="26.259671244556962px" fill="#1e1e1e" text-anchor="start" style="white-space: pre;" direction="ltr" dominant-baseline="text-before-edge">callWithContextInternal</text></g><g stroke-linecap="round"><g transform="translate(819.3255710137868 1058.8858827592642) rotate(0 220.8761468715757 0.12565662997883464)"><path d="M-0.62 -0.96 C72.89 -0.71, 367.63 1.1, 441.47 1.18" stroke="#1e1e1e" stroke-width="2.5" fill="none" stroke-dasharray="8 10"></path></g></g><mask></mask><g transform="translate(848.9446981313225 1077.8408081072193) rotate(0 196.21649169921875 23.31516660967486)"><text x="196.21649169921875" y="0" font-family="Virgil, Segoe UI Emoji" font-size="18.65213328773992px" fill="#1971c2" text-anchor="middle" style="white-space: pre;" direction="ltr" dominant-baseline="text-before-edge">setOnBehalfOfAccount(onBehalfOfAccount)</text><text x="196.21649169921875" y="23.315166609674904" font-family="Virgil, Segoe UI Emoji" font-size="18.65213328773992px" fill="#1971c2" text-anchor="middle" style="white-space: pre;" direction="ltr" dominant-baseline="text-before-edge">set/clearOperatorAuthenticated</text></g><g stroke-linecap="round" transform="translate(332.90462240688566 410.21348588813066) rotate(0 203.10562126731196 113.54568720440341)"><path d="M32 0 C124.58 -0.69, 219.21 -0.01, 374.21 0 M374.21 0 C396.84 -1.73, 405.18 12.28, 406.21 32 M406.21 32 C404.34 87, 405.9 144.55, 406.21 195.09 M406.21 195.09 C405.77 214.83, 394.68 225.81, 374.21 227.09 M374.21 227.09 C302.53 226.36, 231.52 226.71, 32 227.09 M32 227.09 C9.02 226.09, -0.68 216.81, 0 195.09 M0 195.09 C-0.97 135.61, -0.61 77.05, 0 32 M0 32 C-1.33 12.45, 9.59 -0.04, 32 0" stroke="#1e1e1e" stroke-width="2.5" fill="none" stroke-dasharray="8 10"></path></g><g stroke-linecap="round"><g transform="translate(332.7245478012983 493.4386349977058) rotate(0 203.82266312558647 0.9865183736390577)"><path d="M-0.6 0.4 C67.52 0.8, 340.12 2.9, 408.29 2.99" stroke="#1e1e1e" stroke-width="2.5" fill="none" stroke-dasharray="8 10"></path></g></g><mask></mask><g transform="translate(465.154065906769 517.8493224175369) rotate(0 67.72371673583984 14.996953898550885)"><text x="0" y="0" font-family="Virgil, Segoe UI Emoji" font-size="23.995126237681422px" fill="#1e1e1e" text-anchor="start" style="white-space: pre;" direction="ltr" dominant-baseline="text-before-edge">callInternal</text></g><g stroke-linecap="round"><g transform="translate(334.26372135394195 561.3827811855236) rotate(0 201.82853691188853 0.11482042828578187)"><path d="M0.65 1.02 C68.15 0.82, 337.37 -0.84, 404.44 -0.81" stroke="#1e1e1e" stroke-width="2.5" fill="none" stroke-dasharray="8 10"></path></g></g><mask></mask><g transform="translate(340.12093061399514 420.1043947204395) rotate(0 194.4130096435547 36.31373254402001)"><text x="194.4130096435547" y="0" font-family="Virgil, Segoe UI Emoji" font-size="19.367324023477334px" fill="#2f9e44" text-anchor="middle" style="white-space: pre;" direction="ltr" dominant-baseline="text-before-edge">target != ERC1820Registry</text><text x="194.4130096435547" y="24.209155029346668" font-family="Virgil, Segoe UI Emoji" font-size="19.367324023477334px" fill="#2f9e44" text-anchor="middle" style="white-space: pre;" direction="ltr" dominant-baseline="text-before-edge">target != msg.sender</text><text x="194.4130096435547" y="48.418310058693336" font-family="Virgil, Segoe UI Emoji" font-size="19.367324023477334px" fill="#2f9e44" text-anchor="middle" style="white-space: pre;" direction="ltr" dominant-baseline="text-before-edge">onlyOwnerOrOperator(onBehalfOfAccount)</text></g><g stroke-linecap="round" transform="translate(1278.3690888432689 419.74193917324146) rotate(0 169.2890625 94.640625)"><path d="M32 0 C120.25 -1.93, 206.05 -2.74, 306.58 0 M306.58 0 C326.97 -0.01, 338.01 9.11, 338.58 32 M338.58 32 C338.07 59.62, 337.28 81.97, 338.58 157.28 M338.58 157.28 C337.57 179.44, 325.98 188.92, 306.58 189.28 M306.58 189.28 C202.35 186.17, 99.49 186.35, 32 189.28 M32 189.28 C12.27 190.16, -1.21 178.08, 0 157.28 M0 157.28 C-0.58 107.25, -0.85 59.52, 0 32 M0 32 C-0.47 9.84, 11.44 0.53, 32 0" stroke="#1e1e1e" stroke-width="2.5" fill="none" stroke-dasharray="8 10"></path></g><g stroke-linecap="round"><g transform="translate(1278.9042450932689 476.85912667324146) rotate(0 169.88671875 0.822265625)"><path d="M0.88 -0.14 C57.56 -0.16, 283.24 0.58, 339.62 0.87" stroke="#1e1e1e" stroke-width="2.5" fill="none" stroke-dasharray="8 10"></path></g></g><mask></mask><g transform="translate(1361.252719285267 502.0532843410458) rotate(0 96.159912109375 12.5)"><text x="0" y="0" font-family="Virgil, Segoe UI Emoji" font-size="20px" fill="#1e1e1e" text-anchor="start" style="white-space: pre;" direction="ltr" dominant-baseline="text-before-edge">impersonateInternal</text></g><g stroke-linecap="round"><g transform="translate(1279.5019013432689 545.7419391732415) rotate(0 168.224609375 0.095703125)"><path d="M-0.15 -0.77 C55.69 -0.72, 279.84 0.18, 335.89 0.18" stroke="#1e1e1e" stroke-width="2.5" fill="none" stroke-dasharray="8 10"></path></g></g><mask></mask><g transform="translate(1296.008058479436 429.22622774518766) rotate(0 149.8135223388672 22.76554086706915)"><text x="149.8135223388672" y="0" font-family="Virgil, Segoe UI Emoji" font-size="18.212432693655312px" fill="#2f9e44" text-anchor="middle" style="white-space: pre;" direction="ltr" dominant-baseline="text-before-edge">onlyController(onBehalfOfAccount)</text><text x="149.8135223388672" y="22.76554086706914" font-family="Virgil, Segoe UI Emoji" font-size="18.212432693655312px" fill="#2f9e44" text-anchor="middle" style="white-space: pre;" direction="ltr" dominant-baseline="text-before-edge">target in accountCollaterals</text></g><g stroke-linecap="round" transform="translate(631.0062894357477 10) rotate(0 169.28906249999997 94.64062500000001)"><path d="M32 0 C92.24 0.06, 151.05 -2.06, 306.58 0 M32 0 C122.39 -1.05, 212.98 -0.69, 306.58 0 M306.58 0 C328.52 1.72, 339.73 12.32, 338.58 32 M306.58 0 C328.29 0.52, 339.6 11.53, 338.58 32 M338.58 32 C339.37 75.51, 338.59 117.93, 338.58 157.28 M338.58 32 C337.04 59.01, 337.23 85.93, 338.58 157.28 M338.58 157.28 C338.91 177.78, 327.31 189.51, 306.58 189.28 M338.58 157.28 C338.3 176.93, 329.55 187.29, 306.58 189.28 M306.58 189.28 C237.97 188.9, 166.75 189.23, 32 189.28 M306.58 189.28 C230.43 189.76, 154 189, 32 189.28 M32 189.28 C11.77 190.11, -1.39 177.82, 0 157.28 M32 189.28 C10.26 187.62, -1.57 180.3, 0 157.28 M0 157.28 C-0.45 118.44, -0.13 80.54, 0 32 M0 157.28 C-1.71 111.46, -1.54 66.43, 0 32 M0 32 C1.02 9.9, 8.9 -1.95, 32 0 M0 32 C1.37 11.3, 10.47 0.7, 32 0" stroke="#1e1e1e" stroke-width="2" fill="none"></path></g><g stroke-linecap="round"><g transform="translate(631.5414456857477 67.1171875) rotate(0 169.88671875 0.822265625)"><path d="M0.49 1.06 C57.06 1.11, 283.05 0.91, 339.65 1.06 M-0.71 0.57 C55.67 0.71, 281.93 1.81, 338.64 2.29" stroke="#1e1e1e" stroke-width="2" fill="none"></path></g></g><mask></mask><g transform="translate(776.1664456857477 92.9375) rotate(0 27.35997772216797 12.5)"><text x="0" y="0" font-family="Virgil, Segoe UI Emoji" font-size="20px" fill="#1e1e1e" text-anchor="start" style="white-space: pre;" direction="ltr" dominant-baseline="text-before-edge">batch</text></g><g stroke-linecap="round"><g transform="translate(632.1391019357477 136) rotate(0 168.224609375 0.095703125)"><path d="M-0.12 -0.58 C55.93 -0.68, 280.66 0.35, 336.79 0.51 M-1.64 1.72 C54.24 1.77, 279.75 -1.46, 336.03 -1.45" stroke="#1e1e1e" stroke-width="2" fill="none"></path></g></g><mask></mask><g transform="translate(716.6312894357477 156.12890625) rotate(0 86.37992095947266 12.5)"><text x="0" y="0" font-family="Virgil, Segoe UI Emoji" font-size="20px" fill="#1971c2" text-anchor="start" style="white-space: pre;" direction="ltr" dominant-baseline="text-before-edge">increaseCallDepth</text></g><g stroke-linecap="round"><g transform="translate(1810.7668325102259 702.9359234722966) rotate(0 -266.2173649631169 143.21040918623896)"><path d="M0.41 0.11 C-88.43 48.17, -443.5 239.5, -532.29 287.19" stroke="#1e1e1e" stroke-width="2.5" fill="none" stroke-dasharray="8 10"></path></g><g transform="translate(1810.7668325102259 702.9359234722966) rotate(0 -266.2173649631169 143.21040918623896)"><path d="M-512.32 264.8 C-519.53 273.16, -525.61 281.15, -532.29 287.19" stroke="#1e1e1e" stroke-width="2.5" fill="none"></path></g><g transform="translate(1810.7668325102259 702.9359234722966) rotate(0 -266.2173649631169 143.21040918623896)"><path d="M-502.6 282.87 C-513.12 284.77, -522.7 286.27, -532.29 287.19" stroke="#1e1e1e" stroke-width="2.5" fill="none"></path></g></g><mask></mask><g stroke-linecap="round"><g transform="translate(369.1386904158368 805.8252456511457) rotate(0 217.56924235921633 84.34311299677216)"><path d="M0.16 -0.3 C72.69 27.74, 363.66 141.04, 436.15 169.03" stroke="#1e1e1e" stroke-width="2.5" fill="none" stroke-dasharray="8 10"></path></g><g transform="translate(369.1386904158368 805.8252456511457) rotate(0 217.56924235921633 84.34311299677216)"><path d="M406.15 168.4 C417.12 170.28, 429.66 168.71, 436.15 169.03" stroke="#1e1e1e" stroke-width="2.5" fill="none"></path></g><g transform="translate(369.1386904158368 805.8252456511457) rotate(0 217.56924235921633 84.34311299677216)"><path d="M413.58 149.27 C421.83 158.47, 431.53 164.21, 436.15 169.03" stroke="#1e1e1e" stroke-width="2.5" fill="none"></path></g></g><mask></mask><g stroke-linecap="round"><g transform="translate(294.71115863540376 240.91242243557866) rotate(0 57.46925677900819 77.06640758862048)"><path d="M-0.62 1.03 C18.17 26.45, 94.83 127.44, 113.92 153.12" stroke="#1e1e1e" stroke-width="2.5" fill="none" stroke-dasharray="8 10"></path></g><g transform="translate(294.71115863540376 240.91242243557866) rotate(0 57.46925677900819 77.06640758862048)"><path d="M88.78 136.75 C100.64 141.73, 107.27 148.33, 113.92 153.12" stroke="#1e1e1e" stroke-width="2.5" fill="none"></path></g><g transform="translate(294.71115863540376 240.91242243557866) rotate(0 57.46925677900819 77.06640758862048)"><path d="M105.17 124.42 C110.55 134.24, 110.62 145.77, 113.92 153.12" stroke="#1e1e1e" stroke-width="2.5" fill="none"></path></g></g><mask></mask><g stroke-linecap="round"><g transform="translate(1445.424576458557 231.38162563112135) rotate(0 -0.05137903027343782 86.28932766975684)"><path d="M-0.7 -1.02 C-0.39 27.44, 0.7 142.65, 0.94 171.63" stroke="#1e1e1e" stroke-width="2.5" fill="none" stroke-dasharray="8 10"></path></g><g transform="translate(1445.424576458557 231.38162563112135) rotate(0 -0.05137903027343782 86.28932766975684)"><path d="M-9.58 143.53 C-8.68 151.7, -6.18 157.77, 0.94 171.63" stroke="#1e1e1e" stroke-width="2.5" fill="none"></path></g><g transform="translate(1445.424576458557 231.38162563112135) rotate(0 -0.05137903027343782 86.28932766975684)"><path d="M10.94 143.35 C7.18 151.44, 5.03 157.55, 0.94 171.63" stroke="#1e1e1e" stroke-width="2.5" fill="none"></path></g></g><mask></mask><g stroke-linecap="round" transform="translate(851.8547382444951 461.4782697161861) rotate(0 169.10797953505062 55.53540974777843)"><path d="M27.77 0 C104.76 0.79, 181.64 2.33, 310.45 0 M310.45 0 C329 1.48, 336.99 9.58, 338.22 27.77 M338.22 27.77 C340.23 41.74, 336.53 59.01, 338.22 83.3 M338.22 83.3 C337.22 101.45, 327.52 111.84, 310.45 111.07 M310.45 111.07 C232.35 113.09, 155.04 112.39, 27.77 111.07 M27.77 111.07 C11.03 112.05, -1.75 103.21, 0 83.3 M0 83.3 C-1.05 67.04, -0.89 55.35, 0 27.77 M0 27.77 C1.06 10.7, 9.55 0.78, 27.77 0" stroke="#1e1e1e" stroke-width="2.5" fill="none" stroke-dasharray="8 10"></path></g><g transform="translate(946.2298031971015 508.48695840824803) rotate(0 84.74991607666016 12.5)"><text x="0" y="0" font-family="Virgil, Segoe UI Emoji" font-size="20px" fill="#1e1e1e" text-anchor="start" style="white-space: pre;" direction="ltr" dominant-baseline="text-before-edge">delegatecall(this)</text></g><g stroke-linecap="round" transform="translate(878.6663993003385 1223.183427610637) rotate(0 169.10797953505062 55.53540974777843)"><path d="M27.77 0 C94.49 0.33, 161.38 -0.67, 310.45 0 M310.45 0 C327.38 -1.99, 338.14 9.55, 338.22 27.77 M338.22 27.77 C338.07 43.67, 337.72 56.04, 338.22 83.3 M338.22 83.3 C338.38 102.27, 327.39 109.93, 310.45 111.07 M310.45 111.07 C212.95 112.55, 114.49 113.13, 27.77 111.07 M27.77 111.07 C10.95 113.04, 1.02 102.38, 0 83.3 M0 83.3 C-1.94 66.65, -2.18 50.71, 0 27.77 M0 27.77 C1.3 7.81, 8.48 1.28, 27.77 0" stroke="#1e1e1e" stroke-width="2.5" fill="none" stroke-dasharray="8 10"></path></g><g transform="translate(991.9952909585227 1272.3010994528734) rotate(0 57.229949951171875 12.5)"><text x="57.229949951171875" y="0" font-family="Virgil, Segoe UI Emoji" font-size="20px" fill="#1e1e1e" text-anchor="middle" style="white-space: pre;" direction="ltr" dominant-baseline="text-before-edge">call(target)</text></g><g mask="url(#mask-2tky1HzKjJ2VdIqB43C1g)" stroke-linecap="round"><g transform="translate(757.9821587107342 205.0397366789016) rotate(0 -51.21936078887779 94.11592246823227)"><path d="M0.93 -0.03 C-16.12 31.34, -85.69 157.46, -102.82 188.71" stroke="#1e1e1e" stroke-width="2.5" fill="none" stroke-dasharray="8 10"></path></g><g transform="translate(757.9821587107342 205.0397366789016) rotate(0 -51.21936078887779 94.11592246823227)"><path d="M-98.22 159.07 C-99.31 166.01, -99.62 175.21, -102.82 188.71" stroke="#1e1e1e" stroke-width="2.5" fill="none"></path></g><g transform="translate(757.9821587107342 205.0397366789016) rotate(0 -51.21936078887779 94.11592246823227)"><path d="M-80.24 168.96 C-85.94 173.52, -90.83 180.21, -102.82 188.71" stroke="#1e1e1e" stroke-width="2.5" fill="none"></path></g></g><mask id="mask-2tky1HzKjJ2VdIqB43C1g"><rect x="0" y="0" fill="#fff" width="960.4208802884898" height="493.27158161536613"></rect><rect x="636.6728549897275" y="286.65565914713386" fill="#000" width="140.1798858642578" height="25" opacity="1"></rect></mask><g transform="translate(636.6728549897275 286.65565914713386) rotate(0 70.36380151733756 12.727766606956735)"><text x="70.0899429321289" y="0" font-family="Virgil, Segoe UI Emoji" font-size="20px" fill="#2f9e44" text-anchor="middle" style="white-space: pre;" direction="ltr" dominant-baseline="text-before-edge">target != this</text></g><g stroke-linecap="round"><g transform="translate(1396.1547202354186 617.838449531561) rotate(0 -120.97748326813775 129.95287202982075)"><path d="M-0.93 0.48 C-41.2 44.09, -201.69 217.37, -241.77 260.59" stroke="#1e1e1e" stroke-width="2.5" fill="none" stroke-dasharray="8 10"></path></g><g transform="translate(1396.1547202354186 617.838449531561) rotate(0 -120.97748326813775 129.95287202982075)"><path d="M-230.14 232.94 C-232.98 241.2, -236.03 249.84, -241.77 260.59" stroke="#1e1e1e" stroke-width="2.5" fill="none"></path></g><g transform="translate(1396.1547202354186 617.838449531561) rotate(0 -120.97748326813775 129.95287202982075)"><path d="M-215.09 246.88 C-222.19 250.97, -229.62 255.55, -241.77 260.59" stroke="#1e1e1e" stroke-width="2.5" fill="none"></path></g></g><mask></mask><g mask="url(#mask-QlgHqVMg9KDguPTx3yG9X)" stroke-linecap="round"><g transform="translate(919.1251525695388 217.29112879284233) rotate(0 52.23848460401433 112.4372377762645)"><path d="M0.68 -0.38 C7.59 14.24, 24.74 51.07, 42.18 88.64 C59.62 126.22, 95.15 202.53, 105.33 225.07" stroke="#1e1e1e" stroke-width="2.5" fill="none" stroke-dasharray="8 10"></path></g><g transform="translate(919.1251525695388 217.29112879284233) rotate(0 52.23848460401433 112.4372377762645)"><path d="M84.24 203.73 C91.41 213.14, 99.92 220.47, 105.33 225.07" stroke="#1e1e1e" stroke-width="2.5" fill="none"></path></g><g transform="translate(919.1251525695388 217.29112879284233) rotate(0 52.23848460401433 112.4372377762645)"><path d="M102.89 195.17 C103.37 207.78, 105.15 218.21, 105.33 225.07" stroke="#1e1e1e" stroke-width="2.5" fill="none"></path></g></g><mask id="mask-QlgHqVMg9KDguPTx3yG9X"><rect x="0" y="0" fill="#fff" width="1123.6021217775674" height="542.1656043453713"></rect><rect x="893.0877299008305" y="293.27623506925715" fill="#000" width="134.2598876953125" height="25" opacity="1"></rect></mask><g transform="translate(893.0877299008307 293.27623506925715) rotate(0 79.04399387526152 36.360522651426905)"><text x="67.12994384765625" y="0" font-family="Virgil, Segoe UI Emoji" font-size="20px" fill="#2f9e44" text-anchor="middle" style="white-space: pre;" direction="ltr" dominant-baseline="text-before-edge">target = this</text></g><g stroke-linecap="round"><g transform="translate(620.798295068769 652.7445262485662) rotate(0 162.1328188975766 112.79249597271263)"><path d="M0.75 -0.85 C54.87 36.65, 270.8 188.25, 324.75 225.97" stroke="#1e1e1e" stroke-width="2.5" fill="none" stroke-dasharray="8 10"></path></g><g transform="translate(620.798295068769 652.7445262485662) rotate(0 162.1328188975766 112.79249597271263)"><path d="M295.77 218.2 C303.09 221.15, 313.84 222.95, 324.75 225.97" stroke="#1e1e1e" stroke-width="2.5" fill="none"></path></g><g transform="translate(620.798295068769 652.7445262485662) rotate(0 162.1328188975766 112.79249597271263)"><path d="M307.55 201.39 C311.48 209.45, 318.69 216.29, 324.75 225.97" stroke="#1e1e1e" stroke-width="2.5" fill="none"></path></g></g><mask></mask><g stroke-linecap="round"><g transform="translate(1040.655428369853 1165.8033871189932) rotate(0 0.48218509193554837 24.081788357366236)"><path d="M-0.27 0.05 C-0.07 8.2, 0.86 40.25, 1.12 48.36" stroke="#1e1e1e" stroke-width="2.5" fill="none" stroke-dasharray="8 10"></path></g><g transform="translate(1040.655428369853 1165.8033871189932) rotate(0 0.48218509193554837 24.081788357366236)"><path d="M-7.8 25.98 C-5.26 32.71, -2.43 39.44, 1.12 48.36" stroke="#1e1e1e" stroke-width="2.5" fill="none"></path></g><g transform="translate(1040.655428369853 1165.8033871189932) rotate(0 0.48218509193554837 24.081788357366236)"><path d="M8.67 25.49 C6.49 32.31, 4.58 39.18, 1.12 48.36" stroke="#1e1e1e" stroke-width="2.5" fill="none"></path></g></g><mask></mask><g stroke-linecap="round" transform="translate(1383.0110215384814 1166.098495106842) rotate(0 203.19829098954744 81.03150988021673)"><path d="M0 0 C117.26 0.48, 236.23 1.87, 406.4 0 M0 0 C122.87 0.34, 246.52 -0.06, 406.4 0 M406.4 0 C407.35 34.77, 407.15 68.72, 406.4 162.06 M406.4 0 C405.3 49.7, 406.63 99.98, 406.4 162.06 M406.4 162.06 C296.83 159.5, 188.08 161, 0 162.06 M406.4 162.06 C266.66 159.96, 125.98 160.23, 0 162.06 M0 162.06 C1.91 121.69, 1.67 79.93, 0 0 M0 162.06 C1 124.34, 0.25 86.85, 0 0" stroke="#1e1e1e" stroke-width="4" fill="none"></path></g><g transform="translate(1452.5621348356576 1201.1137541287387) rotate(0 126.20993041992188 17.5)"><text x="126.20993041992188" y="0" font-family="Virgil, Segoe UI Emoji" font-size="28px" fill="#2f9e44" text-anchor="middle" style="white-space: pre;" direction="ltr" dominant-baseline="text-before-edge">required conditions</text></g><g transform="translate(1399.3860912862933 1263.7940013248935) rotate(0 182.1959228515625 17.5)"><text x="182.1959228515625" y="0" font-family="Virgil, Segoe UI Emoji" font-size="28px" fill="#1971c2" text-anchor="middle" style="white-space: pre;" direction="ltr" dominant-baseline="text-before-edge">execution context changes</text></g><g stroke-linecap="round" transform="translate(1768.9562342694544 153.09241079493972) rotate(0 216.63446562603576 113.79556122007057)"><path d="M32 0 C139.11 0, 243.5 0.8, 401.27 0 M32 0 C111.48 -1.42, 191.62 -1.53, 401.27 0 M401.27 0 C422.91 -0.68, 432.68 12.41, 433.27 32 M401.27 0 C420.51 -0.71, 431.04 8.57, 433.27 32 M433.27 32 C434.8 72.21, 431.99 114.75, 433.27 195.59 M433.27 32 C434.39 80.8, 435.32 130, 433.27 195.59 M433.27 195.59 C432.41 217.75, 421.34 229.18, 401.27 227.59 M433.27 195.59 C432.4 217.43, 423.74 227.84, 401.27 227.59 M401.27 227.59 C303.35 225.55, 203.28 226.68, 32 227.59 M401.27 227.59 C291.57 227.51, 181.61 228.5, 32 227.59 M32 227.59 C11.82 227.88, -1.2 218.45, 0 195.59 M32 227.59 C12.47 225.33, -2.14 216.97, 0 195.59 M0 195.59 C-2.87 140.38, -1.78 85.69, 0 32 M0 195.59 C-1.19 142.45, -2.47 87.49, 0 32 M0 32 C1.45 10.81, 12.36 -1.22, 32 0 M0 32 C-1.46 10.27, 9.61 -1.28, 32 0" stroke="#1e1e1e" stroke-width="2" fill="none"></path></g><g stroke-linecap="round"><g transform="translate(1771.2022602351262 256.63638103386745) rotate(0 216.22115340768414 -0.6018389962841297)"><path d="M0.27 -0.44 C72.5 -1, 361.3 -2.23, 433.5 -2.21 M-1.04 -1.72 C71.1 -1.64, 360.73 -1.12, 433.1 -1.2" stroke="#1e1e1e" stroke-width="2" fill="none"></path></g></g><mask></mask><g transform="translate(1886.9271712311834 279.56960088867027) rotate(0 99.59991455078125 12.5)"><text x="0" y="0" font-family="Virgil, Segoe UI Emoji" font-size="20px" fill="#1e1e1e" text-anchor="start" style="white-space: pre;" direction="ltr" dominant-baseline="text-before-edge">recoverRemainingETH</text></g><g stroke-linecap="round"><g transform="translate(1764.1398861672296 322.6709842912992) rotate(0 218.38905919163244 0.095703125)"><path d="M0.99 0.86 C73.53 1.13, 363.61 0.68, 436.29 0.6 M0.05 0.26 C72.29 0.25, 362.34 -1.57, 435.08 -1.31" stroke="#1e1e1e" stroke-width="2" fill="none"></path></g></g><mask></mask><g transform="translate(1783.3820982644106 159.91114426952998) rotate(0 200.83981323242188 37.5)"><text x="200.83981323242188" y="0" font-family="Virgil, Segoe UI Emoji" font-size="20px" fill="#2f9e44" text-anchor="middle" style="white-space: pre;" direction="ltr" dominant-baseline="text-before-edge">target = recipient</text><text x="200.83981323242188" y="25" font-family="Virgil, Segoe UI Emoji" font-size="20px" fill="#2f9e44" text-anchor="middle" style="white-space: pre;" direction="ltr" dominant-baseline="text-before-edge">onBehalfOfAccount = recipient</text><text x="200.83981323242188" y="50" font-family="Virgil, Segoe UI Emoji" font-size="20px" fill="#2f9e44" text-anchor="middle" style="white-space: pre;" direction="ltr" dominant-baseline="text-before-edge">onlyOwnerOrOperator(onBehalfOfAccount)</text></g><g stroke-linecap="round"><g transform="translate(1914.5426110449512 392.5468084154694) rotate(0 -315.8129027756944 269.0625363758982)"><path d="M-0.07 -1.19 C-105.38 88.53, -527.44 447.71, -632.66 537.55" stroke="#1e1e1e" stroke-width="2.5" fill="none" stroke-dasharray="8 10"></path></g><g transform="translate(1914.5426110449512 392.5468084154694) rotate(0 -315.8129027756944 269.0625363758982)"><path d="M-617.86 511.46 C-623.51 515.91, -625.99 524.16, -632.66 537.55" stroke="#1e1e1e" stroke-width="2.5" fill="none"></path></g><g transform="translate(1914.5426110449512 392.5468084154694) rotate(0 -315.8129027756944 269.0625363758982)"><path d="M-604.55 527.08 C-613.26 527.82, -618.89 532.37, -632.66 537.55" stroke="#1e1e1e" stroke-width="2.5" fill="none"></path></g></g><mask></mask></svg>