<svg xmlns="http://www.w3.org/2000/svg" xmlns:xlink="http://www.w3.org/1999/xlink" version="1.1" viewBox="-1020 1307 1896 942" width="1896px" height="942px"><defs><style>@font-face{
    font-family:"DIN Next";
    font-weight: 400;
    src:url("https://whimsical.com/fonts/139e8e25-0eea-4cb4-a5d4-79048803e73d.eot?#iefix");
    src:url("https://whimsical.com/fonts/139e8e25-0eea-4cb4-a5d4-79048803e73d.eot?#iefix") format("eot"),url("https://whimsical.com/fonts/094b15e3-94bd-435b-a595-d40edfde661a.woff2") format("woff2"),url("https://whimsical.com/fonts/7e5fbe11-4858-4bd1-9ec6-a1d9f9d227aa.woff") format("woff"),url("https://whimsical.com/fonts/0f11eff9-9f05-46f5-9703-027c510065d7.ttf") format("truetype"),url("https://whimsical.com/fonts/48b61978-3f30-4274-823c-5cdcd1876918.svg#48b61978-3f30-4274-823c-5cdcd1876918") format("svg");
}
@font-face{
    font-family:"DIN Next";
    font-weight: 400;
    font-style: italic;
    src:url("https://whimsical.com/fonts/df24d5e8-5087-42fd-99b1-b16042d666c8.eot?#iefix");
    src:url("https://whimsical.com/fonts/df24d5e8-5087-42fd-99b1-b16042d666c8.eot?#iefix") format("eot"),url("https://whimsical.com/fonts/46251881-ffe9-4bfb-99c7-d6ce3bebaf3e.woff2") format("woff2"),url("https://whimsical.com/fonts/790ebbf2-62c5-4a32-946f-99d405f9243e.woff") format("woff"),url("https://whimsical.com/fonts/d28199e6-0f4a-42df-97f4-606701c6f75a.ttf") format("truetype"),url("https://whimsical.com/fonts/37a462c0-d86e-492c-b9ab-35e6bd417f6c.svg#37a462c0-d86e-492c-b9ab-35e6bd417f6c") format("svg");
}
@font-face{
    font-weight: 500;
    font-family:"DIN Next";
    src:url("https://whimsical.com/fonts/c5b058fc-55ce-4e06-a175-5c7d9a7e90f4.eot?#iefix");
    src:url("https://whimsical.com/fonts/c5b058fc-55ce-4e06-a175-5c7d9a7e90f4.eot?#iefix") format("eot"),url("https://whimsical.com/fonts/7b29ae40-30ff-4f99-a2b9-cde88669fa2f.woff2") format("woff2"),url("https://whimsical.com/fonts/bf73077c-e354-4562-a085-f4703eb1d653.woff") format("woff"),url("https://whimsical.com/fonts/0ffa6947-5317-4d07-b525-14d08a028821.ttf") format("truetype"),url("https://whimsical.com/fonts/9e423e45-5450-4991-a157-dbe6cf61eb4e.svg#9e423e45-5450-4991-a157-dbe6cf61eb4e") format("svg");
}
@font-face{
    font-family:"DIN Next";
    font-weight: 500;
    font-style: italic;
    src:url("https://whimsical.com/fonts/9897c008-fd65-48a4-afc7-36de2fea97b9.eot?#iefix");
    src:url("https://whimsical.com/fonts/9897c008-fd65-48a4-afc7-36de2fea97b9.eot?#iefix") format("eot"),url("https://whimsical.com/fonts/c7717981-647d-4b76-8817-33062e42d11f.woff2") format("woff2"),url("https://whimsical.com/fonts/b852cd4c-1255-40b1-a2be-73a9105b0155.woff") format("woff"),url("https://whimsical.com/fonts/821b00ad-e741-4e2d-af1a-85594367c8a2.ttf") format("truetype"),url("https://whimsical.com/fonts/d3e3b689-a6b0-45f2-b279-f5e194f87409.svg#d3e3b689-a6b0-45f2-b279-f5e194f87409") format("svg");
}
@font-face{
    font-weight: 700;
    font-family:"DIN Next";
    src:url("https://whimsical.com/fonts/81cd3b08-fd39-4ae3-8d05-9d24709eba84.eot?#iefix");
    src:url("https://whimsical.com/fonts/81cd3b08-fd39-4ae3-8d05-9d24709eba84.eot?#iefix") format("eot"),url("https://whimsical.com/fonts/31704504-4671-47a6-a61e-397f07410d91.woff2") format("woff2"),url("https://whimsical.com/fonts/b8a280da-481f-44a0-8d9c-1bc64bd7227c.woff") format("woff"),url("https://whimsical.com/fonts/276d122a-0fab-447b-9fc0-5d7fb0eafce2.ttf") format("truetype"),url("https://whimsical.com/fonts/8fb8273a-8213-4928-808b-b5bfaf3fd7e9.svg#8fb8273a-8213-4928-808b-b5bfaf3fd7e9") format("svg");
}
@font-face{
    font-family:"DIN Next";
    font-weight: 700;
    font-style: italic;
    src:url("https://whimsical.com/fonts/00cc6df3-ed32-4004-8dd8-1c576600a408.eot?#iefix");
    src:url("https://whimsical.com/fonts/00cc6df3-ed32-4004-8dd8-1c576600a408.eot?#iefix") format("eot"),url("https://whimsical.com/fonts/4132c4c8-680c-4d6d-9251-a2da38503bbd.woff2") format("woff2"),url("https://whimsical.com/fonts/366401fe-6df4-47be-8f55-8a411cff0dd2.woff") format("woff"),url("https://whimsical.com/fonts/dbe4f7ba-fc16-44a6-a577-571620e9edaf.ttf") format("truetype"),url("https://whimsical.com/fonts/f874edca-ee87-4ccf-8b1d-921fbc3c1c36.svg#f874edca-ee87-4ccf-8b1d-921fbc3c1c36") format("svg");
}

@font-face {
    font-family: 'PFDINMonoPro';
    src:url('https://whimsical.com/fonts/PFDINMonoPro-Regular.woff') format('woff');
    font-weight: 400;
}
@font-face {
    font-family: 'PFDINMonoPro';
    src:url('https://whimsical.com/fonts/PFDINMonoPro-Italic.woff') format('woff');
    font-style: italic;
    font-weight: 400;
}
@font-face {
    font-family: 'PFDINMonoPro';
    src:url('https://whimsical.com/fonts/PFDINMonoPro-Bold.woff') format('woff');
    font-weight: 700;
}
@font-face {
    font-family: 'PFDINMonoPro';
    src:url('https://whimsical.com/fonts/PFDINMonoPro-BoldItalic.woff') format('woff');
    font-style: italic;
    font-weight: 700;
}
* {-webkit-font-smoothing: auto; -moz-osx-font-smoothing: auto;}@media print { svg { width: 100%; height: 100%; } }</style><g><filter id="white-fill-shadow"><feDropShadow dx="0" dy="2" stdDeviation="6" flood-opacity="0.03" flood-color="#000000"></feDropShadow></filter><filter id="light-gray-fill-shadow"><feDropShadow dx="0" dy="2" stdDeviation="6" flood-opacity="0.09" flood-color="#000000"></feDropShadow></filter><filter id="yellow-fill-shadow"><feDropShadow dx="0" dy="2" stdDeviation="6" flood-opacity="0.12" flood-color="#000000"></feDropShadow></filter><filter id="fill-shadow"><feDropShadow dx="0" dy="2" stdDeviation="6" flood-opacity="0.16" flood-color="#000000"></feDropShadow></filter><filter id="frame-shadow"><feDropShadow dx="0" dy="3" stdDeviation="8" flood-opacity="0.06" flood-color="#000000"></feDropShadow></filter><filter id="button-shadow"><feDropShadow dx="0" dy="2" stdDeviation="6" flood-opacity="0.03" flood-color="#000000"></feDropShadow></filter><filter id="button-hover-shadow"><feDropShadow dx="0" dy="2" stdDeviation="6" flood-opacity="0.08" flood-color="#000000"></feDropShadow></filter><filter id="badge-shadow"><feDropShadow dx="0" dy="2" stdDeviation="6" flood-opacity="0.08" flood-color="#000000"></feDropShadow></filter></g></defs><g><g><rect x="-858" y="1956" width="192" height="101" rx="3" ry="3" fill="#e7e4df"></rect><rect y="1956" rx="3" stroke="#897A5F" fill="none" stroke-linejoin="round" width="192" stroke-linecap="round" stroke-width="2" x="-858" ry="3" height="101"></rect><g class="content"><g><g><g><g id="77f483a3-e141-4ac9-953b-5502dd9c13e4"><g><g><g><path d="M -683.767578125 1973 L -683.767578125 1973 L -683.767578125 2004 C -683.767578125 2004  -683.767578125 2004  -683.767578125 2004 L -683.767578125 2004 L -838.232421875 2004 C -839.232421875 2004  -840.232421875 2003  -840.232421875 2002 L -840.232421875 2002 L -840.232421875 1975 C -840.232421875 1974  -839.232421875 1973  -838.232421875 1973 L -838.232421875 1973 L -683.767578125 1973 C -683.767578125 1973  -683.767578125 1973  -683.767578125 1973 L -683.767578125 1973 z" fill="rgba(0,0,0,0.1)"></path></g></g><g></g><text fill="#293845" hover-props="{}"><tspan x="-835.232421875" y="1996" font-family="PFDINMonoPro, Courier, monospace" font-size="22.95" font-style="normal" font-weight="normal">Collateral </tspan></text></g></g></g><g><g id="77f483a3-e141-4ac9-953b-5502dd9c13e4"><g><g><g><path d="M -727.576171875 2011 L -725.576171875 2013 L -725.576171875 2040 C -725.576171875 2041  -726.576171875 2042  -727.576171875 2042 L -727.576171875 2042 L -799.423828125 2042 C -799.423828125 2042  -799.423828125 2042  -799.423828125 2042 L -799.423828125 2042 L -799.423828125 2011 C -799.423828125 2011  -799.423828125 2011  -799.423828125 2011 L -799.423828125 2011 L -727.576171875 2011 C -726.576171875 2011  -725.576171875 2012  -725.576171875 2013 L -725.576171875 2013 z" fill="rgba(0,0,0,0.1)"></path></g></g><g></g><text fill="#293845" hover-props="{}"><tspan x="-799.423828125" y="2034" font-family="PFDINMonoPro, Courier, monospace" font-size="22.95" font-style="normal" font-weight="normal">Vault</tspan></text></g></g></g></g></g></g></g></g><g><g><rect x="-6" y="1714" width="192" height="100.5" rx="3" ry="3" fill="#e7e4df"></rect><rect y="1714" rx="3" stroke="#897A5F" fill="none" stroke-linejoin="round" width="192" stroke-linecap="round" stroke-width="2" x="-6" ry="3" height="100.5"></rect><g class="content"><g><g><g><g id="38560ffb-5292-43f4-aefd-a1d2a38d4b87"><g><g><g><path d="M 151.22265625 1730.75 L 153.22265625 1732.75 L 153.22265625 1759.75 C 153.22265625 1760.75  152.22265625 1761.75  151.22265625 1761.75 L 151.22265625 1761.75 L 21.296875 1761.75 C 20.296875 1761.75  19.296875 1760.75  19.296875 1759.75 L 19.296875 1759.75 L 19.296875 1732.75 C 19.296875 1731.75  20.296875 1730.75  21.296875 1730.75 L 21.296875 1730.75 L 151.22265625 1730.75 C 152.22265625 1730.75  153.22265625 1731.75  153.22265625 1732.75 L 153.22265625 1732.75 z" fill="rgba(0,0,0,0.1)"></path></g></g><g></g><text fill="#293845" hover-props="{}"><tspan x="24.296875" y="1753.75" font-family="PFDINMonoPro, Courier, monospace" font-size="22.95" font-style="normal" font-weight="normal">Liability</tspan></text></g></g><g><g></g><text fill="#293845" hover-props="{}"><tspan x="154.22265625" y="1753.75" font-family="DIN Next, sans-serif" font-size="27" font-style="normal" font-weight="normal"> </tspan></text></g></g><g><g id="17518efa-f498-4612-b4a6-68b078b1815e"><g><g><g><path d="M 126.923828125 1768.75 L 128.923828125 1770.75 L 128.923828125 1797.75 C 128.923828125 1798.75  127.923828125 1799.75  126.923828125 1799.75 L 126.923828125 1799.75 L 52.076171875 1799.75 C 51.076171875 1799.75  50.076171875 1798.75  50.076171875 1797.75 L 50.076171875 1797.75 L 50.076171875 1770.75 C 50.076171875 1769.75  51.076171875 1768.75  52.076171875 1768.75 L 52.076171875 1768.75 L 126.923828125 1768.75 C 127.923828125 1768.75  128.923828125 1769.75  128.923828125 1770.75 L 128.923828125 1770.75 z" fill="rgba(0,0,0,0.1)"></path></g></g><g></g><text fill="#293845" hover-props="{}"><tspan x="55.076171875" y="1791.75" font-family="PFDINMonoPro, Courier, monospace" font-size="22.95" font-style="normal" font-weight="normal">Vault</tspan></text></g></g></g></g></g></g></g></g><g><g><rect x="-468" y="1717" width="192" height="96" rx="3" ry="3" fill="#e3cff3"></rect><rect y="1717" rx="3" stroke="#730FC3" fill="none" stroke-linejoin="round" width="192" stroke-linecap="round" stroke-width="2" x="-468" ry="3" height="96"></rect><g class="content"><g><g><g><g id="7b2a35ef-76ef-4c47-8c90-fdea047b2de6"><g><g><g><path d="M -348.845703125 1750.5 L -346.845703125 1752.5 L -346.845703125 1779.5 C -346.845703125 1780.5  -347.845703125 1781.5  -348.845703125 1781.5 L -348.845703125 1781.5 L -396.154296875 1781.5 C -397.154296875 1781.5  -398.154296875 1780.5  -398.154296875 1779.5 L -398.154296875 1779.5 L -398.154296875 1752.5 C -398.154296875 1751.5  -397.154296875 1750.5  -396.154296875 1750.5 L -396.154296875 1750.5 L -348.845703125 1750.5 C -347.845703125 1750.5  -346.845703125 1751.5  -346.845703125 1752.5 L -346.845703125 1752.5 z" fill="rgba(0,0,0,0.1)"></path></g></g><g></g><text fill="#293845" hover-props="{}"><tspan x="-393.154296875" y="1773.5" font-family="PFDINMonoPro, Courier, monospace" font-size="22.95" font-style="normal" font-weight="normal">EVC</tspan></text></g></g></g></g></g></g></g></g><g><g><g transform="translate(42 1331) rotate(0 48 48)"><svg id="s1f86567a-4654-428a-99e6-b128d1344a8b" width="96" height="96" viewBox="0 0 48 48" data-icon-name="single-body" data-icon-partition="c48-8"><g><path fill-rule="evenodd" clip-rule="evenodd" fill="#5A7A84" d="M24,1c-3.3077145,0-6,2.6914291-6,6s2.6922855,6,6,6 c3.3077087,0,6-2.6914291,6-6S27.3077087,1,24,1"></path><path fill-rule="evenodd" clip-rule="evenodd" fill="#335262" d="M20.0006599,15C16.6865864,15,14,17.6780396,14,21.0033302V31 c0,0.4589996,0.3120003,0.8590012,0.7580004,0.9700012l3.3049994,0.8259964l0.941,13.2870026 C19.0470009,46.6020012,19.4790001,47,20,47h8c0.5209999,0,0.9529991-0.3979988,0.9960003-0.9169998l0.941-13.2870026 l3.3050003-0.8259964C33.6879997,31.8590012,34,31.4589996,34,31v-9.9966698C34,17.6877804,31.3234596,15,27.9993401,15H20.0006599z "></path></g></svg></g><text y="1431" font-style="normal" font-size="27" font-weight="normal" fill="#293845" width="120" xml:space="preserve" x="30" font-family="DIN Next, sans-serif" height="36"><tspan x="90" y="1458" text-anchor="middle" style="white-space:pre;">Liquidator</tspan></text></g></g><g><g><rect x="-75" y="1572" width="330" height="48" rx="24" ry="24" fill="#fae6d8"></rect><rect y="1572" rx="24" stroke="#E8833A" fill="none" stroke-linejoin="round" width="330" stroke-linecap="round" stroke-width="2" x="-75" ry="24" height="48"></rect><g class="content"><g><g><g><g id="4317decd-22f5-47f9-9db0-09d07e4cf36d"><g><g><g><path d="M 170.52734375 1585.75 L 172.52734375 1587.75 L 172.52734375 1605.75 C 172.52734375 1606.75  171.52734375 1607.75  170.52734375 1607.75 L 170.52734375 1607.75 L 8.47265625 1607.75 C 7.47265625 1607.75  6.47265625 1606.75  6.47265625 1605.75 L 6.47265625 1605.75 L 6.47265625 1587.75 C 6.47265625 1586.75  7.47265625 1585.75  8.47265625 1585.75 L 8.47265625 1585.75 L 170.52734375 1585.75 C 171.52734375 1585.75  172.52734375 1586.75  172.52734375 1587.75 L 172.52734375 1587.75 z" fill="rgba(0,0,0,0.1)"></path></g></g><g></g><text fill="#293845" hover-props="{}"><tspan x="11.47265625" y="1601.75" font-family="PFDINMonoPro, Courier, monospace" font-size="15.299999999999999" font-style="normal" font-weight="normal">Vault.liquidate()</tspan></text></g></g></g></g></g></g></g></g><g><g><rect x="-342" y="2009" width="384" height="48" rx="24" ry="24" fill="#fdf3d3"></rect><rect y="2009" rx="24" stroke="#F7C325" fill="none" stroke-linejoin="round" width="384" stroke-linecap="round" stroke-width="2" x="-342" ry="24" height="48"></rect><g class="content"><g><g><g><g id="a91a7a24-7b74-4622-95e7-4a3a331f2c3a"><g><g><g><path d="M 22.32421875 2022.75 L 24.32421875 2024.75 L 24.32421875 2042.75 C 24.32421875 2043.75  23.32421875 2044.75  22.32421875 2044.75 L 22.32421875 2044.75 L -323.32421875 2044.75 C -324.32421875 2044.75  -325.32421875 2043.75  -325.32421875 2042.75 L -325.32421875 2042.75 L -325.32421875 2024.75 C -325.32421875 2023.75  -324.32421875 2022.75  -323.32421875 2022.75 L -323.32421875 2022.75 L 22.32421875 2022.75 C 23.32421875 2022.75  24.32421875 2023.75  24.32421875 2024.75 L 24.32421875 2024.75 z" fill="rgba(0,0,0,0.1)"></path></g></g><g></g><text fill="#293845" hover-props="{}"><tspan x="-320.32421875" y="2038.75" font-family="PFDINMonoPro, Courier, monospace" font-size="15.299999999999999" font-style="normal" font-weight="normal">EVC.impersonate(Vault share transfer)</tspan></text></g></g></g></g></g></g></g></g><g><g><rect x="-1020" y="1863" width="516" height="48" rx="24" ry="24" fill="#fdf3d3"></rect><rect y="1863" rx="24" stroke="#F7C325" fill="none" stroke-linejoin="round" width="516" stroke-linecap="round" stroke-width="2" x="-1020" ry="24" height="48"></rect><g class="content"><g><g><g><g id="fa8ad164-21cd-46fe-9648-486688d5d90c"><g><g><g><path d="M -534.59765625 1876.75 L -532.59765625 1878.75 L -532.59765625 1896.75 C -532.59765625 1897.75  -533.59765625 1898.75  -534.59765625 1898.75 L -534.59765625 1898.75 L -990.40234375 1898.75 C -991.40234375 1898.75  -992.40234375 1897.75  -992.40234375 1896.75 L -992.40234375 1896.75 L -992.40234375 1878.75 C -992.40234375 1877.75  -991.40234375 1876.75  -990.40234375 1876.75 L -990.40234375 1876.75 L -534.59765625 1876.75 C -533.59765625 1876.75  -532.59765625 1877.75  -532.59765625 1878.75 L -532.59765625 1878.75 z" fill="rgba(0,0,0,0.1)"></path></g></g><g></g><text fill="#293845" hover-props="{}"><tspan x="-987.40234375" y="1892.75" font-family="PFDINMonoPro, Courier, monospace" font-size="15.299999999999999" font-style="normal" font-weight="normal">Vault share transfer(from Violator to Liquidator)</tspan></text></g></g></g></g></g></g></g></g><g><g class="content"><g><g><g><g><g></g><text fill="#293845" hover-props="{}"><tspan x="-781.89599609375" y="1423.5" font-family="DIN Next, sans-serif" font-size="126" font-style="normal" font-weight="normal">Liquidation</tspan></text></g></g></g></g></g></g><g><g class="content"><g><g><g><g><g></g><text fill="#293845" hover-props="{}"><tspan x="204" y="1708.5" font-family="DIN Next, sans-serif" font-size="18" font-style="normal" font-weight="normal">liquidation does the following:</tspan></text></g></g></g></g><g><g><rect x="217.5" y="1723.5" width="4" height="4" rx="2" stroke="#293845" stroke-width="1" fill="#293845"></rect><g><g><g><g><g></g><text fill="#293845" hover-props="{}"><tspan x="236" y="1732.5" font-family="DIN Next, sans-serif" font-size="18" font-style="normal" font-weight="normal">depending whether the Vault is called directly or not, </tspan></text></g><g id="528e15ad-d260-4895-9c39-994d2e7f7643"><g><g><g><path d="M 765.6396484375 1716.5 L 767.6396484375 1718.5 L 767.6396484375 1736.5 C 767.6396484375 1737.5  766.6396484375 1738.5  765.6396484375 1738.5 L 765.6396484375 1738.5 L 649.4833984375 1738.5 C 648.4833984375 1738.5  647.4833984375 1737.5  647.4833984375 1736.5 L 647.4833984375 1736.5 L 647.4833984375 1718.5 C 647.4833984375 1717.5  648.4833984375 1716.5  649.4833984375 1716.5 L 649.4833984375 1716.5 L 765.6396484375 1716.5 C 766.6396484375 1716.5  767.6396484375 1717.5  767.6396484375 1718.5 L 767.6396484375 1718.5 z" fill="rgba(195,207,217,0.4)"></path></g></g><g></g><text fill="#293845" hover-props="{}"><tspan x="652.4833984375" y="1732.5" font-family="PFDINMonoPro, Courier, monospace" font-size="15.299999999999999" font-style="normal" font-weight="normal">EVC.callback</tspan></text></g></g><g><g></g><text fill="#293845" hover-props="{}"><tspan x="768.6396484375" y="1732.5" font-family="DIN Next, sans-serif" font-size="18" font-style="normal" font-weight="normal"> may be used</tspan></text></g></g></g></g></g><g><rect x="217.5" y="1749" width="4" height="4" rx="2" stroke="#293845" stroke-width="1" fill="#293845"></rect><g><g><g><g><g></g><text fill="#293845" hover-props="{}"><tspan x="236" y="1758" font-family="DIN Next, sans-serif" font-size="18" font-style="normal" font-weight="normal">transfers the debt from the Violator to the Liquidator</tspan></text></g></g></g></g></g><g><rect x="217.5" y="1773" width="4" height="4" rx="2" stroke="#293845" stroke-width="1" fill="#293845"></rect><g><g><g><g><g></g><text fill="#293845" hover-props="{}"><tspan x="236" y="1782" font-family="DIN Next, sans-serif" font-size="18" font-style="normal" font-weight="normal">calls </tspan></text></g><g id="15e79ad3-1a36-4a53-b6d4-e553a0abd00f"><g><g><g><path d="M 716.14453125 1766 L 718.14453125 1768 L 718.14453125 1786 C 718.14453125 1787  717.14453125 1788  716.14453125 1788 L 716.14453125 1788 L 278.69921875 1788 C 277.69921875 1788  276.69921875 1787  276.69921875 1786 L 276.69921875 1786 L 276.69921875 1768 C 276.69921875 1767  277.69921875 1766  278.69921875 1766 L 278.69921875 1766 L 716.14453125 1766 C 717.14453125 1766  718.14453125 1767  718.14453125 1768 L 718.14453125 1768 z" fill="rgba(195,207,217,0.4)"></path></g></g><g></g><text fill="#293845" hover-props="{}"><tspan x="281.69921875" y="1782" font-family="PFDINMonoPro, Courier, monospace" font-size="15.299999999999999" font-style="normal" font-weight="normal">EVC.impersonate(Colateral Vault share transfer)</tspan></text></g></g></g></g></g></g><g><rect x="217.5" y="1798.5" width="4" height="4" rx="2" stroke="#293845" stroke-width="1" fill="#293845"></rect><g><g><g><g><g></g><text fill="#293845" hover-props="{}"><tspan x="236" y="1807.5" font-family="DIN Next, sans-serif" font-size="18" font-style="normal" font-weight="normal">carefully calls </tspan></text></g><g id="a4f631d2-e76b-44e4-ad8a-7d2b107aa286"><g><g><g><path d="M 714.796875 1791.5 L 716.796875 1793.5 L 716.796875 1811.5 C 716.796875 1812.5  715.796875 1813.5  714.796875 1813.5 L 714.796875 1813.5 L 350.7890625 1813.5 C 349.7890625 1813.5  348.7890625 1812.5  348.7890625 1811.5 L 348.7890625 1811.5 L 348.7890625 1793.5 C 348.7890625 1792.5  349.7890625 1791.5  350.7890625 1791.5 L 350.7890625 1791.5 L 714.796875 1791.5 C 715.796875 1791.5  716.796875 1792.5  716.796875 1793.5 L 716.796875 1793.5 z" fill="rgba(195,207,217,0.4)"></path></g></g><g></g><text fill="#293845" hover-props="{}"><tspan x="353.7890625" y="1807.5" font-family="PFDINMonoPro, Courier, monospace" font-size="15.299999999999999" font-style="normal" font-weight="normal">EVC.forgiveAccountStatusCheck(Violator)</tspan></text></g></g></g></g></g></g><g><rect x="217.5" y="1824" width="4" height="4" rx="2" stroke="#293845" stroke-width="1" fill="#293845"></rect><g><g><g><g><g></g><text fill="#293845" hover-props="{}"><tspan x="236" y="1833" font-family="DIN Next, sans-serif" font-size="18" font-style="normal" font-weight="normal">calls </tspan></text></g><g id="07c1f72d-94a5-4515-8d09-491fa05b1b97"><g><g><g><path d="M 661.06640625 1817 L 663.06640625 1819 L 663.06640625 1837 C 663.06640625 1838  662.06640625 1839  661.06640625 1839 L 661.06640625 1839 L 278.69921875 1839 C 277.69921875 1839  276.69921875 1838  276.69921875 1837 L 276.69921875 1837 L 276.69921875 1819 C 276.69921875 1818  277.69921875 1817  278.69921875 1817 L 278.69921875 1817 L 661.06640625 1817 C 662.06640625 1817  663.06640625 1818  663.06640625 1819 L 663.06640625 1819 z" fill="rgba(195,207,217,0.4)"></path></g></g><g></g><text fill="#293845" hover-props="{}"><tspan x="281.69921875" y="1833" font-family="PFDINMonoPro, Courier, monospace" font-size="15.299999999999999" font-style="normal" font-weight="normal">EVC.requireAccountStatusCheck(Liquidator)</tspan></text></g></g></g></g></g></g></g></g></g><g><g><line stroke="#788896" fill="none" stroke-linejoin="round" y1="1919" stroke-linecap="round" stroke-width="4" x1="-762" y2="1943.9999999999995" x2="-762"></line><polygon points="-756.45905,1940.9079 -762,1948 -767.54095,1940.9079" fill="#788896" stroke="#788896" stroke-width="2" stroke-linecap="round" stroke-linejoin="round"></polygon></g></g><g><g><rect x="-537" y="1573" width="330" height="48" rx="24" ry="24" fill="#fae6d8"></rect><rect y="1573" rx="24" stroke="#E8833A" fill="none" stroke-linejoin="round" width="330" stroke-linecap="round" stroke-width="2" x="-537" ry="24" height="48"></rect><g class="content"><g><g><g><g id="c099f62a-f561-4f6e-86a2-37dad4461a3f"><g><g><g><path d="M -254.75390625 1586.75 L -252.75390625 1588.75 L -252.75390625 1606.75 C -252.75390625 1607.75  -253.75390625 1608.75  -254.75390625 1608.75 L -254.75390625 1608.75 L -490.24609375 1608.75 C -491.24609375 1608.75  -492.24609375 1607.75  -492.24609375 1606.75 L -492.24609375 1606.75 L -492.24609375 1588.75 C -492.24609375 1587.75  -491.24609375 1586.75  -490.24609375 1586.75 L -490.24609375 1586.75 L -254.75390625 1586.75 C -253.75390625 1586.75  -252.75390625 1587.75  -252.75390625 1588.75 L -252.75390625 1588.75 z" fill="rgba(0,0,0,0.1)"></path></g></g><g></g><text fill="#293845" hover-props="{}"><tspan x="-487.24609375" y="1602.75" font-family="PFDINMonoPro, Courier, monospace" font-size="15.299999999999999" font-style="normal" font-weight="normal">EVC.call(Vault liquidate)</tspan></text></g></g></g></g></g></g></g></g><g><g><line stroke="#788896" fill="none" stroke-linejoin="round" y1="1475" stroke-linecap="round" stroke-width="4" x1="90" y2="1560" x2="90"></line><polygon points="95.54095,1556.9079 90,1564 84.45905,1556.9079" fill="#788896" stroke="#788896" stroke-width="2" stroke-linecap="round" stroke-linejoin="round"></polygon></g></g><g><g><path d="M90,1475v33c0,8.28426 -6.71574,15 -15,15h-432c-8.28426,0 -15,6.71574 -15,15v23" fill="none" stroke="#788896" stroke-linecap="round" stroke-linejoin="round" stroke-width="4"></path><polygon points="-366.45905,1557.9079 -372,1565 -377.54095,1557.9079" fill="#788896" stroke="#788896" stroke-width="2" stroke-linecap="round" stroke-linejoin="round"></polygon></g></g><g><g><line stroke="#788896" fill="none" stroke-linejoin="round" y1="1628.0000000000002" stroke-linecap="round" stroke-width="4" x1="90" y2="1702.0000000000002" x2="90"></line><polygon points="95.54095,1698.9079 90,1706 84.45905,1698.9079" fill="#788896" stroke="#788896" stroke-width="2" stroke-linecap="round" stroke-linejoin="round"></polygon></g></g><g><g><line stroke="#788896" fill="none" stroke-linejoin="round" y1="1629" stroke-linecap="round" stroke-width="4" x1="-372" y2="1705.0000000000005" x2="-372"></line><polygon points="-366.45905,1701.9079 -372,1709 -377.54095,1701.9079" fill="#788896" stroke="#788896" stroke-width="2" stroke-linecap="round" stroke-linejoin="round"></polygon></g></g><g><g><path d="M-268,1765h165.625c0.20711,0 0.375,-0.16789 0.375,-0.375v0c0,-0.20711 0.16789,-0.375 0.375,-0.375h83.625" fill="none" stroke="#788896" stroke-linecap="round" stroke-linejoin="round" stroke-width="4"></path><polygon points="-21.0921,1758.70905 -14,1764.25 -21.0921,1769.79095" fill="#788896" stroke="#788896" stroke-width="2" stroke-linecap="round" stroke-linejoin="round"></polygon></g></g><g><g><rect x="-303" y="1911" width="306" height="48" rx="24" ry="24" fill="#fdf3d3"></rect><rect y="1911" rx="24" stroke="#F7C325" fill="none" stroke-linejoin="round" width="306" stroke-linecap="round" stroke-width="2" x="-303" ry="24" height="48"></rect><g class="content"><g><g><g><g id="7de8b8c5-2754-4fa5-9494-9889c1db4831"><g><g><g><path d="M -14.39453125 1924.75 L -12.39453125 1926.75 L -12.39453125 1944.75 C -12.39453125 1945.75  -13.39453125 1946.75  -14.39453125 1946.75 L -14.39453125 1946.75 L -286.60546875 1946.75 C -287.60546875 1946.75  -288.60546875 1945.75  -288.60546875 1944.75 L -288.60546875 1944.75 L -288.60546875 1926.75 C -288.60546875 1925.75  -287.60546875 1924.75  -286.60546875 1924.75 L -286.60546875 1924.75 L -14.39453125 1924.75 C -13.39453125 1924.75  -12.39453125 1925.75  -12.39453125 1926.75 L -12.39453125 1926.75 z" fill="rgba(0,0,0,0.1)"></path></g></g><g></g><text fill="#293845" hover-props="{}"><tspan x="-283.60546875" y="1940.75" font-family="PFDINMonoPro, Courier, monospace" font-size="15.299999999999999" font-style="normal" font-weight="normal">EVC.callback(Vault liquidate)</tspan></text></g></g></g></g></g></g></g></g><g><g><path d="M90,1822.5v97.5c0,8.28426 -6.71574,15 -15,15h-60" fill="none" stroke="#788896" stroke-linecap="round" stroke-linejoin="round" stroke-width="4"></path><polygon points="18.0921,1940.54095 11,1935 18.0921,1929.45905" fill="#788896" stroke="#788896" stroke-width="2" stroke-linecap="round" stroke-linejoin="round"></polygon></g></g><g><g><path d="M-311,1935h-46c-8.28426,0 -15,-6.71574 -15,-15v-95" fill="none" stroke="#788896" stroke-linecap="round" stroke-linejoin="round" stroke-width="4"></path><polygon points="-377.54095,1828.0921 -372,1821 -366.45905,1828.0921" fill="#788896" stroke="#788896" stroke-width="2" stroke-linecap="round" stroke-linejoin="round"></polygon></g></g><g><g><path d="M90,1822.5v195.5c0,8.28426 -6.71574,15 -15,15h-21" fill="none" stroke="#788896" stroke-linecap="round" stroke-linejoin="round" stroke-width="4"></path><polygon points="57.0921,2038.54095 50,2033 57.0921,2027.45905" fill="#788896" stroke="#788896" stroke-width="2" stroke-linecap="round" stroke-linejoin="round"></polygon></g></g><g><g><path d="M-350,2033h-11c-6.07512,0 -11,-4.92488 -11,-11v-197" fill="none" stroke="#788896" stroke-linecap="round" stroke-linejoin="round" stroke-width="4"></path><polygon points="-377.54095,1828.0921 -372,1821 -366.45905,1828.0921" fill="#788896" stroke="#788896" stroke-width="2" stroke-linecap="round" stroke-linejoin="round"></polygon></g></g><g><g><path d="M-476,1765h-271c-8.28426,0 -15,6.71574 -15,15v71" fill="none" stroke="#788896" stroke-linecap="round" stroke-linejoin="round" stroke-width="4"></path><polygon points="-756.45905,1847.9079 -762,1855 -767.54095,1847.9079" fill="#788896" stroke="#788896" stroke-width="2" stroke-linecap="round" stroke-linejoin="round"></polygon></g></g><g><g><rect x="-355" y="2105" width="411" height="48" rx="24" ry="24" fill="#fdf3d3"></rect><rect y="2105" rx="24" stroke="#F7C325" fill="none" stroke-linejoin="round" width="411" stroke-linecap="round" stroke-width="2" x="-355" ry="24" height="48"></rect><g class="content"><g><g><g><g id="dd593b15-a5ce-4e97-b075-8c27b7d9c9f3"><g><g><g><path d="M 32.00390625 2118.75 L 34.00390625 2120.75 L 34.00390625 2138.75 C 34.00390625 2139.75  33.00390625 2140.75  32.00390625 2140.75 L 32.00390625 2140.75 L -332.00390625 2140.75 C -333.00390625 2140.75  -334.00390625 2139.75  -334.00390625 2138.75 L -334.00390625 2138.75 L -334.00390625 2120.75 C -334.00390625 2119.75  -333.00390625 2118.75  -332.00390625 2118.75 L -332.00390625 2118.75 L 32.00390625 2118.75 C 33.00390625 2118.75  34.00390625 2119.75  34.00390625 2120.75 L 34.00390625 2120.75 z" fill="rgba(0,0,0,0.1)"></path></g></g><g></g><text fill="#293845" hover-props="{}"><tspan x="-329.00390625" y="2134.75" font-family="PFDINMonoPro, Courier, monospace" font-size="15.299999999999999" font-style="normal" font-weight="normal">EVC.forgiveAccountStatusCheck(Violator)</tspan></text></g></g></g></g></g></g></g></g><g><g><rect x="-355" y="2201" width="411" height="48" rx="24" ry="24" fill="#fdf3d3"></rect><rect y="2201" rx="24" stroke="#F7C325" fill="none" stroke-linejoin="round" width="411" stroke-linecap="round" stroke-width="2" x="-355" ry="24" height="48"></rect><g class="content"><g><g><g><g id="a96bd1ad-56db-43eb-a4dd-d14dd7b8fbc7"><g><g><g><path d="M 41.18359375 2214.75 L 41.18359375 2214.75 L 41.18359375 2236.75 C 41.18359375 2236.75  41.18359375 2236.75  41.18359375 2236.75 L 41.18359375 2236.75 L -338.18359375 2236.75 C -339.18359375 2236.75  -340.18359375 2235.75  -340.18359375 2234.75 L -340.18359375 2234.75 L -340.18359375 2216.75 C -340.18359375 2215.75  -339.18359375 2214.75  -338.18359375 2214.75 L -338.18359375 2214.75 L 41.18359375 2214.75 C 41.18359375 2214.75  41.18359375 2214.75  41.18359375 2214.75 L 41.18359375 2214.75 z" fill="rgba(0,0,0,0.1)"></path></g></g><g></g><text fill="#293845" hover-props="{}"><tspan x="-335.18359375" y="2230.75" font-family="PFDINMonoPro, Courier, monospace" font-size="15.299999999999999" font-style="normal" font-weight="normal">EVC.requireAccountStatusCheck(Liquidator)</tspan></text></g></g></g></g></g></g></g></g><g><g><path d="M90,1822.5v293.5c0,7.17969 -5.82031,13 -13,13h-9" fill="none" stroke="#788896" stroke-linecap="round" stroke-linejoin="round" stroke-width="4"></path><polygon points="71.0921,2134.54095 64,2129 71.0921,2123.45905" fill="#788896" stroke="#788896" stroke-width="2" stroke-linecap="round" stroke-linejoin="round"></polygon></g></g><g><g><path d="M90,1822.5v389.5c0,7.17969 -5.82031,13 -13,13h-9" fill="none" stroke="#788896" stroke-linecap="round" stroke-linejoin="round" stroke-width="4"></path><polygon points="71.0921,2230.54095 64,2225 71.0921,2219.45905" fill="#788896" stroke="#788896" stroke-width="2" stroke-linecap="round" stroke-linejoin="round"></polygon></g></g><g><g><path d="M-363,2129h-4.5c-2.48528,0 -4.5,-2.01472 -4.5,-4.5v-299.5" fill="none" stroke="#788896" stroke-linecap="round" stroke-linejoin="round" stroke-width="4"></path><polygon points="-377.54095,1828.0921 -372,1821 -366.45905,1828.0921" fill="#788896" stroke="#788896" stroke-width="2" stroke-linecap="round" stroke-linejoin="round"></polygon></g></g><g><g><path d="M-363,2225h-4.5c-2.48528,0 -4.5,-2.01472 -4.5,-4.5v-395.5" fill="none" stroke="#788896" stroke-linecap="round" stroke-linejoin="round" stroke-width="4"></path><polygon points="-377.54095,1828.0921 -372,1821 -366.45905,1828.0921" fill="#788896" stroke="#788896" stroke-width="2" stroke-linecap="round" stroke-linejoin="round"></polygon></g></g></svg>